<svg xmlns="http://www.w3.org/2000/svg" id="Capa_1" height="512" viewBox="0 0 512 512" width="512"><g><g><path clip-rule="evenodd" d="m174.879 139.116c2.383 10.545 6.553 20.437 12.17 29.281l-6.355 6.35c-3.319 3.345-3.319 8.787 0 12.104l16.965 16.951c3.348 3.345 8.794 3.345 12.142 0l6.326-6.321c8.879 5.612 18.752 9.779 29.305 12.132v8.957c0 4.705 3.858 8.56 8.596 8.56h23.972c4.738 0 8.596-3.855 8.596-8.56v-8.957c10.553-2.353 20.426-6.52 29.305-12.132l6.355 6.321c3.319 3.345 8.766 3.345 12.114 0l16.965-16.951c3.319-3.316 3.319-8.759 0-12.104l-6.355-6.35c5.617-8.844 9.787-18.737 12.17-29.281h8.965c4.709 0 8.567-3.855 8.567-8.56v-23.981c0-4.705-3.858-8.56-8.567-8.56h-8.965c-2.383-10.545-6.553-20.437-12.17-29.281l6.355-6.349c3.319-3.316 3.319-8.787 0-12.104l-16.965-16.951c-3.348-3.345-8.794-3.345-12.114 0l-6.355 6.321c-8.879-5.612-18.752-9.779-29.305-12.132v-8.957c0-4.705-3.858-8.56-8.596-8.56h-23.972c-4.738 0-8.596 3.855-8.596 8.56v8.957c-10.553 2.353-20.426 6.52-29.305 12.132l-6.326-6.321c-3.348-3.345-8.794-3.345-12.142 0l-16.964 16.95c-3.319 3.316-3.319 8.787 0 12.104l6.355 6.349c-5.617 8.844-9.787 18.737-12.17 29.281h-8.965c-4.709 0-8.567 3.855-8.567 8.56v23.981c0 4.705 3.858 8.56 8.567 8.56h8.964zm91.149 31.237c-29.418 0-53.22-23.811-53.22-53.177s23.801-53.177 53.22-53.177c29.39 0 53.191 23.811 53.191 53.177s-23.801 53.177-53.191 53.177z" fill="#9ea6bf" fill-rule="evenodd"></path></g><g><path clip-rule="evenodd" d="m104.837 273.192-54.894 33.051c1.957 3.231 3.092 7.03 3.092 11.083s-1.135 7.852-3.092 11.083l54.894 33.051c3.745-6.236 10.61-10.403 18.411-10.403 7.83 0 14.667 4.167 18.44 10.403l54.894-33.051c-1.957-3.231-3.092-7.03-3.092-11.083s1.135-7.852 3.092-11.083l-54.894-33.051c-3.773 6.236-10.61 10.403-18.44 10.403-7.801 0-14.666-4.167-18.411-10.403z" fill="#beece1" fill-rule="evenodd"></path></g><g><path clip-rule="evenodd" d="m123.248 351.058c-7.801 0-14.667 4.167-18.411 10.403-1.957 3.231-3.092 7.03-3.092 11.083 0 11.877 9.645 21.486 21.504 21.486 11.887 0 21.532-9.609 21.532-21.486 0-4.053-1.135-7.852-3.092-11.083-3.774-6.236-10.611-10.403-18.441-10.403z" fill="#bfdbff" fill-rule="evenodd"></path></g><g><path clip-rule="evenodd" d="m31.504 295.84c-11.83 0-21.447 9.553-21.504 21.373v.113.113c.057 11.82 9.674 21.373 21.504 21.373 7.83 0 14.667-4.167 18.44-10.403 1.957-3.231 3.092-7.03 3.092-11.083s-1.135-7.852-3.092-11.083c-3.774-6.236-10.611-10.403-18.44-10.403z" fill="#bfdbff" fill-rule="evenodd"></path></g><g><path clip-rule="evenodd" d="m123.248 240.622c-11.858 0-21.504 9.609-21.504 21.486 0 4.053 1.135 7.852 3.092 11.083 3.745 6.236 10.61 10.403 18.411 10.403 7.83 0 14.667-4.167 18.44-10.403 1.957-3.231 3.092-7.03 3.092-11.083.001-11.876-9.644-21.486-21.531-21.486z" fill="#bfdbff" fill-rule="evenodd"></path></g><g><path clip-rule="evenodd" d="m215.021 295.84c-7.83 0-14.667 4.167-18.44 10.403-1.957 3.231-3.092 7.03-3.092 11.083s1.135 7.852 3.092 11.083c3.773 6.236 10.61 10.403 18.44 10.403 11.858 0 21.504-9.609 21.504-21.486 0-11.876-9.646-21.486-21.504-21.486z" fill="#bfdbff" fill-rule="evenodd"></path></g><g><path clip-rule="evenodd" d="m196.582 328.41-54.894 33.051c1.957 3.231 3.092 7.03 3.092 11.083 0 11.877-9.645 21.486-21.532 21.486v64.969c7.83 0 14.667 4.167 18.44 10.403l54.894-33.023c-1.957-3.26-3.092-7.058-3.092-11.112 0-11.877 9.645-21.486 21.532-21.486v-64.969c-7.831.001-14.667-4.166-18.44-10.402z" fill="#7dd9c2" fill-rule="evenodd"></path></g><g><path clip-rule="evenodd" d="m215.021 403.782c-11.887 0-21.532 9.609-21.532 21.486 0 4.053 1.135 7.852 3.092 11.112 3.773 6.208 10.61 10.403 18.44 10.403 11.858 0 21.504-9.638 21.504-21.515s-9.646-21.486-21.504-21.486z" fill="#bfdbff" fill-rule="evenodd"></path></g><g><path clip-rule="evenodd" d="m31.504 338.813v64.969c11.887 0 21.532 9.609 21.532 21.486 0 4.053-1.135 7.852-3.092 11.112l54.894 33.023c3.745-6.236 10.61-10.403 18.411-10.403v-64.969c-11.858 0-21.504-9.609-21.504-21.486 0-4.053 1.135-7.852 3.092-11.083l-54.894-33.052c-3.773 6.236-10.61 10.403-18.439 10.403z" fill="#7dd9c2" fill-rule="evenodd"></path></g><g><path clip-rule="evenodd" d="m31.504 403.782c-11.83 0-21.447 9.553-21.504 21.373v.113.113c.057 11.82 9.674 21.401 21.504 21.401 7.83 0 14.667-4.195 18.44-10.403 1.957-3.26 3.092-7.058 3.092-11.112-.001-11.876-9.646-21.485-21.532-21.485z" fill="#bfdbff" fill-rule="evenodd"></path></g><g><path clip-rule="evenodd" d="m123.248 458.999c-7.801 0-14.667 4.167-18.411 10.403-1.957 3.231-3.092 7.03-3.092 11.083 0 11.877 9.645 21.515 21.504 21.515 11.887 0 21.532-9.638 21.532-21.515 0-4.053-1.135-7.852-3.092-11.083-3.774-6.236-10.611-10.403-18.441-10.403z" fill="#bfdbff" fill-rule="evenodd"></path></g><g><path clip-rule="evenodd" d="m408.78 262.761-91.773 55.217 91.773 55.218 91.745-55.218z" fill="#beece1" fill-rule="evenodd"></path></g><g><path clip-rule="evenodd" d="m317.007 317.978v107.97l91.773 55.218v-107.97z" fill="#7dd9c2" fill-rule="evenodd"></path></g><g><path clip-rule="evenodd" d="m500.525 317.978-91.745 55.218v107.97l91.745-55.218z" fill="#7dd9c2" fill-rule="evenodd"></path></g><g><path d="m246.525 317.326c0-17.361-14.132-31.486-31.503-31.486-7.789 0-14.923 2.841-20.43 7.532l-40.568-24.426c.491-2.203.758-4.489.758-6.838 0-17.361-14.146-31.486-31.532-31.486-17.371 0-31.503 14.125-31.503 31.486 0 2.349.267 4.635.757 6.838l-40.568 24.426c-5.508-4.691-12.641-7.532-20.43-7.532-17.374 0-31.506 14.125-31.506 31.486 0 13.868 9.021 25.662 21.503 29.851v48.24c-12.482 4.188-21.503 15.982-21.503 29.851 0 17.377 14.132 31.515 31.503 31.515 7.788 0 14.921-2.843 20.428-7.537l40.569 24.406c-.49 2.202-.756 4.487-.756 6.834 0 17.377 14.132 31.515 31.503 31.515 17.387 0 31.532-14.137 31.532-31.515 0-2.347-.267-4.632-.757-6.834l40.57-24.406c5.507 4.694 12.64 7.537 20.428 7.537 17.371 0 31.503-14.137 31.503-31.515 0-13.868-9.021-25.662-21.503-29.851v-48.24c12.484-4.188 21.505-15.982 21.505-29.851zm-31.504-11.486c6.343 0 11.503 5.152 11.503 11.486s-5.161 11.486-11.503 11.486c-6.359 0-11.532-5.153-11.532-11.486s5.174-11.486 11.532-11.486zm-91.773-55.217c6.359 0 11.532 5.152 11.532 11.486s-5.173 11.486-11.532 11.486c-6.343 0-11.503-5.153-11.503-11.486s5.16-11.486 11.503-11.486zm-60.97 59.866 40.562-24.422c5.502 4.689 12.627 7.528 20.408 7.528 7.789 0 14.923-2.841 20.43-7.532l40.568 24.426c-.491 2.203-.758 4.489-.758 6.837s.267 4.635.758 6.838l-40.568 24.426c-5.508-4.691-12.641-7.532-20.43-7.532-7.78 0-14.906 2.839-20.408 7.528l-40.562-24.422c.491-2.203.758-4.489.758-6.838 0-2.348-.267-4.634-.758-6.837zm72.502 62.056c0 6.333-5.173 11.486-11.532 11.486-6.343 0-11.503-5.152-11.503-11.486s5.161-11.486 11.503-11.486c6.359-.001 11.532 5.152 11.532 11.486zm-114.78-55.219c0-6.333 5.161-11.486 11.503-11.486 6.359 0 11.532 5.152 11.532 11.486s-5.173 11.486-11.532 11.486c-6.342.001-11.503-5.152-11.503-11.486zm11.503 119.456c-6.343 0-11.503-5.166-11.503-11.515 0-6.333 5.161-11.486 11.503-11.486 6.359 0 11.532 5.153 11.532 11.486.001 6.35-5.173 11.515-11.532 11.515zm30.771-4.654c.493-2.21.761-4.504.761-6.86 0-13.872-9.034-25.668-21.532-29.854v-48.234c3.864-1.294 7.394-3.313 10.43-5.899l40.568 24.426c-.49 2.203-.757 4.489-.757 6.838 0 13.868 9.021 25.662 21.503 29.85v48.24c-3.856 1.294-7.38 3.312-10.411 5.895zm60.974 59.872c-6.343 0-11.503-5.166-11.503-11.515 0-6.333 5.161-11.486 11.503-11.486 6.359 0 11.532 5.153 11.532 11.486 0 6.35-5.173 11.515-11.532 11.515zm20.433-35.467c-3.037-2.587-6.569-4.608-10.433-5.902v-48.234c12.498-4.186 21.532-15.982 21.532-29.853 0-2.348-.267-4.635-.758-6.838l40.568-24.426c3.036 2.586 6.567 4.605 10.43 5.899v48.234c-12.498 4.186-21.532 15.982-21.532 29.854 0 2.356.268 4.65.761 6.86zm71.34-19.751c-6.359 0-11.532-5.166-11.532-11.515 0-6.333 5.173-11.486 11.532-11.486 6.343 0 11.503 5.153 11.503 11.486.001 6.35-5.16 11.515-11.503 11.515z"></path><path d="m315.156 210.844c3.486 3.514 8.141 5.455 13.105 5.465h.041c4.963 0 9.626-1.929 13.135-5.435l16.964-16.95c7.213-7.207 7.227-18.97 0-26.251l-.913-.912c2.989-5.642 5.439-11.54 7.331-17.645h1.294c10.238 0 18.567-8.326 18.567-18.561v-23.98c0-10.234-8.329-18.561-18.567-18.561h-1.294c-1.891-6.105-4.341-12.003-7.331-17.645l.913-.912c3.496-3.493 5.421-8.155 5.421-13.126s-1.925-9.633-5.421-13.126l-16.964-16.951c-3.509-3.505-8.172-5.435-13.135-5.435-.014 0-.027 0-.041 0-4.964.01-9.618 1.951-13.06 5.419l-.926.92c-5.673-3-11.582-5.45-17.681-7.329v-1.271c.002-10.232-8.34-18.558-18.594-18.558h-23.972c-10.254 0-18.596 8.326-18.596 18.561v1.271c-6.093 1.877-11.998 4.324-17.666 7.32l-.897-.896c-7.244-7.239-19.033-7.24-26.278 0l-16.966 16.952c-3.495 3.493-5.42 8.155-5.42 13.125 0 4.971 1.925 9.632 5.421 13.126l.913.912c-2.989 5.642-5.44 11.541-7.331 17.645h-1.294c-10.238 0-18.567 8.326-18.567 18.561v23.98c0 10.234 8.329 18.561 18.567 18.561h1.294c1.891 6.104 4.341 12.003 7.331 17.645l-.943.943c-7.195 7.251-7.182 19.014.031 26.221l16.964 16.95c7.245 7.241 19.035 7.239 26.278 0l.897-.897c5.669 2.997 11.574 5.444 17.666 7.321v1.271c0 10.234 8.342 18.561 18.596 18.561h23.972c10.254 0 18.596-8.326 18.596-18.561v-1.271c6.098-1.879 12.009-4.329 17.682-7.329zm-30.736-10.992c-4.572 1.019-7.824 5.076-7.824 9.76v7.518h-21.163v-7.518c0-4.685-3.252-8.741-7.824-9.76-9.239-2.06-18.033-5.702-26.138-10.825-3.952-2.497-9.105-1.925-12.411 1.379l-5.329 5.325-14.944-14.932 5.332-5.327c3.314-3.312 3.885-8.481 1.374-12.436-5.103-8.034-8.756-16.823-10.858-26.124-1.03-4.559-5.08-7.796-9.754-7.796h-7.532v-21.102h7.532c4.674 0 8.724-3.237 9.754-7.796 2.102-9.3 5.755-18.09 10.858-26.124 2.512-3.955 1.941-9.124-1.374-12.436l-5.332-5.328 14.945-14.932 5.329 5.325c3.306 3.304 8.461 3.878 12.412 1.379 8.104-5.123 16.898-8.764 26.138-10.825 4.572-1.02 7.824-5.076 7.824-9.76v-7.517h21.163v7.518c0 4.685 3.252 8.741 7.824 9.76 9.24 2.06 18.033 5.702 26.137 10.825 3.944 2.493 9.088 1.929 12.396-1.363l5.356-5.329 14.933 14.92-5.332 5.328c-3.314 3.312-3.885 8.48-1.373 12.435 5.103 8.033 8.756 16.823 10.858 26.125 1.03 4.558 5.081 7.795 9.754 7.795h7.531v21.102h-7.531c-4.673 0-8.724 3.237-9.754 7.795-2.103 9.303-5.756 18.092-10.858 26.125-2.512 3.955-1.941 9.124 1.373 12.435l5.332 5.328-14.933 14.92-5.357-5.329c-3.307-3.291-8.451-3.854-12.395-1.363-8.107 5.124-16.901 8.765-26.139 10.825z"></path><path d="m505.681 309.411-91.744-55.218c-3.171-1.91-7.139-1.91-10.312-.001l-91.773 55.218c-2.968 1.786-4.845 5.103-4.845 8.568v107.969c0 3.508 1.839 6.76 4.845 8.569l91.773 55.217c3.13 1.883 7.182 1.885 10.312 0l91.744-55.218c3.006-1.809 4.844-5.06 4.844-8.568v-107.968c0-.389-.032-.787-.078-1.172-.36-3.043-2.138-5.814-4.766-7.396zm-106.901 154.068-71.773-43.185v-84.628l71.773 43.184zm9.999-101.953-72.376-43.547 72.376-43.547 72.353 43.547zm81.745 58.769-71.744 43.18v-84.626l71.744-43.18z"></path><path d="m266.028 53.999c-34.859 0-63.22 28.341-63.22 63.177s28.36 63.177 63.22 63.177c34.844 0 63.191-28.341 63.191-63.177s-28.347-63.177-63.191-63.177zm0 106.354c-23.832 0-43.22-19.369-43.22-43.177s19.388-43.177 43.22-43.177c23.815 0 43.191 19.369 43.191 43.177.001 23.808-19.375 43.177-43.191 43.177z"></path><path d="m460.549 243.217-34.411-34.383c-3.906-3.903-3.909-10.235-.006-14.142 3.904-3.906 10.236-3.91 14.143-.005l17.343 17.329v-113.441h-42.908c-5.522 0-10-4.477-10-10s4.478-10 10-10h52.908c5.522 0 10 4.477 10 10v123.427l17.312-17.312c3.906-3.905 10.236-3.906 14.143 0 3.905 3.905 3.905 10.237 0 14.142l-34.383 34.383c-.352.411-2.892 3.28-7.115 3.26-4.17-.02-6.668-2.839-7.026-3.258z"></path><path d="m43.191 127.431c5.523 0 10-4.477 10-10v-18.856h39.972l-17.296 17.282c-3.907 3.903-3.909 10.235-.005 14.142 1.953 1.955 4.513 2.932 7.074 2.932 2.558 0 5.116-.976 7.068-2.926l34.383-34.355c3.849-3.849 3.856-10.292.003-14.145l-34.383-34.385c-3.905-3.905-10.237-3.905-14.143 0-3.905 3.905-3.905 10.237 0 14.143l17.312 17.312h-49.985c-5.523 0-10 4.477-10 10v28.856c0 5.523 4.477 10 10 10z"></path><path d="m43.191 246.087c5.523 0 10-4.477 10-10v-28.799c0-5.523-4.477-10-10-10s-10 4.477-10 10v28.799c0 5.523 4.477 10 10 10z"></path><path d="m43.191 172.359c5.523 0 10-4.505 10-10.028s-4.477-10-10-10-10 4.477-10 10v.057c0 5.523 4.477 9.971 10 9.971z"></path></g></g></svg>