<svg xmlns="http://www.w3.org/2000/svg" height="512" viewBox="0 0 48 48" width="512"><g id="_42._chat_bot" data-name="42. chat bot"><path d="m14 28c-.94 0-.9-.54-2.32-4.79a1 1 0 0 1 1.9-.64l1.42 4.11a1 1 0 0 1 -1 1.32z" fill="#425b72"></path><path d="m14 21a2 2 0 1 1 -2.82-1.82 2 2 0 0 1 2.82 1.82z" fill="#db5669"></path><path d="m13.82 21.82a2 2 0 0 1 -2.64-2.64 2 2 0 0 1 2.64 2.64z" fill="#f26674"></path><path d="m20 28a1 1 0 0 1 -.95-1.32l1.37-4.11a1 1 0 0 1 1.9.64c-1.4 4.18-1.32 4.79-2.32 4.79z" fill="#425b72"></path><circle cx="22" cy="21" fill="#db5669" r="2"></circle><path d="m47 8c0 5.39-8.42 8-14.61 6.61l-3.39 3.39v-4.6c-7.91-4.15-3.32-12.4 7-12.4 6.08 0 11 3.13 11 7z" fill="#f16f39"></path><path d="m47 8a5.28 5.28 0 0 1 -1.7 3.74 15.52 15.52 0 0 1 -6.3 1.26c-8.71 0-13.9-6.14-9.3-10.74 7.14-3.21 17.3.03 17.3 5.74z" fill="#f8834b"></path><path d="m29 30c0 15.18.07 14.34-.18 15a3 3 0 0 1 -2.82 2h-18a3 3 0 0 1 -3-3v-14a3 3 0 0 1 3-3h18a3 3 0 0 1 3 3z" fill="#6fabe6"></path><path d="m29 30c0 15.18.07 14.34-.18 15h-3.82a17 17 0 0 1 -17-17 2.66 2.66 0 0 1 .18-1h17.82a3 3 0 0 1 3 3z" fill="#82bcf4"></path><path d="m5 33v8a4 4 0 0 1 0-8z" fill="#db5669"></path><path d="m5 33v5.87a4 4 0 0 1 -2.93-4.59 4 4 0 0 1 2.93-1.28z" fill="#f26674"></path><path d="m29 41a4 4 0 0 0 0-8z" fill="#db5669"></path><path d="m15 34a2 2 0 1 1 -2.82-1.82 2 2 0 0 1 2.82 1.82z" fill="#dad7e5"></path><path d="m14.82 34.82a2 2 0 0 1 -2.64-2.64 2 2 0 0 1 2.64 2.64z" fill="#edebf2"></path><circle cx="21" cy="34" fill="#dad7e5" r="2"></circle><g fill="#edebf2"><path d="m11.38 41.78a1 1 0 0 1 1.24-1.56 7 7 0 0 0 8.76 0 1 1 0 0 1 1.24 1.56 8.94 8.94 0 0 1 -11.24 0z"></path><path d="m35 7h-4a1 1 0 0 1 0-2h4a1 1 0 0 1 0 2z"></path><path d="m41 11h-10a1 1 0 0 1 0-2h10a1 1 0 0 1 0 2z"></path></g><path d="m29 33v5.87a4 4 0 0 0 2.93-4.59 4 4 0 0 0 -2.93-1.28z" fill="#f26674"></path><path d="m22.82 34.82a2 2 0 0 1 -2.64-2.64 2 2 0 0 1 2.64 2.64z" fill="#edebf2"></path><path d="m23.82 21.82a2 2 0 0 1 -2.64-2.64 2 2 0 0 1 2.64 2.64z" fill="#f26674"></path></g></svg>