<svg xmlns="http://www.w3.org/2000/svg" id="_x33_0" height="512" viewBox="0 0 64 64" width="512"><g><g><g><path d="m58 4v10h-56v-10c0-1.1.9-2 2-2h52c1.1 0 2 .9 2 2z" fill="#b4dd7f"></path></g><g><path d="m2 14v34c0 1.1.9 2 2 2h34v-2h1.64c.91 0 1.69-.58 2.03-1.42.01-.01.01-.02.02-.04.35-.84.22-1.81-.43-2.46l-1.16-1.15 2.83-2.83 1.15 1.16c.65.65 1.62.78 2.46.43.02-.01.03-.01.04-.02.84-.34 1.42-1.12 1.42-2.03v-1.64h4v1.64c0 .91.58 1.69 1.42 2.03.01.01.02.01.04.02.84.35 1.81.22 2.46-.43l1.15-1.16.92.92.01-.02v-27z" fill="#e6e9ed"></path></g><g><circle cx="24" cy="8" fill="#e6e9ed" r="2"></circle></g><g><circle cx="16" cy="8" fill="#e6e9ed" r="2"></circle></g><g><circle cx="8" cy="8" fill="#e6e9ed" r="2"></circle></g><g><path d="m44 19v14c0 .55-.45 1-1 1h-8c-.55 0-1-.45-1-1v-14c0-.55.45-1 1-1h8c.55 0 1 .45 1 1z" fill="#ffeaa7"></path></g><g><path d="m30 19v14c0 .55-.45 1-1 1h-8c-.55 0-1-.45-1-1v-14c0-.55.45-1 1-1h8c.55 0 1 .45 1 1z" fill="#ffeaa7"></path></g><g><path d="m16 19v14c0 .55-.45 1-1 1h-8c-.55 0-1-.45-1-1v-14c0-.55.45-1 1-1h8c.55 0 1 .45 1 1z" fill="#ffeaa7"></path></g><g><path d="m6 61v-11-11c0-.55.45-1 1-1h14c.55 0 1 .45 1 1v11 11c0 .55-.45 1-1 1h-14c-.55 0-1-.45-1-1z" fill="#f0d0b4"></path></g><g><path d="m10 42h8v4h-8z" fill="#b4dd7f"></path></g><g><path d="m50 56c3.31 0 6-2.69 6-6s-2.69-6-6-6-6 2.69-6 6 2.69 6 6 6zm8.31-9.46c.01.02.01.03.02.04.34.84 1.12 1.42 2.03 1.42h1.64v4h-1.64c-.91 0-1.69.58-2.03 1.42-.01.01-.04.08-.04.1-.33.83-.18 1.77.45 2.4l1.16 1.15-2.83 2.83-1.15-1.16c-.65-.65-1.62-.78-2.46-.43-.02.01-.03.01-.04.02-.84.34-1.42 1.12-1.42 2.03v1.64h-4v-1.64c0-.91-.58-1.69-1.42-2.03-.01-.01-.02-.01-.04-.02-.84-.35-1.81-.22-2.46.43l-1.15 1.16-2.83-2.83 1.16-1.15c.65-.65.78-1.62.43-2.46-.01-.02-.01-.03-.02-.04-.34-.84-1.12-1.42-2.03-1.42h-1.64v-2-2h1.64c.91 0 1.69-.58 2.03-1.42.01-.01.01-.02.02-.04.35-.84.22-1.81-.43-2.46l-1.16-1.15 2.83-2.83 1.15 1.16c.65.65 1.62.78 2.46.43.02-.01.03-.01.04-.02.84-.34 1.42-1.12 1.42-2.03v-1.64h4v1.64c0 .91.58 1.69 1.42 2.03.01.01.02.01.04.02.84.35 1.81.22 2.46-.43l1.15-1.16.92.92 1.91 1.91-1.16 1.15c-.65.65-.78 1.62-.43 2.46z" fill="#ffc729"></path></g><g><path d="m50 44c3.31 0 6 2.69 6 6s-2.69 6-6 6-6-2.69-6-6 2.69-6 6-6zm2 6c0-1.1-.9-2-2-2s-2 .9-2 2 .9 2 2 2 2-.9 2-2z" fill="#fcd770"></path></g></g><g><path d="m50 47c-1.654 0-3 1.346-3 3s1.346 3 3 3 3-1.346 3-3-1.346-3-3-3zm0 4c-.552 0-1-.449-1-1s.448-1 1-1 1 .449 1 1-.448 1-1 1z"></path><path d="m50 43c-3.859 0-7 3.14-7 7s3.141 7 7 7 7-3.14 7-7-3.141-7-7-7zm0 12c-2.757 0-5-2.243-5-5s2.243-5 5-5 5 2.243 5 5-2.243 5-5 5z"></path><path d="m59.251 53.8c.204-.494.63-.8 1.109-.8h2.64v-6h-2.64c-.479 0-.905-.307-1.127-.843-.211-.501-.128-1.025.215-1.367l1.868-1.858-2.316-2.317v-36.615c0-1.654-1.346-3-3-3h-52c-1.654 0-3 1.346-3 3v44c0 1.654 1.346 3 3 3h1v10c0 1.103.897 2 2 2h14c1.103 0 2-.897 2-2v-10h14v2h2.64c.479 0 .905.307 1.127.843.211.501.128 1.025-.215 1.367l-1.868 1.858 4.247 4.248 1.859-1.867c.343-.342.867-.425 1.41-.198.493.205.8.63.8 1.11v2.639h6v-2.639c0-.48.307-.906.842-1.128.502-.211 1.024-.126 1.368.216l1.859 1.867 4.247-4.248-1.868-1.858c-.332-.332-.421-.841-.243-1.3zm-55.251-50.8h52c.552 0 1 .449 1 1v9h-54v-9c0-.551.448-1 1-1zm3 58v-22h14l.001 22zm16-12v-10c0-1.103-.897-2-2-2h-14c-1.103 0-2 .897-2 2v10h-1c-.552 0-1-.449-1-1v-33h54v23.754l-1.79 1.797c-.344.343-.867.425-1.41.198-.486-.201-.8-.637-.8-1.11v-2.639h-6v2.639c0 .473-.313.909-.842 1.128-.503.208-1.025.126-1.368-.216l-1.859-1.867-4.247 4.248 1.868 1.858c.343.342.426.866.197 1.41-.204.494-.63.8-1.109.8h-2.64v2zm34.404 4.035-.05.119c-.477 1.223-.208 2.586.684 3.474l.446.444-1.413 1.413-.445-.447c-.914-.917-2.311-1.171-3.592-.635-1.236.513-2.034 1.674-2.034 2.958v.639h-2v-.639c0-1.284-.798-2.445-2.068-2.972-1.248-.525-2.645-.27-3.558.648l-.445.447-1.413-1.413.446-.445c.919-.914 1.173-2.311.635-3.592-.513-1.235-1.673-2.034-2.957-2.034h-.64v-2h.64c1.284 0 2.444-.799 2.971-2.067.524-1.249.271-2.646-.648-3.56l-.446-.444 1.413-1.413.445.447c.915.919 2.315 1.172 3.592.634 1.234-.513 2.033-1.673 2.033-2.958v-.639h2v.639c0 1.285.799 2.445 2.068 2.972 1.246.524 2.645.27 3.558-.648l.445-.447 1.413 1.413-.446.445c-.919.914-1.173 2.311-.635 3.592.513 1.235 1.673 2.034 2.957 2.034h.64v2h-.64c-1.284 0-2.444.799-2.956 2.035z"></path><path d="m8 11c1.654 0 3-1.346 3-3s-1.346-3-3-3-3 1.346-3 3 1.346 3 3 3zm0-4c.552 0 1 .449 1 1s-.448 1-1 1-1-.449-1-1 .448-1 1-1z"></path><path d="m16 11c1.654 0 3-1.346 3-3s-1.346-3-3-3-3 1.346-3 3 1.346 3 3 3zm0-4c.552 0 1 .449 1 1s-.448 1-1 1-1-.449-1-1 .448-1 1-1z"></path><path d="m24 11c1.654 0 3-1.346 3-3s-1.346-3-3-3-3 1.346-3 3 1.346 3 3 3zm0-4c.552 0 1 .449 1 1s-.448 1-1 1-1-.449-1-1 .448-1 1-1z"></path><path d="m15 17h-8c-1.103 0-2 .897-2 2v14c0 1.103.897 2 2 2h8c1.103 0 2-.897 2-2v-14c0-1.103-.897-2-2-2zm-8 16v-14h8l.001 14z"></path><path d="m9 21h4v2h-4z"></path><path d="m9 25h4v2h-4z"></path><path d="m29 17h-8c-1.103 0-2 .897-2 2v14c0 1.103.897 2 2 2h8c1.103 0 2-.897 2-2v-14c0-1.103-.897-2-2-2zm-8 16v-14h8l.001 14z"></path><path d="m23 21h4v2h-4z"></path><path d="m23 25h4v2h-4z"></path><path d="m45 33v-14c0-1.103-.897-2-2-2h-8c-1.103 0-2 .897-2 2v14c0 1.103.897 2 2 2h8c1.103 0 2-.897 2-2zm-10-14h8l.001 14h-8.001z"></path><path d="m37 21h4v2h-4z"></path><path d="m37 25h4v2h-4z"></path><path d="m47 19h2v2h-2z"></path><path d="m51 19h4v2h-4z"></path><path d="m47 23h8v2h-8z"></path><path d="m47 27h8v2h-8z"></path><path d="m47 31h2v2h-2z"></path><path d="m51 31h2v2h-2z"></path><path d="m9 29h4v2h-4z"></path><path d="m23 29h4v2h-4z"></path><path d="m37 29h4v2h-4z"></path><path d="m9 47h10v-6h-10zm2-4h6v2h-6z"></path><path d="m9 49h4v2h-4z"></path><path d="m15 49h4v2h-4z"></path><path d="m9 53h10v2h-10z"></path><path d="m9 57h10v2h-10z"></path><path d="m25 43h2v2h-2z"></path><path d="m29 43h2v2h-2z"></path><path d="m33 43h2v2h-2z"></path></g></g></svg>