<svg xmlns="http://www.w3.org/2000/svg" id="Email" height="512" viewBox="0 0 128 128" width="512"><g><g><g><g><path d="m119.363121 60.2052193-59.1802482 39.8855705-59.1802475-39.8855705 59.1802475-39.885685z" fill="#fdd267"></path></g><g><path d="m10.4547358 53.8344955 4.2199707-2.8399658v18.4199219l-4.2199707-2.8399658z" fill="#f7b93c"></path></g><g><path d="m109.9146957 53.8344955v12.7399903l-4.2199707 2.8399658v-18.4199219z" fill="#f7b93c"></path></g><g><path d="m116.3473129 1.3946869c-2.9405594 0-5.5989914 1.1825836-7.5304947 3.114084-1.920639 1.9315004-3.1249466 4.600791-3.1249466 7.5414877v97.625946h-91.0178804v-97.625946c0-5.8812609 4.7745752-10.6555719 10.6557035-10.6555719 0 .0000038 91.0176182.0000038 91.0176182.0000002z" fill="#fff"></path></g><g><path d="m116.3473129 1.3944337c-2.9399414 0-5.5998535 1.1800537-7.5300293 3.1101072-1.9199219 1.9399414-3.1298828 4.6098638-3.1298828 7.5499272v97.6199951h-7.5100098v-97.619995c0-2.9400635 1.1999512-5.6099858 3.119873-7.5499272 1.9301758-1.9300535 4.5900879-3.1101072 7.5300293-3.1101072h7.5200196z" fill="#ededed"></path></g><g><path d="m119.3639069 60.2029343v60.0553589c0 3.502327-2.8391953 6.3415222-6.3415222 6.3415222h-105.6789041c-3.5023272 0-6.3415241-2.8391953-6.3415241-6.3415222v-60.0553589l59.1808434 39.888092z" fill="#fddd8d"></path></g><g><path d="m14.9845209 126.604393h-7.639893c-3.5 0-6.3400879-2.8398438-6.3400879-6.3498535v-60.0500488l7.6401372 5.1499023v54.9001465c0 3.5100098 2.8300781 6.3498535 6.3398437 6.3498535z" fill="#fee8b3"></path></g><g><path d="m119.3639069 60.2044907v60.0500488c0 3.5100098-2.8398438 6.3498535-6.3398438 6.3498535h-7.6401367c3.5 0 6.3400879-2.8398438 6.3400879-6.3498535v-54.9001465z" fill="#fdd267"></path></g><g><path d="m117.1246567 125.0943832c-1.1000977.9400635-2.5300293 1.5100098-4.1000977 1.5100098h-105.6799311c-1.5700684 0-3-.5699463-4.0998535-1.5100098l56.9399414-38.3798828z" fill="#fdd267"></path></g><g><path d="m60.1847153 86.7145004-44.4001456 39.8898926h-8.4399418c-1.5700684 0-3-.5699463-4.0998535-1.5100098z" fill="#fddd8d"></path></g><g><path d="m60.1847153 86.7145004 44.4001465 39.8898926h8.4399414c1.5700684 0 3-.5699463 4.0998535-1.5100098z" fill="#f7b93c"></path></g></g><g><path d="m127.0019531 33.6775475v-21.6272002c0-5.8856769-4.7695694-10.6552467-10.6552429-10.6552467-2.9428406 0-5.5978775 1.184031-7.5261841 3.112133-1.9278946 1.928102-3.1286545 4.600275-3.1286545 7.5431137v21.6272011h21.3100815z" fill="#d3d8d9"></path></g><g><path d="m119.6847153 1.9344728c-1.5900879.5200195-3.0200195 1.4099121-4.1801758 2.5700681-1.9299316 1.9299316-3.1298828 4.599854-3.1298828 7.5499272v21.6199932h-6.6799316v-21.6199931c0-2.9500732 1.1999512-5.6199956 3.1298828-7.5499272 1.920166-1.9300535 4.5800781-3.1101072 7.5200195-3.1101072 1.170166-.0000001 2.290039.1900634 3.3400879.540039z" fill="#a8b1b3"></path></g><path d="m116.3498535.4000244h-91.0198974c-6.4300537 0-11.6600342 5.2199707-11.6600342 11.6499023v38.4140625l-13.2299805 8.9160157c-.0126953.0085449-.0222168.020752-.0345459.0297852-.0455322.0344238-.0892334.0693359-.1280518.1105957-.0230713.0241699-.0418701.0511475-.0622559.0773926-.0301514.0393066-.0605469.0773926-.0847168.1206055-.0186768.0332031-.0310059.0695801-.0458984.1049805-.0177002.0426025-.0379639.0834961-.0498047.12854-.0144043.0548096-.0185547.1126709-.0236816.1702881-.0021972.0263671-.0109863.0511473-.0109863.0778807v60.0599365c0 2.2000732.9799805 4.1800537 2.5200195 5.5200195l.079834.0799561c.0100098.0100098.0200195.0200195.0400391.0300293 1.3100586 1.0999756 2.9799805 1.7099609 4.7099609 1.7099609h105.670166c1.75 0 3.4399414-.6199951 4.75-1.75.0198975-.0100098.0299072-.0400391.0499268-.0599365 1.5599365-1.3299561 2.539917-3.3199463 2.539917-5.5300293v-60.0599365c0-.0247803-.0080566-.0478516-.0097656-.0722656-.0046387-.0600586-.0092773-.119873-.0238037-.1767578-.0106201-.041748-.0291748-.0793457-.0447998-.1190186-.0155029-.0389404-.0290527-.0786133-.0493164-.1151123-.0231934-.0422363-.0529785-.0792236-.0822754-.1175537-.0203857-.0264893-.0391846-.0535889-.0625-.0780029-.0419922-.0446777-.0900879-.0821533-.140625-.1186523-.0097656-.0068359-.0168457-.0162354-.0268555-.0227051l-13.2299805-8.9160156v-15.7839356h20.3100586c.5599365 0 1-.4500732 1-1v-21.630127c0-6.4299316-5.2299805-11.6499023-11.6501465-11.6499023zm-102.6799316 67.133667-10.8718262-7.3289795 10.8718262-7.3303223zm-11.6699219 52.7263184v-58.1800537l46.4699707 31.3200684-45.1000977 30.409912c-.8498535-.9399414-1.369873-2.1799316-1.369873-3.5499267zm111.0200195 5.3399658h-105.670166c-.8099365 0-1.5898438-.1799316-2.2999268-.5200195l55.1300049-37.1599121 55.1400146 37.1599121c-.7100829.3400878-1.4899901.5200195-2.2999267.5200195zm5.3398438-5.3399658c0 1.3599854-.5200195 2.5999756-1.3598633 3.539917l-45.1101074-30.3999024 46.4699707-31.3200684zm-.7978516-60.0552979-10.8720703 7.3305664v-14.6608887zm-12.8720703-48.1547851v56.8339844l-34.5800781 23.316162-9.369873-6.3100586c-.3300781-.2299805-.7800293-.2299805-1.1101074 0l-9.369873 6.3100586-34.590088-23.3181152v-56.8320312c0-5.3199463 4.3400879-9.6499023 9.6600342-9.6499023h84.4799805c-.6099854.4099121-1.1700439.8800049-1.7000732 1.3999023-2.2099611 2.2200927-3.419922 5.1501464-3.419922 8.25zm21.3100586 20.6301269h-19.3100586v-20.630127c0-2.579834 1.0100098-5.0098877 2.8399658-6.8398438 1.8199463-1.8100586 4.2401123-2.8100586 6.8199463-2.8100586 5.3200684.0000001 9.6501465 4.3299562 9.6501465 9.6499025z" fill="#333"></path></g><g><path d="m76.5480957 18.5367432h-32.7304687c-.5527344 0-1-.4472656-1-1s.4472656-1 1-1h32.7304688c.5527344 0 1 .4472656 1 1s-.4472657 1-1.0000001 1z" fill="#333"></path></g><g><path d="m76.5480957 77.713501h-32.7304687c-.5527344 0-1-.4472656-1-1s.4472656-1 1-1h32.7304688c.5527344 0 1 .4472656 1 1s-.4472657 1-1.0000001 1z" fill="#333"></path></g><g><path d="m95.536377 65.8775635h-70.7070313c-.5527344 0-1-.4472656-1-1s.4472656-1 1-1h70.7070313c.5527344 0 1 .4472656 1 1s-.4472657 1-1 1z" fill="#333"></path></g><g><path d="m95.536377 54.0426025h-70.7070313c-.5527344 0-1-.4472656-1-1s.4472656-1 1-1h70.7070313c.5527344 0 1 .4472656 1 1s-.4472657 1-1 1z" fill="#333"></path></g><g><path d="m95.536377 42.206665h-70.7070313c-.5527344 0-1-.4472656-1-1s.4472656-1 1-1h70.7070313c.5527344 0 1 .4472656 1 1s-.4472657 1-1 1z" fill="#333"></path></g><g><path d="m95.536377 30.3717041h-70.7070313c-.5527344 0-1-.4472656-1-1s.4472656-1 1-1h70.7070313c.5527344 0 1 .4472656 1 1s-.4472657 1-1 1z" fill="#333"></path></g></g></svg>