<svg xmlns="http://www.w3.org/2000/svg" height="512" viewBox="0 0 512 512" width="512"><g id="flat"><rect fill="#0296e5" height="320" rx="18" width="464" x="24" y="88"></rect><path d="m56 120h400v256h-400z" fill="#eaeae8"></path><path d="m184 456h144l8 32h-160z" fill="#0296e5"></path><circle cx="128" cy="216" fill="#fbb540" r="24"></circle><circle cx="128" cy="312" fill="#fbb540" r="24"></circle><path d="m128 224a7.917 7.917 0 0 1 -1.148-.083 8 8 0 0 1 -5.508-3.479l-16-24a8 8 0 0 1 13.312-8.876l11.062 16.593 41.16-34.3a8 8 0 0 1 10.244 12.292l-48 40a8 8 0 0 1 -5.122 1.853z" fill="#ff6268"></path><g fill="#cbcbcb"><path d="m232 232h-32a8 8 0 0 1 0-16h32a8 8 0 0 1 0 16z"></path><path d="m344 232h-80a8 8 0 0 1 0-16h80a8 8 0 0 1 0 16z"></path><path d="m264 264h-64a8 8 0 0 1 0-16h64a8 8 0 0 1 0 16z"></path><path d="m344 312h-144a8 8 0 0 1 0-16h144a8 8 0 0 1 0 16z"></path><path d="m232 344h-32a8 8 0 0 1 0-16h32a8 8 0 0 1 0 16z"></path><path d="m344 344h-72a8 8 0 0 1 0-16h72a8 8 0 0 1 0 16z"></path><path d="m320 264h-24a8 8 0 0 1 0-16h24a8 8 0 0 1 0 16z"></path></g><path d="m56 120h400v32h-400z" fill="#ff6268"></path><path d="m272 408v8a16 16 0 0 1 -32 0v-8h-24v48h80v-48z" fill="#026ca2"></path><path d="m256 56a8 8 0 0 1 -8-8v-16a8 8 0 0 1 16 0v16a8 8 0 0 1 -8 8z" fill="#026ca2"></path><path d="m272 32h-32a8 8 0 0 1 0-16h32a8 8 0 0 1 0 16z" fill="#0296e5"></path><circle cx="256" cy="112" fill="#8feaff" r="64"></circle><path d="m271.994 128a7.976 7.976 0 0 1 -3.572-.847l-16-8a8 8 0 0 1 -4.422-7.153v-32a8 8 0 0 1 16 0v27.056l11.578 5.789a8 8 0 0 1 -3.584 15.155z" fill="#0296e5"></path><path d="m256 160a48 48 0 0 1 -28.8-86.4 8 8 0 1 1 9.6 12.794 32.009 32.009 0 0 0 32 54.947 8 8 0 1 1 6.4 14.659 47.666 47.666 0 0 1 -19.2 4z" fill="#43dcfe"></path></g></svg>