<svg xmlns="http://www.w3.org/2000/svg" xmlns:xlink="http://www.w3.org/1999/xlink" id="Capa_1" x="0px" y="0px" viewBox="0 0 512 512" style="enable-background:new 0 0 512 512;" xml:space="preserve">
<path style="fill:#F7A16E;" d="M0,357.473v139.074C0,505.081,6.919,512,15.453,512h481.095c8.534,0,15.453-6.919,15.453-15.453  V357.473l-256-41.21L0,357.473z"></path>
<path style="fill:#FFC98C;" d="M512,218.398c0-8.534-6.919-15.453-15.453-15.453h-86.02H101.473h-86.02  C6.919,202.946,0,209.864,0,218.398v139.074h512V218.398z"></path>
<g>
	<path style="fill:#CE795F;" d="M70.567,249.304v30.905c0,8.534,6.919,15.453,15.453,15.453h339.96   c8.534,0,15.453-6.919,15.453-15.453v-30.905c0-8.534-6.919-15.453-15.453-15.453H86.02   C77.486,233.851,70.567,240.77,70.567,249.304z"></path>
	<path style="fill:#CE795F;" d="M481.095,481.095H0v15.453C0,505.081,6.919,512,15.453,512h481.095   c8.534,0,15.453-6.919,15.453-15.453V357.473l-30.905-4.975V481.095z"></path>
</g>
<path style="fill:#F7A16E;" d="M481.095,202.946v154.527H512V218.398c0-8.534-6.919-15.453-15.453-15.453H481.095z"></path>
<path style="fill:#E9E3D5;" d="M101.473,295.662V30.905C101.473,13.836,115.309,0,132.378,0h247.243  c17.069,0,30.905,13.836,30.905,30.905v264.757H101.473"></path>
<path style="fill:#B6B0A2;" d="M395.079,4.148c-9.507,5.465-15.457,15.556-15.457,26.758v233.851H101.473v30.905h309.054V30.905  C410.527,19.469,404.311,9.492,395.079,4.148z"></path>
<g>
	<path style="fill:#35404A;" d="M209.646,69.537h92.708c4.268,0,7.726-3.459,7.726-7.726s-3.458-7.726-7.726-7.726h-92.708   c-4.268,0-7.726,3.459-7.726,7.726S205.378,69.537,209.646,69.537z"></path>
	<path style="fill:#35404A;" d="M292.051,239.517h-144.22c-4.268,0-7.726,3.459-7.726,7.726s3.458,7.726,7.726,7.726h144.22   c4.268,0,7.726-3.459,7.726-7.726S296.319,239.517,292.051,239.517z"></path>
	<path style="fill:#35404A;" d="M364.169,208.612H147.831c-4.268,0-7.726,3.459-7.726,7.726c0,4.267,3.458,7.726,7.726,7.726   h216.338c4.268,0,7.726-3.459,7.726-7.726C371.895,212.071,368.437,208.612,364.169,208.612z"></path>
	<path style="fill:#35404A;" d="M364.169,177.706H147.831c-4.268,0-7.726,3.459-7.726,7.726c0,4.267,3.458,7.726,7.726,7.726   h216.338c4.268,0,7.726-3.459,7.726-7.726C371.895,181.166,368.437,177.706,364.169,177.706z"></path>
	<path style="fill:#35404A;" d="M147.831,100.443h216.338c4.268,0,7.726-3.459,7.726-7.726s-3.458-7.726-7.726-7.726H147.831   c-4.268,0-7.726,3.459-7.726,7.726S143.563,100.443,147.831,100.443z"></path>
	<path style="fill:#35404A;" d="M147.831,131.348h144.22c4.268,0,7.726-3.459,7.726-7.726s-3.458-7.726-7.726-7.726h-144.22   c-4.268,0-7.726,3.459-7.726,7.726S143.563,131.348,147.831,131.348z"></path>
	<path style="fill:#35404A;" d="M199.007,421.859h14.015c9.863,0,10.988-15.453-0.541-15.453h-21.2   c-4.267,0-7.726,3.459-7.726,7.726v40.883c0,4.231,3.26,7.92,7.488,8.047c4.375,0.131,7.964-3.377,7.964-7.723v-7.126h7.292   c11.528,0,10.405-15.453,0.541-15.453h-7.833v-10.901H199.007z"></path>
	<path style="fill:#35404A;" d="M267.166,452.625l-15.453-41.207c-1.131-3.015-4.014-5.013-7.234-5.013s-6.104,1.997-7.234,5.013   l-15.453,41.207c-1.498,3.996,0.526,8.45,4.521,9.947c3.685,1.38,7.753-0.236,9.539-3.628h17.262   c1.354,2.566,4.005,4.123,6.819,4.123c0.901,0,1.818-0.159,2.712-0.493C266.64,461.075,268.664,456.622,267.166,452.625z    M247.237,443.492h-5.516l2.758-7.356L247.237,443.492z"></path>
	<path style="fill:#35404A;" d="M324.844,448.537c2.29-4.088,3.602-8.793,3.602-13.8c0-15.621-12.709-28.33-28.33-28.33   c-15.621,0-28.33,12.709-28.33,28.33c0,15.621,12.709,28.33,28.33,28.33c5.009,0,9.714-1.311,13.8-3.602l1.339,1.339   c1.509,1.508,3.487,2.262,5.464,2.262s3.955-0.754,5.464-2.262c3.017-3.018,3.017-7.91,0-10.927L324.844,448.537z M300.115,447.614   c-7.101,0-12.877-5.776-12.877-12.877s5.776-12.877,12.877-12.877s12.877,5.776,12.877,12.877c0,0.615-0.058,1.216-0.142,1.808   l-0.507-0.507c-3.018-3.016-7.91-3.016-10.927,0c-3.017,3.018-3.017,7.91,0,10.927l0.507,0.507   C301.331,447.555,300.73,447.614,300.115,447.614z"></path>
</g>
<g>
</g>
<g>
</g>
<g>
</g>
<g>
</g>
<g>
</g>
<g>
</g>
<g>
</g>
<g>
</g>
<g>
</g>
<g>
</g>
<g>
</g>
<g>
</g>
<g>
</g>
<g>
</g>
<g>
</g>
</svg>