<svg xmlns="http://www.w3.org/2000/svg" id="Layer_2" height="512" viewBox="0 0 64 64" width="512"><g><g><path d="m35 57.81h-6v-.709c-11.359-2.705-19.809-12.913-19.809-25.101s8.45-22.396 19.809-25.101v-.709h6c14.255 0 25.81 11.555 25.81 25.81s-11.555 25.81-25.81 25.81z" fill="#52b8d9"></path></g><g><path d="m35 58.31h-6c-.276 0-.5-.224-.5-.5v-.317c-11.684-2.965-19.809-13.391-19.809-25.493s8.125-22.528 19.809-25.493v-.317c0-.276.224-.5.5-.5h6c14.508 0 26.311 11.802 26.311 26.31s-11.803 26.31-26.311 26.31zm-5.5-1h5.5c13.956 0 25.311-11.354 25.311-25.31s-11.355-25.31-25.311-25.31h-5.5v.209c0 .231-.159.433-.384.486-11.437 2.724-19.425 12.846-19.425 24.615s7.988 21.891 19.425 24.614c.225.054.384.255.384.486z" fill="#63312d"></path></g><g><path d="m3.191 32c0-14.255 11.555-25.81 25.809-25.81s25.81 11.555 25.81 25.81-11.555 25.81-25.81 25.81-25.809-11.555-25.809-25.81z" fill="#84dbff"></path></g><g><path d="m5.191 32c0 13.919 11.02 25.259 24.81 25.784-.332.013-.665.025-1 .025-14.254 0-25.81-11.555-25.81-25.81s11.555-25.809 25.809-25.809c.335 0 .668.013 1 .025-13.79.526-24.809 11.866-24.809 25.785z" fill="#caf4ff"></path></g><g><path d="m29 58.31c-14.507 0-26.31-11.802-26.31-26.31s11.803-26.31 26.31-26.31 26.311 11.803 26.311 26.31-11.803 26.31-26.311 26.31zm0-51.62c-13.955 0-25.309 11.354-25.309 25.31s11.354 25.31 25.309 25.31 25.311-11.354 25.311-25.31-11.355-25.31-25.311-25.31z" fill="#63312d"></path></g><g><path d="m32.641 15.596c0-2.133-1.73-3.861-3.862-3.861-2.129 0-3.859 1.728-3.859 3.861s1.73 3.861 3.859 3.861c2.132 0 3.862-1.728 3.862-3.861z" fill="#f9dd9d"></path></g><g><path d="m26.919 15.596c0-1.784 1.218-3.271 2.86-3.714-.321-.086-.652-.147-1-.147-2.129 0-3.859 1.728-3.859 3.861s1.73 3.861 3.859 3.861c.348 0 .68-.061 1-.147-1.642-.443-2.86-1.93-2.86-3.714z" fill="#ffeecf"></path></g><g><path d="m33.521 27.309c.486 0 .883-.45.883-1v-1.281c0-.55-.451-1-1-1h-9.181c-.55 0-1 .45-1 1v1.281c0 .55.396 1 .882 1 .484 0 .881.45.881 1v19.094c0 .55-.397 1-.881 1-.485 0-.882.45-.882 1v1.281c0 .55.45 1 1 1h9.181c.549 0 1-.45 1-1v-1.281c0-.55-.396-1-.883-1-.484 0-.881-.45-.881-1v-19.094c.001-.55.397-1 .881-1z" fill="#f9dd9d"></path></g><g><path d="m25.223 50.684v-1.281c0-.55.396-1 .882-1 .484 0 .881-.45.881-1v-19.094c0-.55-.397-1-.881-1-.485 0-.882-.45-.882-1v-1.281c0-.55.45-1 1-1h-2c-.55 0-1 .45-1 1v1.281c0 .55.396 1 .882 1 .484 0 .881.45.881 1v19.094c0 .55-.397 1-.881 1-.485 0-.882.45-.882 1v1.281c0 .55.45 1 1 1h2c-.55 0-1-.45-1-1z" fill="#ffeecf"></path></g><g><path d="m33.404 52.184h-9.181c-.827 0-1.5-.673-1.5-1.5v-1.281c0-.827.62-1.5 1.382-1.5.207 0 .381-.229.381-.5v-19.094c0-.271-.175-.5-.381-.5-.762 0-1.382-.673-1.382-1.5v-1.281c0-.827.673-1.5 1.5-1.5h9.181c.827 0 1.5.673 1.5 1.5v1.281c0 .827-.62 1.5-1.383 1.5-.206 0-.381.229-.381.5v19.094c0 .271.175.5.381.5.763 0 1.383.673 1.383 1.5v1.281c0 .827-.673 1.5-1.5 1.5zm-9.181-27.656c-.276 0-.5.224-.5.5v1.281c0 .271.175.5.382.5.762 0 1.381.673 1.381 1.5v19.094c0 .827-.62 1.5-1.381 1.5-.207 0-.382.229-.382.5v1.281c0 .276.224.5.5.5h9.181c.271 0 .5-.229.5-.5v-1.281c0-.271-.176-.5-.383-.5-.761 0-1.381-.673-1.381-1.5v-19.094c0-.827.62-1.5 1.381-1.5.207 0 .383-.229.383-.5v-1.281c0-.271-.229-.5-.5-.5z" fill="#63312d"></path></g><g><g><path d="m28.778 19.957c-2.404 0-4.359-1.956-4.359-4.361s1.956-4.361 4.359-4.361c2.405 0 4.362 1.957 4.362 4.361s-1.956 4.361-4.362 4.361zm0-7.722c-1.853 0-3.359 1.508-3.359 3.361s1.507 3.361 3.359 3.361c1.854 0 3.362-1.508 3.362-3.361.001-1.853-1.508-3.361-3.362-3.361z" fill="#63312d"></path></g></g></g></svg>