<svg xmlns="http://www.w3.org/2000/svg" id="Layer_1" height="512" viewBox="0 0 256 256" width="512"><g><g><path d="m169.783 222.072h-83.567c-9.104 0-16.484-7.38-16.484-16.484v-170.675c0-9.104 7.38-16.484 16.484-16.484h83.567c9.104 0 16.484 7.38 16.484 16.484v170.675c.001 9.103-7.379 16.484-16.484 16.484z" fill="#63bce7"></path><path d="m79.492 205.587v-170.674c0-9.104 7.38-16.484 16.484-16.484h-9.76c-9.104 0-16.484 7.38-16.484 16.484v170.675c0 9.104 7.38 16.484 16.484 16.484h9.76c-9.104 0-16.484-7.381-16.484-16.485z" fill="#6377e7"></path><path d="m176.508 205.587v-170.674c0-9.104-7.38-16.484-16.484-16.484h9.76c9.104 0 16.484 7.38 16.484 16.484v170.675c0 9.104-7.38 16.484-16.484 16.484h-9.76c9.104 0 16.484-7.381 16.484-16.485z" fill="#63e2e7"></path><path d="m69.732 205.592c0 9.102 7.378 16.48 16.48 16.48h83.576c9.102 0 16.48-7.378 16.48-16.48v-9.738h-116.536z" fill="#f46275"></path><path d="m79.492 205.592v-9.738h-9.76v9.738c0 9.102 7.378 16.48 16.48 16.48h9.76c-9.102 0-16.48-7.379-16.48-16.48z" fill="#f43075"></path><path d="m186.268 34.908c0-9.102-7.378-16.48-16.48-16.48h-83.576c-9.102 0-16.48 7.378-16.48 16.48v9.738h116.536z" fill="#f46275"></path><path d="m95.972 18.428h-9.76c-9.102 0-16.48 7.378-16.48 16.48v9.738h9.76v-9.738c0-9.101 7.378-16.48 16.48-16.48z" fill="#f43075"></path><path d="m160.028 18.428h9.76c9.102 0 16.48 7.378 16.48 16.48v9.738h-9.76v-9.738c0-9.101-7.378-16.48-16.48-16.48z" fill="#f48875"></path><g fill="#f8af23"><path d="m107.148 28.595h41.2v5.886h-41.2z"></path><circle cx="127.453" cy="209.417" r="5.003"></circle></g></g><path d="m85.146 114.321h-69.349c-2.759 0-4.996-2.237-4.996-4.996v-50.15c0-2.759 2.237-4.996 4.996-4.996h69.349c2.759 0 4.996 2.237 4.996 4.996v50.149c0 2.76-2.237 4.997-4.996 4.997z" fill="#f8af23"></path><path d="m20.56 109.325v-50.15c0-2.759 2.237-4.996 4.996-4.996h-9.76c-2.759 0-4.996 2.237-4.996 4.996v50.149c0 2.759 2.237 4.996 4.996 4.996h9.76c-2.759.001-4.996-2.236-4.996-4.995z" fill="#f87023"></path><path d="m85.146 186.321h-69.349c-2.759 0-4.996-2.237-4.996-4.996v-50.149c0-2.759 2.237-4.996 4.996-4.996h69.349c2.759 0 4.996 2.237 4.996 4.996v50.149c0 2.759-2.237 4.996-4.996 4.996z" fill="#f46275"></path><path d="m20.56 181.325v-50.149c0-2.759 2.237-4.996 4.996-4.996h-9.76c-2.759 0-4.996 2.237-4.996 4.996v50.149c0 2.759 2.237 4.996 4.996 4.996h9.76c-2.759 0-4.996-2.237-4.996-4.996z" fill="#f43075"></path><path d="m240.203 114.321h-69.349c-2.759 0-4.996-2.237-4.996-4.996v-50.15c0-2.759 2.237-4.996 4.996-4.996h69.349c2.759 0 4.996 2.237 4.996 4.996v50.149c0 2.76-2.237 4.997-4.996 4.997z" fill="#f46275"></path><path d="m240.203 54.179h-9.203c2.759 0 4.996 2.237 4.996 4.996v50.149c0 2.759-2.237 4.996-4.996 4.996h9.203c2.759 0 4.996-2.237 4.996-4.996v-50.149c0-2.759-2.237-4.996-4.996-4.996z" fill="#f48875"></path><path d="m240.203 186.321h-69.349c-2.759 0-4.996-2.237-4.996-4.996v-50.149c0-2.759 2.237-4.996 4.996-4.996h69.349c2.759 0 4.996 2.237 4.996 4.996v50.149c0 2.759-2.237 4.996-4.996 4.996z" fill="#f8af23"></path><path d="m240.203 126.179h-9.76c2.759 0 4.996 2.237 4.996 4.996v50.149c0 2.759-2.237 4.996-4.996 4.996h9.76c2.759 0 4.996-2.237 4.996-4.996v-50.149c0-2.759-2.237-4.996-4.996-4.996z" fill="#f8d323"></path><path d="m97.929 54.179h60.141v60.141h-60.141z" fill="#f8af23"></path><path d="m202.495 94.235 8.679-8.679c.721-.721.721-1.89 0-2.611l-8.679-8.679c-1.163-1.163-3.152-.339-3.152 1.306v17.359c0 1.643 1.988 2.467 3.152 1.304z" fill="#f8af23"></path><path d="m62.8 66.069h-27.333c-2.75 0-5 2.25-5 5v30.27c0 1.1.691 1.423 1.536.719l9.914-8.269h20.883c2.75 0 5-2.25 5-5v-17.72c0-2.75-2.25-5-5-5z" fill="#63bce7"></path><g fill="#63bce7"><path d="m181.388 145.621h9.76v29.162h-9.76z"></path><path d="m200.649 140.454h9.76v34.329h-9.76z"></path><path d="m219.91 134.988h9.76v39.795h-9.76z"></path></g><g><circle cx="69.733" cy="153.709" fill="#f8d323" r="7.729"></circle><path d="m65.191 171.876-18.079-9.487v-17.368l18.079-9.487z" fill="#63bce7"></path><path d="m65.191 135.534h4.543v36.342h-4.543z" fill="#f48875"></path><path d="m31.908 145.021h15.204v17.376h-15.204z" fill="#f8af23"></path><path d="m25.875 149.36h6.033v8.691h-6.033z" fill="#f46275"></path><path d="m36.157 162.397h6.707v13.592h-6.707z" fill="#63bce7"></path></g><path d="m97.929 114.321 30.071-30.071 30.071 30.071z" fill="#f46275"></path><circle cx="113.75" cy="70.875" fill="#63bce7" r="6.188"></circle><g fill="#321f7a"><path d="m148.348 27.095h-41.2c-.829 0-1.5.671-1.5 1.5v5.886c0 .829.671 1.5 1.5 1.5h41.2c.829 0 1.5-.671 1.5-1.5v-5.886c0-.829-.672-1.5-1.5-1.5zm-1.5 5.885h-38.2v-2.886h38.2z"></path><path d="m127.454 202.915c-3.586 0-6.503 2.917-6.503 6.503s2.917 6.503 6.503 6.503c3.585 0 6.502-2.917 6.502-6.503s-2.917-6.503-6.502-6.503zm0 10.005c-1.932 0-3.503-1.571-3.503-3.503s1.571-3.503 3.503-3.503c1.931 0 3.502 1.571 3.502 3.503s-1.571 3.503-3.502 3.503z"></path><path d="m97.929 115.821h60.142c.829 0 1.5-.671 1.5-1.5v-60.142c0-.829-.671-1.5-1.5-1.5h-60.142c-.829 0-1.5.671-1.5 1.5v60.142c0 .828.672 1.5 1.5 1.5zm3.621-3 26.45-26.45 26.45 26.45zm55.021-57.142v55.021l-27.51-27.51c-.586-.586-1.535-.586-2.121 0l-27.51 27.51v-55.021z"></path><path d="m97.929 127.679h60.142c.829 0 1.5-.671 1.5-1.5s-.671-1.5-1.5-1.5h-60.142c-.829 0-1.5.671-1.5 1.5s.672 1.5 1.5 1.5z"></path><path d="m97.929 137.4h24.521c.829 0 1.5-.671 1.5-1.5s-.671-1.5-1.5-1.5h-24.521c-.829 0-1.5.671-1.5 1.5s.672 1.5 1.5 1.5z"></path><path d="m97.929 147.121h32.196c.829 0 1.5-.671 1.5-1.5s-.671-1.5-1.5-1.5h-32.196c-.829 0-1.5.671-1.5 1.5s.672 1.5 1.5 1.5z"></path><path d="m97.929 156.842h13.321c.829 0 1.5-.671 1.5-1.5s-.671-1.5-1.5-1.5h-13.321c-.829 0-1.5.671-1.5 1.5s.672 1.5 1.5 1.5z"></path><path d="m97.929 166.562h29.524c.829 0 1.5-.671 1.5-1.5s-.671-1.5-1.5-1.5h-29.524c-.829 0-1.5.671-1.5 1.5s.672 1.5 1.5 1.5z"></path><path d="m97.929 176.283h21.071c.829 0 1.5-.671 1.5-1.5s-.671-1.5-1.5-1.5h-21.071c-.829 0-1.5.671-1.5 1.5s.672 1.5 1.5 1.5z"></path><path d="m97.929 186.004h36.446c.829 0 1.5-.671 1.5-1.5s-.671-1.5-1.5-1.5h-36.446c-.829 0-1.5.671-1.5 1.5s.672 1.5 1.5 1.5z"></path><path d="m199.908 96.021c.417.172.853.256 1.284.256.869 0 1.721-.34 2.363-.982l8.679-8.679c1.305-1.305 1.305-3.428 0-4.732l-8.679-8.679c-.961-.961-2.392-1.245-3.647-.726-1.254.52-2.065 1.733-2.065 3.091v17.36c0 1.358.811 2.571 2.065 3.091zm.935-20.451c0-.153.072-.261.214-.319.049-.021.097-.031.143-.031.085 0 .164.036.234.106l8.679 8.679c.084.084.102.18.102.245s-.018.161-.102.245l-8.679 8.679c-.109.108-.237.134-.377.075-.142-.059-.214-.166-.214-.319z"></path><path d="m62.8 64.569h-27.333c-3.584 0-6.5 2.916-6.5 6.5v30.27c0 1.606.92 2.21 1.315 2.395.18.084.497.196.905.196.487 0 1.105-.16 1.777-.72l9.497-7.921h20.339c3.584 0 6.5-2.916 6.5-6.5v-17.72c0-3.584-2.916-6.5-6.5-6.5zm3.5 24.22c0 1.93-1.57 3.5-3.5 3.5h-20.883c-.351 0-.691.123-.961.348l-8.989 7.498v-29.066c0-1.93 1.57-3.5 3.5-3.5h27.333c1.93 0 3.5 1.57 3.5 3.5z"></path><path d="m59.133 72.184h-20.125c-.829 0-1.5.671-1.5 1.5s.671 1.5 1.5 1.5h20.125c.829 0 1.5-.671 1.5-1.5s-.672-1.5-1.5-1.5z"></path><path d="m39.008 80.44h8.042c.829 0 1.5-.671 1.5-1.5s-.671-1.5-1.5-1.5h-8.042c-.829 0-1.5.671-1.5 1.5s.671 1.5 1.5 1.5z"></path><path d="m59.133 82.696h-20.125c-.829 0-1.5.671-1.5 1.5s.671 1.5 1.5 1.5h20.125c.829 0 1.5-.671 1.5-1.5s-.672-1.5-1.5-1.5z"></path><path d="m181.388 176.283h9.76c.829 0 1.5-.671 1.5-1.5v-29.162c0-.829-.671-1.5-1.5-1.5h-9.76c-.829 0-1.5.671-1.5 1.5v29.162c0 .829.672 1.5 1.5 1.5zm1.5-29.162h6.76v26.162h-6.76z"></path><path d="m200.649 176.283h9.76c.829 0 1.5-.671 1.5-1.5v-34.329c0-.829-.671-1.5-1.5-1.5h-9.76c-.829 0-1.5.671-1.5 1.5v34.329c0 .829.671 1.5 1.5 1.5zm1.5-34.329h6.76v31.329h-6.76z"></path><path d="m219.91 176.283h9.76c.829 0 1.5-.671 1.5-1.5v-39.795c0-.829-.671-1.5-1.5-1.5h-9.76c-.829 0-1.5.671-1.5 1.5v39.795c0 .829.671 1.5 1.5 1.5zm1.5-39.795h6.76v36.795h-6.76z"></path><path d="m71.233 144.605v-9.071c0-.829-.671-1.5-1.5-1.5h-4.543c-.253 0-.488.069-.697.179v-.007l-17.751 9.315h-14.834c-.829 0-1.5.671-1.5 1.5v2.838h-4.533c-.829 0-1.5.671-1.5 1.5v8.692c0 .829.671 1.5 1.5 1.5h4.533v2.846c0 .829.671 1.5 1.5 1.5h2.749v12.092c0 .829.671 1.5 1.5 1.5h6.707c.829 0 1.5-.671 1.5-1.5v-12.092h2.394l17.737 9.308v-.007c.209.111.444.179.697.179h4.543c.829 0 1.5-.671 1.5-1.5v-9.067c4.386-.725 7.729-4.59 7.729-9.1-.002-4.531-3.337-8.381-7.731-9.105zm-43.858 11.946v-5.692h3.033v5.692zm6.033 1.5v-8.692-2.838h12.205v14.376h-2.749-6.707-2.749zm7.955 16.438h-3.707v-10.592h3.707zm7.249-28.561 15.078-7.913v31.38l-15.078-7.913zm19.621 24.448h-1.543v-33.342h1.543zm3-10.627v-12.081c2.72.678 4.729 3.154 4.729 6.041 0 2.876-2.013 5.36-4.729 6.04z"></path><path d="m158.071 134.4h-25.615c-.829 0-1.5.671-1.5 1.5s.671 1.5 1.5 1.5h25.615c.829 0 1.5-.671 1.5-1.5s-.672-1.5-1.5-1.5z"></path><path d="m158.071 144.121h-18.571c-.829 0-1.5.671-1.5 1.5s.671 1.5 1.5 1.5h18.571c.829 0 1.5-.671 1.5-1.5s-.672-1.5-1.5-1.5z"></path><path d="m158.071 153.842h-39.821c-.829 0-1.5.671-1.5 1.5s.671 1.5 1.5 1.5h39.821c.829 0 1.5-.671 1.5-1.5s-.672-1.5-1.5-1.5z"></path><path d="m158.071 163.562h-22.071c-.829 0-1.5.671-1.5 1.5s.671 1.5 1.5 1.5h22.071c.829 0 1.5-.671 1.5-1.5s-.672-1.5-1.5-1.5z"></path><path d="m158.071 173.283h-32.071c-.829 0-1.5.671-1.5 1.5s.671 1.5 1.5 1.5h32.071c.829 0 1.5-.671 1.5-1.5s-.672-1.5-1.5-1.5z"></path><path d="m158.071 183.004h-17.196c-.829 0-1.5.671-1.5 1.5s.671 1.5 1.5 1.5h17.196c.829 0 1.5-.671 1.5-1.5s-.672-1.5-1.5-1.5z"></path><path d="m113.75 78.562c4.239 0 7.687-3.449 7.687-7.688s-3.449-7.688-7.687-7.688-7.688 3.449-7.688 7.688 3.449 7.688 7.688 7.688zm0-12.374c2.584 0 4.687 2.103 4.687 4.688s-2.103 4.688-4.687 4.688-4.688-2.103-4.688-4.688 2.104-4.688 4.688-4.688z"></path><path d="m27.323 236.072h-18.003c-.829 0-1.5.671-1.5 1.5s.671 1.5 1.5 1.5h18.003c.829 0 1.5-.671 1.5-1.5s-.671-1.5-1.5-1.5z"></path><path d="m246.68 236.072h-18.003c-.829 0-1.5.671-1.5 1.5s.671 1.5 1.5 1.5h18.003c.829 0 1.5-.671 1.5-1.5s-.671-1.5-1.5-1.5z"></path><path d="m218.479 236.072h-180.958c-.829 0-1.5.671-1.5 1.5s.671 1.5 1.5 1.5h180.959c.829 0 1.5-.671 1.5-1.5s-.672-1.5-1.501-1.5z"></path><path d="m9.32 223.572h76.892.004 83.567.004 76.892c.829 0 1.5-.671 1.5-1.5s-.671-1.5-1.5-1.5h-66.97c4.85-3.224 8.057-8.732 8.057-14.98v-.004-9.734-8.032h52.435c3.582 0 6.496-2.914 6.496-6.496v-50.149c0-3.582-2.914-6.496-6.496-6.496h-52.435v-8.858h52.435c3.582 0 6.496-2.914 6.496-6.496v-50.152c0-3.582-2.914-6.496-6.496-6.496h-52.435v-8.032-9.734-.004c0-9.914-8.066-17.98-17.98-17.98h-.004-83.57c-9.914 0-17.98 8.066-17.98 17.98v9.739 8.032h-52.435c-3.582 0-6.496 2.914-6.496 6.496v50.149c0 3.582 2.914 6.496 6.496 6.496h52.435v8.858h-52.435c-3.582 0-6.496 2.914-6.496 6.496v50.149c0 3.582 2.914 6.496 6.496 6.496h52.435v8.032 9.734.004c0 6.248 3.207 11.756 8.057 14.98h-66.969c-.829 0-1.5.671-1.5 1.5s.671 1.502 1.5 1.502zm76.896-3c-8.262 0-14.984-6.722-14.984-14.984v-8.234h113.536v8.234c0 8.262-6.722 14.984-14.984 14.984zm157.483-89.397v50.149c0 1.928-1.568 3.496-3.496 3.496h-69.349c-1.928 0-3.496-1.568-3.496-3.496v-50.149c0-1.928 1.568-3.496 3.496-3.496h69.349c1.928 0 3.496 1.569 3.496 3.496zm0-72v50.149c0 1.928-1.568 3.496-3.496 3.496h-69.349c-1.928 0-3.496-1.568-3.496-3.496v-50.149c0-1.928 1.568-3.496 3.496-3.496h69.349c1.928 0 3.496 1.569 3.496 3.496zm-172.467-24.267c0-8.26 6.72-14.98 14.98-14.98h83.572c8.262 0 14.984 6.722 14.984 14.984v8.234h-113.536zm-58.931 74.417v-50.15c0-1.928 1.568-3.496 3.496-3.496h69.349c1.928 0 3.496 1.568 3.496 3.496v50.149c0 1.928-1.568 3.496-3.496 3.496h-69.349c-1.928.001-3.496-1.568-3.496-3.495zm0 72v-50.149c0-1.928 1.568-3.496 3.496-3.496h69.349c1.928 0 3.496 1.568 3.496 3.496v50.149c0 1.928-1.568 3.496-3.496 3.496h-69.349c-1.928 0-3.496-1.569-3.496-3.496zm72.845 6.496c3.582 0 6.496-2.914 6.496-6.496v-50.149c0-3.582-2.914-6.496-6.496-6.496h-13.914v-8.858h13.914c3.582 0 6.496-2.914 6.496-6.496v-50.151c0-3.582-2.914-6.496-6.496-6.496h-13.914v-6.532h113.536v6.532h-13.914c-3.582 0-6.496 2.914-6.496 6.496v50.149c0 3.582 2.914 6.496 6.496 6.496h13.914v8.858h-13.914c-3.582 0-6.496 2.914-6.496 6.496v50.149c0 3.582 2.914 6.496 6.496 6.496h13.914v6.532h-113.536v-6.532h13.914z"></path></g></g></svg>