<svg xmlns="http://www.w3.org/2000/svg" id="Capa_1" height="512" viewBox="0 0 512 512" width="512"><path d="m376.626 270.091v-28.182c0-4.552-3.69-8.241-8.241-8.241h-19.159c-3.558 0-6.715-2.283-7.82-5.665-1.78-5.449-4.067-10.669-6.806-15.604-1.787-3.221-1.24-7.23 1.365-9.835l12.812-12.812c3.218-3.218 3.218-8.437 0-11.655l-17.382-17.382c-3.218-3.218-8.437-3.218-11.655 0l-13.554 13.554c-2.512 2.512-6.356 3.141-9.523 1.53-4.091-2.082-8.362-3.859-12.785-5.303-3.371-1.1-5.635-4.265-5.635-7.811v-19.159c0-4.552-3.69-8.241-8.241-8.241h-24.582c-4.552 0-8.241 3.69-8.241 8.241v18.114c0 3.678-2.44 6.902-5.975 7.915-5.515 1.581-10.813 3.676-15.839 6.23-3.177 1.615-7.03 1.004-9.55-1.516l-13.554-13.554c-3.218-3.218-8.437-3.218-11.655 0l-17.382 17.382c-3.218 3.218-3.218 8.437 0 11.655l12.812 12.812c2.605 2.605 3.152 6.614 1.365 9.835-2.738 4.935-5.026 10.155-6.806 15.604-1.105 3.382-4.262 5.665-7.82 5.665h-19.159c-4.552 0-8.241 3.69-8.241 8.241v28.182c0 4.552 3.69 8.241 8.241 8.241h19.159c3.558 0 6.715 2.283 7.82 5.665 1.78 5.45 4.067 10.669 6.806 15.605 1.787 3.221 1.24 7.23-1.365 9.835l-12.812 12.812c-3.218 3.219-3.218 8.437 0 11.655l17.382 17.381c3.218 3.218 8.437 3.218 11.655 0l13.554-13.554c2.52-2.52 6.372-3.131 9.55-1.516 5.026 2.554 10.324 4.649 15.839 6.23 3.535 1.013 5.975 4.237 5.975 7.915v18.114c0 4.552 3.69 8.241 8.241 8.241h24.581c4.552 0 8.241-3.69 8.241-8.241v-19.159c0-3.546 2.264-6.711 5.635-7.811 4.423-1.443 8.694-3.221 12.785-5.303 3.167-1.611 7.011-.982 9.523 1.53l13.554 13.554c3.219 3.218 8.437 3.218 11.655 0l17.382-17.381c3.219-3.218 3.219-8.437 0-11.655l-12.812-12.812c-2.605-2.605-3.152-6.614-1.365-9.835 2.738-4.935 5.026-10.155 6.806-15.605 1.105-3.382 4.262-5.665 7.82-5.665h19.159c4.552 0 8.242-3.689 8.242-8.241zm-120.626 17.129c-17.242 0-31.22-13.977-31.22-31.22s13.977-31.22 31.22-31.22 31.22 13.977 31.22 31.22-13.978 31.22-31.22 31.22z" fill="#e2dfe2"></path><path d="m376.626 270.091v-28.182c0-4.552-3.69-8.241-8.241-8.241h-19.168c-3.573 0-6.72-2.308-7.835-5.703-.078-.236-.156-.472-.235-.708-20.534 50.718-70.252 86.499-128.333 86.499-12.556 0-24.717-1.682-36.281-4.815l-13.308 13.308c-3.218 3.219-3.218 8.437 0 11.655l17.382 17.381c3.218 3.218 8.437 3.218 11.655 0l13.554-13.554c2.52-2.52 6.372-3.131 9.55-1.516 5.026 2.554 10.324 4.649 15.839 6.23 3.535 1.013 5.975 4.237 5.975 7.915v18.114c0 4.552 3.69 8.241 8.241 8.241h24.581c4.552 0 8.241-3.69 8.241-8.241v-19.159c0-3.546 2.264-6.711 5.635-7.811 4.423-1.443 8.694-3.221 12.785-5.303 3.167-1.611 7.011-.982 9.523 1.53l13.554 13.554c3.219 3.218 8.437 3.218 11.655 0l17.382-17.381c3.219-3.218 3.219-8.437 0-11.655l-12.812-12.812c-2.605-2.605-3.152-6.614-1.365-9.835 2.738-4.935 5.026-10.155 6.806-15.605 1.105-3.382 4.262-5.665 7.82-5.665h19.159c4.551 0 8.241-3.689 8.241-8.241z" fill="#d3ced5"></path><path d="m492.266 43.251c-4.699-10.418-13.099-18.818-23.517-23.517-2.192-.989-3.579-3.196-3.579-5.601v-7.952c0-3.414-2.767-6.181-6.181-6.181h-18.857c-3.414 0-6.181 2.767-6.181 6.181v7.952c0 2.405-1.386 4.612-3.579 5.601-10.418 4.699-18.818 13.099-23.517 23.517-.989 2.192-3.196 3.579-5.601 3.579h-7.952c-3.414 0-6.181 2.767-6.181 6.181v25.038h14.133c2.405 0 4.612 1.386 5.601 3.579 4.699 10.418 13.099 18.818 23.517 23.517 2.192.989 3.579 3.196 3.579 5.601v7.952c0 3.414 2.767 6.181 6.181 6.181h18.857c3.414 0 6.181-2.767 6.181-6.181v-7.952c0-2.405 1.386-4.612 3.579-5.601 10.418-4.699 18.818-13.099 23.517-23.517.989-2.192 3.196-3.579 5.601-3.579h7.952c3.414 0 6.181-2.767 6.181-6.181v-18.858c0-3.414-2.767-6.181-6.181-6.181h-7.952c-2.405 0-4.612-1.386-5.601-3.578zm-42.705 34.798c-8.621 0-15.61-6.989-15.61-15.61s6.989-15.61 15.61-15.61 15.61 6.989 15.61 15.61-6.989 15.61-15.61 15.61z" fill="#e27a66"></path><path d="m492.279 43.286c-.989-2.188-2.142-4.287-3.439-6.283-2.933 34.073-31.503 60.818-66.336 60.818-1.234 0-2.459-.039-3.676-.106 3.449 3.008 7.335 5.526 11.557 7.433 2.188.988 3.567 3.195 3.567 5.596v7.953c0 3.414 2.767 6.181 6.181 6.181h18.857c3.414 0 6.181-2.767 6.181-6.181v-7.952c0-2.405 1.386-4.612 3.579-5.601 10.418-4.699 18.818-13.099 23.517-23.517.989-2.192 3.196-3.579 5.601-3.579h7.952c3.414 0 6.181-2.767 6.181-6.181v-18.857c0-3.414-2.767-6.181-6.181-6.181h-7.953c-2.392 0-4.603-1.364-5.588-3.543z" fill="#dd544f"></path><path d="m105.144 43.251c-4.699-10.418-13.099-18.818-23.517-23.517-2.192-.989-3.579-3.196-3.579-5.601v-7.952c.001-3.414-2.767-6.181-6.18-6.181h-18.858c-3.414 0-6.181 2.767-6.181 6.181v7.952c0 2.405-1.386 4.612-3.579 5.601-10.418 4.699-18.818 13.099-23.517 23.517-.989 2.192-3.196 3.579-5.601 3.579h-7.951c-3.414-.001-6.181 2.767-6.181 6.18v18.857c0 3.414 2.767 6.181 6.181 6.181h7.952c2.405 0 4.612 1.386 5.601 3.579 4.699 10.418 13.099 18.818 23.517 23.517 2.192.989 3.579 3.196 3.579 5.601v7.952c0 3.414 2.767 6.181 6.181 6.181h18.857c3.414 0 6.181-2.767 6.181-6.181v-7.952c0-2.405 1.386-4.612 3.579-5.601 10.418-4.699 18.818-13.099 23.517-23.517.989-2.192 3.196-3.579 5.601-3.579h7.952c3.414 0 6.181-2.767 6.181-6.181v-18.857c0-3.414-2.767-6.181-6.181-6.181h-7.952c-2.406 0-4.613-1.386-5.602-3.578zm-42.705 34.798c-8.621 0-15.61-6.989-15.61-15.61s6.989-15.61 15.61-15.61 15.61 6.989 15.61 15.61-6.989 15.61-15.61 15.61z" fill="#a2f4c1"></path><path d="m118.697 46.829h-7.952c-2.405 0-4.612-1.386-5.601-3.579-.982-2.177-2.135-4.26-3.424-6.245-.001-.001-.001-.001-.002-.002-2.933 34.073-31.503 60.818-66.336 60.818-1.234 0-2.459-.039-3.676-.106.002.001.002.003.003.004 3.445 3.004 7.324 5.522 11.542 7.424 2.192.989 3.579 3.196 3.579 5.601v7.952c0 3.414 2.767 6.181 6.181 6.181h18.857c3.414 0 6.181-2.767 6.181-6.181v-7.952c0-2.405 1.386-4.612 3.579-5.601 10.418-4.699 18.818-13.099 23.517-23.517.989-2.192 3.196-3.579 5.601-3.579h7.952c3.414 0 6.181-2.767 6.181-6.181v-18.856c-.001-3.413-2.768-6.181-6.182-6.181z" fill="#86f1a7"></path><path d="m492.266 430.373c-4.699-10.418-13.099-18.818-23.517-23.517-2.192-.989-3.579-3.196-3.579-5.601v-7.952c0-3.414-2.767-6.181-6.181-6.181h-18.857c-3.414 0-6.181 2.767-6.181 6.181v7.952c0 2.405-1.386 4.612-3.579 5.601-10.418 4.699-18.818 13.099-23.517 23.517-.989 2.192-3.196 3.579-5.601 3.579h-7.952c-3.414 0-6.181 2.767-6.181 6.181v18.857c0 3.414 2.767 6.181 6.181 6.181h7.952c2.405 0 4.612 1.386 5.601 3.579 4.699 10.418 13.099 18.818 23.517 23.517 2.192.989 3.579 3.196 3.579 5.601v7.952c0 3.414 2.767 6.181 6.181 6.181h18.857c3.414 0 6.181-2.767 6.181-6.181v-7.952c0-2.405 1.386-4.612 3.579-5.601 10.418-4.699 18.818-13.099 23.517-23.517.989-2.192 3.196-3.579 5.601-3.579h7.952c3.414 0 6.181-2.767 6.181-6.181v-18.857c0-3.414-2.767-6.181-6.181-6.181h-7.952c-2.405-.001-4.612-1.387-5.601-3.579zm-42.705 34.798c-8.621 0-15.61-6.989-15.61-15.61s6.989-15.61 15.61-15.61 15.61 6.989 15.61 15.61-6.989 15.61-15.61 15.61z" fill="#f4dd45"></path><path d="m492.279 430.408c-.989-2.188-2.142-4.286-3.439-6.283-2.933 34.073-31.503 60.818-66.336 60.818-1.234 0-2.459-.039-3.676-.106 3.449 3.008 7.335 5.526 11.557 7.433 2.188.988 3.567 3.195 3.567 5.596v7.953c0 3.414 2.767 6.181 6.181 6.181h18.857c3.414 0 6.181-2.767 6.181-6.181v-7.952c0-2.405 1.386-4.612 3.579-5.601 10.418-4.699 18.818-13.099 23.517-23.517.989-2.192 3.196-3.579 5.601-3.579h7.952c3.414 0 6.181-2.767 6.181-6.181v-18.857c0-3.414-2.767-6.181-6.181-6.181h-7.953c-2.392 0-4.603-1.364-5.588-3.543z" fill="#ecc32e"></path><path d="m105.144 430.373c-4.699-10.418-13.099-18.818-23.517-23.517-2.192-.989-3.579-3.196-3.579-5.601v-7.952c0-3.414-2.767-6.181-6.181-6.181h-18.857c-3.414 0-6.181 2.767-6.181 6.181v7.952c0 2.405-1.386 4.612-3.579 5.601-10.418 4.699-18.818 13.099-23.517 23.517-.989 2.192-3.196 3.579-5.601 3.579h-7.951c-3.414 0-6.181 2.767-6.181 6.181v18.857c0 3.414 2.767 6.181 6.181 6.181h7.952c2.405 0 4.612 1.386 5.601 3.579 4.699 10.418 13.099 18.818 23.517 23.517 2.192.989 3.579 3.196 3.579 5.601v7.952c0 3.414 2.767 6.181 6.181 6.181h18.857c3.414 0 6.181-2.767 6.181-6.181v-7.952c0-2.405 1.386-4.612 3.579-5.601 10.418-4.699 18.818-13.099 23.517-23.517.989-2.192 3.196-3.579 5.601-3.579h7.952c3.414 0 6.181-2.767 6.181-6.181v-18.857c0-3.414-2.767-6.181-6.181-6.181h-7.952c-2.406-.001-4.613-1.387-5.602-3.579zm-42.705 34.798c-8.621 0-15.61-6.989-15.61-15.61s6.989-15.61 15.61-15.61 15.61 6.989 15.61 15.61-6.989 15.61-15.61 15.61z" fill="#90d8f9"></path><path d="m105.157 430.408c-.989-2.188-2.142-4.286-3.439-6.283-2.933 34.073-31.503 60.818-66.336 60.818-1.234 0-2.459-.039-3.676-.106 3.449 3.008 7.335 5.526 11.557 7.433 2.188.988 3.567 3.195 3.567 5.596v7.953c0 3.414 2.767 6.181 6.181 6.181h18.857c3.414 0 6.181-2.767 6.181-6.181v-7.952c0-2.405 1.386-4.612 3.579-5.601 10.418-4.699 18.818-13.099 23.517-23.517.989-2.192 3.196-3.579 5.601-3.579h7.952c3.414 0 6.181-2.767 6.181-6.181v-18.857c0-3.414-2.767-6.181-6.181-6.181h-7.953c-2.392 0-4.603-1.364-5.588-3.543z" fill="#75cef9"></path><g fill="#665e66"><path d="m151.362 157.431c3.569-.708 6.222-3.943 6.218-7.582v-24.971c0-4.268-3.459-7.726-7.726-7.726s-7.726 3.459-7.726 7.726v6.322l-22.192-22.192c-3.018-3.016-7.909-3.016-10.928 0-3.017 3.018-3.017 7.909 0 10.928l22.192 22.192h-6.322c-4.268 0-7.726 3.459-7.726 7.726s3.459 7.726 7.726 7.726h24.976c.504 0 1.014-.051 1.508-.149.134-.027-.131.026 0 0z"></path><path d="m402.992 109.008c-3.018-3.016-7.909-3.016-10.928 0l-22.192 22.192v-6.322c0-4.268-3.459-7.726-7.726-7.726s-7.726 3.459-7.726 7.726v24.971c-.004 4.207 3.52 7.732 7.726 7.732h24.976c4.268 0 7.726-3.459 7.726-7.726s-3.459-7.726-7.726-7.726h-6.322l22.192-22.192c3.017-3.019 3.017-7.911 0-10.929-3.018-3.016 3.017 3.018 0 0z"></path><path d="m157.542 359.302c-.383-3.902-3.779-6.963-7.688-6.963h-24.976c-4.268 0-7.726 3.459-7.726 7.726s3.459 7.726 7.726 7.726h6.323l-22.192 22.191c-3.018 3.018-3.018 7.909-.001 10.927 1.509 1.509 3.486 2.264 5.464 2.264 1.977 0 3.955-.755 5.463-2.263l22.193-22.193v6.322c0 4.268 3.459 7.726 7.726 7.726s7.726-3.459 7.726-7.726v-24.972c.001-.255-.013-.51-.038-.765z"></path><path d="m402.991 389.983-22.192-22.191h6.323c4.268 0 7.726-3.459 7.726-7.726s-3.459-7.726-7.726-7.726h-24.976c-4.203 0-7.726 3.533-7.726 7.726v24.975c0 4.268 3.459 7.726 7.726 7.726s7.726-3.459 7.726-7.726v-6.322l22.193 22.193c1.508 1.508 3.486 2.263 5.463 2.263s3.955-.755 5.464-2.264c3.017-3.019 3.017-7.91-.001-10.928z"></path></g></svg>