<svg xmlns="http://www.w3.org/2000/svg" id="Capa_1" height="512" viewBox="0 0 512 512" width="512"><path d="m256 7.5v497c137.243 0 248.5-111.257 248.5-248.5s-111.257-248.5-248.5-248.5z" fill="#adeeff"></path><path d="m256 7.5c-137.243 0-248.5 111.257-248.5 248.5 0 65.893 25.657 125.786 67.513 170.262-11.732 31.584-36.365 56.897-67.513 69.506 13.897 5.626 29.085 8.732 45 8.732 31.481 0 60.125-12.129 81.53-31.96 36.033 20.34 77.642 31.96 121.97 31.96 120.674 0 218.5-111.257 218.5-248.5s-97.826-248.5-218.5-248.5z" fill="#fff"></path><path d="m256 67.5 152.529 137.081 25.23-11.415c-25.879-73.209-95.687-125.666-177.759-125.666z" fill="#487ed2"></path><path d="m256 67.5 38.88 188.5 113.65-51.419c-18.82-79.113-79.982-137.081-152.53-137.081z" fill="#12b5ff"></path><path d="m408.529 307.419-152.529 137.081c82.072 0 151.88-52.457 177.759-125.667z" fill="#12398f"></path><path d="m408.529 307.419-113.649-51.419-38.88 188.5c72.548 0 133.71-57.968 152.529-137.081z" fill="#1d54bd"></path><path d="m433.759 193.167h-28.291v125.667h28.291c6.948-19.655 10.741-40.8 10.741-62.834s-3.793-43.179-10.741-62.833z" fill="#1d54bd"></path><path d="m405.468 193.167h-110.588v125.667h110.589c5.842-19.655 9.032-40.799 9.032-62.833s-3.191-43.18-9.033-62.834z" fill="#487ed2"></path><path d="m344.88 193.167-44.44 60-104.44-60 60-125.667c41.036 0 75.94 52.457 88.88 125.667z" fill="#48d9ff"></path><path d="m344.88 318.833c-12.94 73.21-47.844 125.667-88.88 125.667l-60-125.667 104.44-60z" fill="#487ed2"></path><path d="m344.88 193.167c3.474 19.655 5.37 40.799 5.37 62.833s-1.897 43.179-5.37 62.833h-148.88v-125.666z" fill="#12b5ff"></path><path d="m78.241 193.167 138.879 62.833 38.88-188.5c-82.072 0-151.88 52.457-177.759 125.667z" fill="#adeeff"></path><path d="m217.12 256-138.88 62.833c25.88 73.21 95.688 125.667 177.76 125.667z" fill="#48d9ff"></path><path d="m78.241 193.167c-6.948 19.654-10.741 40.799-10.741 62.833s3.793 43.179 10.741 62.833h138.88v-125.666z" fill="#7be3ff"></path><path d="m167.12 193.167 44.44 60 44.44-60v-125.667c-41.036 0-75.94 52.457-88.88 125.667z" fill="#7be3ff"></path><path d="m167.12 318.833c12.94 73.21 47.844 125.667 88.88 125.667v-125.667l-44.44-60z" fill="#12b5ff"></path><path d="m167.12 193.167c-3.474 19.655-5.37 40.799-5.37 62.833s1.897 43.179 5.37 62.833h88.88v-125.666z" fill="#48d9ff"></path><path d="m437.02 74.981c-48.353-48.352-112.64-74.981-181.02-74.981s-132.667 26.629-181.02 74.981c-48.351 48.352-74.98 112.639-74.98 181.019 0 63.858 23.509 124.706 66.308 171.892-11.553 27.6-33.793 49.659-61.622 60.925-2.832 1.146-4.686 3.895-4.686 6.951 0 3.055 1.854 5.805 4.686 6.952 15.21 6.158 31.296 9.28 47.814 9.28 30.403 0 59.507-10.735 82.55-30.338 37.01 19.863 78.709 30.338 120.95 30.338 68.38 0 132.667-26.629 181.02-74.98 48.351-48.353 74.98-112.64 74.98-181.02s-26.629-132.667-74.98-181.019zm-181.02 422.019c-41.464 0-82.366-10.717-118.283-30.992-1.153-.651-2.423-.969-3.685-.969-1.847 0-3.678.681-5.099 1.999-20.854 19.321-47.998 29.962-76.433 29.962-8.497 0-16.863-.935-25.02-2.791 24.932-14.802 44.354-37.85 54.563-65.336.992-2.672.384-5.676-1.569-7.751-42.222-44.864-65.474-103.506-65.474-165.122 0-132.888 108.112-241 241-241s241 108.112 241 241-108.112 241-241 241z"></path><path d="m256 60c-108.075 0-196 87.925-196 196s87.925 196 196 196 196-87.925 196-196-87.925-196-196-196zm-46.417 21.043c-22.319 21.687-39.798 58.749-48.749 104.623h-71.609c21.61-51.049 66.005-90.19 120.358-104.623zm-120.358 245.29h71.609c8.951 45.875 26.429 82.936 48.749 104.623-54.353-14.432-98.748-53.573-120.358-104.623zm159.275 109.958c-18.304-3.433-35.831-19.348-50.013-45.687-9.769-18.143-17.323-40.079-22.306-64.271h72.319zm0-124.958h-75.032c-2.048-13.084-3.378-26.697-3.927-40.628-.163-4.139-3.65-7.362-7.789-7.199s-7.362 3.65-7.199 7.789c.545 13.85 1.812 27.234 3.715 40.039h-74.606c-5.616-17.45-8.662-36.042-8.662-55.334s3.046-37.884 8.662-55.333h74.606c-1.903 12.805-3.17 26.188-3.715 40.036-.163 4.142 3.06 7.629 7.199 7.792s7.626-3.06 7.789-7.199c.548-13.931 1.878-27.544 3.927-40.628h75.032zm0-125.666h-72.319c4.983-24.192 12.537-46.127 22.306-64.271 14.181-26.339 31.708-42.254 50.013-45.687zm174.275 0h-71.642c-4.81-24.525-12.157-47.063-21.78-66.31-7.891-15.781-16.958-28.631-26.863-38.293 54.32 14.448 98.685 53.576 120.285 104.603zm-159.275-109.961c19.447 3.606 37.837 21.16 52.437 50.359 8.661 17.322 15.372 37.546 19.915 59.602h-72.352zm0 124.961h75.055c2.758 17.656 4.195 36.262 4.195 55.333s-1.437 37.677-4.195 55.333h-75.055zm0 235.627v-109.961h72.351c-4.542 22.056-11.254 42.28-19.915 59.602-14.599 29.199-32.989 46.753-52.436 50.359zm38.991-5.357c9.904-9.663 18.972-22.512 26.862-38.293 9.624-19.247 16.971-41.785 21.78-66.31h71.642c-21.6 51.026-65.965 90.154-120.284 104.603zm51.229-119.604c2.652-17.743 4.03-36.335 4.03-55.333s-1.377-37.591-4.03-55.333h74.618c5.616 17.449 8.662 36.041 8.662 55.333s-3.046 37.884-8.662 55.333z"></path></svg>