<svg xmlns="http://www.w3.org/2000/svg" id="Layer_1" height="512" viewBox="0 0 64 64" width="512"><path d="m37.88 18.29-2.86 2.28v-4.57-4h5.72v4 4.57z" fill="#43d3e8"></path><path d="m30.57 8h24.29c-1.78 2.37-1.78 5.63 0 8h-14.12v-4h-5.72v4h-4.45c-1.101 0-2-.9-2-2v-4c0-1.1.9-2 2-2z" fill="#f96232"></path><path d="m30.57 24h24.29c-1.78 2.37-1.78 5.63 0 8h-24.29c-1.101 0-2-.9-2-2v-4c0-1.1.9-2 2-2z" fill="#f96232"></path><path d="m16 53c-2.71 0-5-2.29-5-5v-10c0-1.654 1.346-3 3-3h4c1.654 0 3 1.346 3 3v10c0 2.71-2.29 5-5 5z" fill="#43d3e8"></path><g id="LINE_134_"><g><path d="m24 49c-.553 0-1-.448-1-1v-1c0-.552.447-1 1-1s1 .448 1 1v1c0 .552-.447 1-1 1z" fill="#383838"></path></g></g><g id="LINE_133_"><g><path d="m24 40c-.553 0-1-.448-1-1v-1c0-.552.447-1 1-1s1 .448 1 1v1c0 .552-.447 1-1 1z" fill="#383838"></path></g></g><g id="POINT_14_"><g><path d="m24 44c-.26 0-.521-.11-.71-.29-.181-.19-.29-.45-.29-.71s.109-.52.29-.71c.38-.37 1.04-.37 1.42 0 .18.19.29.45.29.71s-.11.52-.29.71c-.19.18-.45.29-.71.29z" fill="#383838"></path></g></g><g id="LINE_132_"><g><path d="m16 41c-.553 0-1-.448-1-1v-4c0-.552.447-1 1-1s1 .448 1 1v4c0 .552-.447 1-1 1z" fill="#383838"></path></g></g><g id="ARC_86_"><g><path d="m16 23c-.553 0-1-.448-1-1 0-1.654 1.346-3 3-3 .553 0 1 .448 1 1s-.447 1-1 1c-.552 0-1 .449-1 1 0 .552-.447 1-1 1z" fill="#383838"></path></g></g><g id="LINE_131_"><g><path d="m28.571 21h-10.571c-.553 0-1-.448-1-1s.447-1 1-1h10.571c.553 0 1 .448 1 1s-.447 1-1 1z" fill="#383838"></path></g></g><g id="LINE_130_"><g><path d="m16 33c-.553 0-1-.448-1-1v-10c0-.552.447-1 1-1s1 .448 1 1v10c0 .552-.447 1-1 1z" fill="#383838"></path></g></g><g id="ARC_85_"><g><path d="m16 57c-4.963 0-9-4.038-9-9 0-.552.447-1 1-1s1 .448 1 1c0 3.86 3.141 7 7 7s7-3.14 7-7c0-.552.447-1 1-1s1 .448 1 1c0 4.962-4.037 9-9 9z" fill="#383838"></path></g></g><g id="LINE_129_"><g><path d="m8 49c-.553 0-1-.448-1-1v-10c0-.552.447-1 1-1s1 .448 1 1v10c0 .552-.447 1-1 1z" fill="#383838"></path></g></g><g id="ARC_84_"><g><path d="m24 39c-.553 0-1-.448-1-1 0-2.757-2.243-5-5-5-.553 0-1-.448-1-1s.447-1 1-1c3.859 0 7 3.14 7 7 0 .552-.447 1-1 1z" fill="#383838"></path></g></g><g id="LINE_128_"><g><path d="m18 33h-4c-.553 0-1-.448-1-1s.447-1 1-1h4c.553 0 1 .448 1 1s-.447 1-1 1z" fill="#383838"></path></g></g><g id="ARC_83_"><g><path d="m8 39c-.553 0-1-.448-1-1 0-3.86 3.141-7 7-7 .553 0 1 .448 1 1s-.447 1-1 1c-2.757 0-5 2.243-5 5 0 .552-.447 1-1 1z" fill="#383838"></path></g></g><g id="ARC_82_"><g><path d="m28.571 27c-.553 0-1-.448-1-1 0-1.654 1.346-3 3-3 .553 0 1 .448 1 1s-.447 1-1 1c-.552 0-1 .449-1 1 0 .552-.447 1-1 1z" fill="#383838"></path></g></g><g id="ARC_81_"><g><path d="m30.571 33c-1.654 0-3-1.346-3-3 0-.552.447-1 1-1s1 .448 1 1c0 .551.448 1 1 1 .553 0 1 .448 1 1s-.447 1-1 1z" fill="#383838"></path></g></g><g id="ARC_80_"><g><path d="m28.571 19c-.553 0-1-.448-1-1 0-1.654 1.346-3 3-3 .553 0 1 .448 1 1s-.447 1-1 1c-.552 0-1 .449-1 1 0 .552-.447 1-1 1z" fill="#383838"></path></g></g><g id="ARC_79_"><g><path d="m30.571 25c-1.654 0-3-1.346-3-3 0-.552.447-1 1-1s1 .448 1 1c0 .551.448 1 1 1 .553 0 1 .448 1 1s-.447 1-1 1z" fill="#383838"></path></g></g><g id="POINT_13_"><g><path d="m36.569 9c-.26 0-.52-.11-.71-.29-.18-.19-.29-.45-.29-.71s.11-.52.29-.71c.381-.37 1.04-.37 1.421 0 .19.19.289.45.289.71s-.1.52-.289.71c-.19.18-.45.29-.711.29z" fill="#383838"></path></g></g><g id="ARC_78_"><g><path d="m28.571 11c-.553 0-1-.448-1-1 0-1.654 1.346-3 3-3 .553 0 1 .448 1 1s-.447 1-1 1c-.552 0-1 .449-1 1 0 .552-.447 1-1 1z" fill="#383838"></path></g></g><g id="ARC_77_"><g><path d="m30.571 17c-1.654 0-3-1.346-3-3 0-.552.447-1 1-1s1 .448 1 1c0 .551.448 1 1 1 .553 0 1 .448 1 1s-.447 1-1 1z" fill="#383838"></path></g></g><g id="LINE_127_"><g><path d="m56 33h-25.429c-.553 0-1-.448-1-1s.447-1 1-1h25.429c.553 0 1 .448 1 1s-.447 1-1 1z" fill="#383838"></path></g></g><g id="LINE_126_"><g><path d="m56 25h-25.429c-.553 0-1-.448-1-1s.447-1 1-1h25.429c.553 0 1 .448 1 1s-.447 1-1 1z" fill="#383838"></path></g></g><g id="LINE_125_"><g><path d="m28.571 31c-.553 0-1-.448-1-1v-4c0-.552.447-1 1-1s1 .448 1 1v4c0 .552-.447 1-1 1z" fill="#383838"></path></g></g><g id="ARC_76_"><g><path d="m54.858 33c-.305 0-.604-.138-.801-.4-2.032-2.708-2.032-6.492 0-9.2.331-.442.958-.532 1.399-.2.442.331.532.958.2 1.4-1.502 2.002-1.502 4.798 0 6.8.332.442.242 1.069-.2 1.4-.179.135-.389.2-.598.2z" fill="#383838"></path></g></g><g id="LINE_124_"><g><path d="m28.571 23c-.553 0-1-.448-1-1v-4c0-.552.447-1 1-1s1 .448 1 1v4c0 .552-.447 1-1 1z" fill="#383838"></path></g></g><g id="ARC_75_"><g><path d="m54.858 25c-.305 0-.604-.138-.801-.4-2.032-2.708-2.032-6.492 0-9.2.331-.441.958-.531 1.399-.2.442.331.532.958.2 1.4-1.502 2.002-1.502 4.798 0 6.8.332.442.242 1.069-.2 1.4-.179.135-.389.2-.598.2z" fill="#383838"></path></g></g><g id="LINE_123_"><g><path d="m40.738 13h-5.714c-.553 0-1-.448-1-1s.447-1 1-1h5.714c.553 0 1 .448 1 1s-.447 1-1 1z" fill="#383838"></path></g></g><g id="LINE_122_"><g><path d="m40.737 21.571c-.219 0-.439-.072-.624-.219l-2.857-2.286c-.431-.345-.501-.974-.156-1.405.346-.431.974-.502 1.406-.156l2.857 2.286c.431.345.501.974.156 1.405-.198.247-.488.375-.782.375z" fill="#383838"></path></g></g><g id="LINE_121_"><g><path d="m35.025 21.571c-.294 0-.584-.128-.782-.375-.345-.432-.274-1.061.156-1.406l2.856-2.286c.432-.346 1.06-.274 1.406.156.345.432.274 1.061-.156 1.406l-2.856 2.286c-.184.148-.405.219-.624.219z" fill="#383838"></path></g></g><g id="LINE_120_"><g><path d="m40.738 21.571c-.553 0-1-.448-1-1v-8.571c0-.552.447-1 1-1s1 .448 1 1v8.571c0 .553-.447 1-1 1z" fill="#383838"></path></g></g><g id="LINE_119_"><g><path d="m35.024 21.571c-.553 0-1-.448-1-1v-8.571c0-.552.447-1 1-1s1 .448 1 1v8.571c0 .553-.447 1-1 1z" fill="#383838"></path></g></g><g id="LINE_118_"><g><path d="m32.571 9h-2c-.553 0-1-.448-1-1s.447-1 1-1h2c.553 0 1 .448 1 1s-.447 1-1 1z" fill="#383838"></path></g></g><g id="LINE_117_"><g><path d="m56 9h-15.429c-.553 0-1-.448-1-1s.447-1 1-1h15.429c.553 0 1 .448 1 1s-.447 1-1 1z" fill="#383838"></path></g></g><g id="LINE_116_"><g><path d="m28.571 15c-.553 0-1-.448-1-1v-4c0-.552.447-1 1-1s1 .448 1 1v4c0 .552-.447 1-1 1z" fill="#383838"></path></g></g><g id="LINE_115_"><g><path d="m35.024 17h-4.453c-.553 0-1-.448-1-1s.447-1 1-1h4.453c.553 0 1 .448 1 1s-.447 1-1 1z" fill="#383838"></path></g></g><g id="ARC_74_"><g><path d="m54.858 17c-.305 0-.604-.138-.801-.4-2.032-2.708-2.032-6.492 0-9.2.331-.442.958-.532 1.399-.2.442.331.532.958.2 1.4-1.502 2.002-1.502 4.798 0 6.8.332.442.242 1.069-.2 1.4-.179.135-.389.2-.598.2z" fill="#383838"></path></g></g><g id="LINE_114_"><g><path d="m56 17h-15.262c-.553 0-1-.448-1-1s.447-1 1-1h15.262c.553 0 1 .448 1 1s-.447 1-1 1z" fill="#383838"></path></g></g></svg>