<svg xmlns="http://www.w3.org/2000/svg" height="512" viewBox="0 0 64 64" width="512"><g id="Business-Management-Meeting-Working-Stat"><rect fill="#ee8700" height="34" rx="2" width="58" x="3" y="3"></rect><rect fill="#5aaae7" height="26" rx="1" width="50" x="7" y="7"></rect><g fill="#3d9ae2"><path d="m60 59.47v1.53h-16v-1.53a4.02 4.02 0 0 1 2.21-3.58l3.79-1.89v-.54a3.974 3.974 0 0 0 4 0v.54l3.79 1.89a4.02 4.02 0 0 1 2.21 3.58z"></path><path d="m40 59.47v1.53h-16v-1.53a4.02 4.02 0 0 1 2.21-3.58l3.79-1.89v-.54a3.974 3.974 0 0 0 4 0v.54l3.79 1.89a4.02 4.02 0 0 1 2.21 3.58z"></path><path d="m20 59.47v1.53h-16v-1.53a4.02 4.02 0 0 1 2.21-3.58l3.79-1.89v-.54a3.974 3.974 0 0 0 4 0v.54l3.79 1.89a4.02 4.02 0 0 1 2.21 3.58z"></path></g><path d="m56 49v1a4 4 0 0 1 -8 0v-3a4 4 0 0 1 8 0z" fill="#57565c"></path><path d="m36 49v1a4 4 0 0 1 -8 0v-3a4 4 0 0 1 8 0z" fill="#57565c"></path><path d="m16 49v1a4 4 0 0 1 -8 0v-3a4 4 0 0 1 8 0z" fill="#57565c"></path><path d="m21 29v-3.58a8.124 8.124 0 0 1 -2.66-1.76 8.014 8.014 0 0 1 -2.34-5.66h-1a2 2 0 0 1 0-4h1v-5a3.989 3.989 0 0 1 .54-2h15.46v11a8.008 8.008 0 0 1 -5 7.42v3.58l3.33 1.11 3.2 1.07a7.9 7.9 0 0 1 3.01 1.82h-25.08a7.9 7.9 0 0 1 3.01-1.82l3.2-1.07z" fill="#3d9ae2"></path><path d="m32 5v2h-15.46a3.98 3.98 0 0 1 3.46-2z" fill="#cc7400"></path><path d="m38.8 37h-29.6a7.973 7.973 0 0 1 2.26-4h25.08a7.973 7.973 0 0 1 2.26 4z" fill="#cc7400"></path><path d="m23 33 1 6h-2-2l1-6z" fill="#ff5023"></path><path d="m24.6 30.6-1.6 2.4h-2l-1.6-2.4 2.6-2.6z" fill="#ff5023"></path><path d="m28.33 28.11-2.33 3.89-1.4-1.4-2.6-2.6h1l2-1z" fill="#1e81ce"></path><path d="m22 28-2.6 2.6-1.4 1.4-2.33-3.89 3.33-1.11 2 1z" fill="#1e81ce"></path><path d="m21 33-1 6h-13v-2.23a7.991 7.991 0 0 1 5.47-7.59l3.2-1.07 2.33 3.89 1.4-1.4z" fill="#3d9ae2"></path><path d="m24.6 30.6 1.4 1.4 2.33-3.89 3.2 1.07a7.991 7.991 0 0 1 5.47 7.59v2.23h-13l-1-6z" fill="#3d9ae2"></path><path d="m25 23v4l-2 1h-2l-2-1v-4z" fill="#ffc477"></path><path d="m30 3v5.07c-2.64.34-4.03.93-7 .93-3.33 0-2.67-1-6-1v4h-3v-5a4 4 0 0 1 4-4z" fill="#57565c"></path><path d="m14 12v4h-1a2 2 0 0 1 0-4z" fill="#ffb655"></path><path d="m25 23v2.42a8.049 8.049 0 0 1 -6 0v-2.42z" fill="#ffb655"></path><path d="m30 8.07v7.93a8.008 8.008 0 0 1 -5 7.42 8 8 0 0 1 -11-7.42v-4h3v-4c3.33 0 2.67 1 6 1 2.97 0 4.36-.59 7-.93z" fill="#ffc477"></path><path d="m59 2h-54a3.009 3.009 0 0 0 -3 3v30a3.009 3.009 0 0 0 3 3h1v1a1 1 0 0 0 1 1h30a1 1 0 0 0 1-1v-1h21a3.009 3.009 0 0 0 3-3v-30a3.009 3.009 0 0 0 -3-3zm-44 5a3.009 3.009 0 0 1 3-3h11v3.21c-.59.09-1.13.2-1.65.3a20.562 20.562 0 0 1 -4.35.49 6.157 6.157 0 0 1 -2.65-.44 8.214 8.214 0 0 0 -3.35-.56 1 1 0 0 0 -1 1v3h-1zm-8.36 26.45a9.139 9.139 0 0 0 -.61 2.55h-1.03a1 1 0 0 1 -1-1v-30a1 1 0 0 1 1-1h9.03a4.84 4.84 0 0 0 -.93 2h-5.1a2.006 2.006 0 0 0 -2 2v24a1.979 1.979 0 0 0 .64 1.45zm3.36-19.45a3.009 3.009 0 0 0 3 3h.06a9 9 0 0 0 4.94 7.05v2.23l-5.85 1.95a9.022 9.022 0 0 0 -4.15 2.89v-23.12h5v3a3.009 3.009 0 0 0 -3 3zm3-1v2a1 1 0 0 1 0-2zm6.15 25h-5.15v-3h-2v3h-4v-1.23a6.978 6.978 0 0 1 4.79-6.64l2.44-.82 1.91 3.2a1 1 0 0 0 .74.48.487.487 0 0 0 .12.01 1.007 1.007 0 0 0 .71-.29l.53-.54.71 1.06zm-.95-7.61-1.03-1.72 1.75-.59 1.06.53zm-3.2-14.39v-3h2a1 1 0 0 0 1-1v-2.96a5.222 5.222 0 0 1 1.65.4 8.214 8.214 0 0 0 3.35.56 22.337 22.337 0 0 0 4.73-.53c.41-.08.83-.16 1.27-.24v6.77a7 7 0 0 1 -14 0zm6.18 22 .67-4h.3l.67 4zm1.28-6h-.92l-.85-1.27 1.31-1.32 1.31 1.32zm1.54-5.62-1.24.62h-1.52l-1.24-.62v-1.61a8.811 8.811 0 0 0 4 0zm1.08 1.7 1.75.59-1.03 1.72-1.78-1.78zm10.92 9.92h-4v-3h-2v3h-5.15l-.8-4.77.71-1.06.53.54a1.007 1.007 0 0 0 .71.29.487.487 0 0 0 .12-.01 1 1 0 0 0 .74-.48l1.91-3.2 2.44.82a6.978 6.978 0 0 1 4.79 6.64zm.63-6a9.008 9.008 0 0 0 -4.78-3.77l-5.85-1.95v-2.23a9.008 9.008 0 0 0 5-8.05v-8h25v24zm23.37 3a1 1 0 0 1 -1 1h-21.03a8.879 8.879 0 0 0 -.41-2h18.44a2.006 2.006 0 0 0 2-2v-24a2.006 2.006 0 0 0 -2-2h-25v-2h28a1 1 0 0 1 1 1z"></path><path d="m18.24 55-2.79-1.4a4.967 4.967 0 0 0 1.55-3.6v-3a5 5 0 0 0 -10 0v3a4.967 4.967 0 0 0 1.55 3.6l-2.79 1.4a5.038 5.038 0 0 0 -2.76 4.47v1.53a1 1 0 0 0 1 1h16a1 1 0 0 0 1-1v-1.53a5.038 5.038 0 0 0 -2.76-4.47zm-9.24-8a3 3 0 0 1 6 0v3a3 3 0 0 1 -6 0zm10 13h-14v-.53a3.017 3.017 0 0 1 1.66-2.68l3.79-1.89c.06-.04.11-.08.16-.12a4.985 4.985 0 0 0 1.39.22 4.985 4.985 0 0 0 1.39-.22c.05.04.1.08.16.12l3.79 1.88a3.044 3.044 0 0 1 1.66 2.69z"></path><path d="m38.24 55-2.79-1.4a4.967 4.967 0 0 0 1.55-3.6v-3a5 5 0 0 0 -10 0v3a4.967 4.967 0 0 0 1.55 3.6l-2.79 1.4a5.038 5.038 0 0 0 -2.76 4.47v1.53a1 1 0 0 0 1 1h16a1 1 0 0 0 1-1v-1.53a5.038 5.038 0 0 0 -2.76-4.47zm-9.24-8a3 3 0 0 1 6 0v3a3 3 0 0 1 -6 0zm10 13h-14v-.53a3.017 3.017 0 0 1 1.66-2.68l3.79-1.89c.06-.04.11-.08.16-.12a4.5 4.5 0 0 0 2.78 0c.05.04.1.08.16.12l3.79 1.88a3.044 3.044 0 0 1 1.66 2.69z"></path><path d="m58.24 55-2.79-1.4a4.967 4.967 0 0 0 1.55-3.6v-3a5 5 0 0 0 -10 0v3a4.967 4.967 0 0 0 1.55 3.6l-2.79 1.4a5.038 5.038 0 0 0 -2.76 4.47v1.53a1 1 0 0 0 1 1h16a1 1 0 0 0 1-1v-1.53a5.038 5.038 0 0 0 -2.76-4.47zm-9.24-8a3 3 0 0 1 6 0v3a3 3 0 0 1 -6 0zm10 13h-14v-.53a3.017 3.017 0 0 1 1.66-2.68l3.79-1.89c.06-.04.11-.08.16-.12a4.5 4.5 0 0 0 2.78 0c.05.04.1.08.16.12l3.79 1.88a3.044 3.044 0 0 1 1.66 2.69z"></path><path d="m19 12h2v2h-2z"></path><path d="m25 12h2v2h-2z"></path><path d="m25 17a2 2 0 0 1 -4 0h-2a4 4 0 0 0 8 0z"></path><path d="m52 12h-2v13h-2v-7h-2v7h-2v-10h-2v10h-2v-7h-2v7h-2v2h18v-2h-2z"></path></g></svg>