<svg xmlns="http://www.w3.org/2000/svg" xmlns:xlink="http://www.w3.org/1999/xlink" id="Micro_x5F_learning" x="0px" y="0px" width="512" height="512" viewBox="0 0 512 512" xml:space="preserve">
<g>
	<g>
		<circle fill="#FFFFFF" cx="243.63" cy="244.034" r="118.139"></circle>
		<path fill="#4E73DE" d="M455.412,465.008c-2.56,0-5.118-0.977-7.071-2.93L335.557,349.293c-3.906-3.904-3.905-10.236,0-14.142    c3.905-3.904,10.236-3.905,14.143,0.001l112.784,112.785c3.905,3.904,3.905,10.236-0.001,14.142    C460.531,464.031,457.971,465.008,455.412,465.008z"></path>
		<path fill="#EBC847" d="M455.412,480.33c-6.48,0-12.961-2.473-17.905-7.416l-53.423-53.423c-9.889-9.89-9.889-25.923,0-35.812    c9.89-9.889,25.922-9.889,35.811,0l53.423,53.423c9.89,9.89,9.89,25.922,0,35.812C468.373,477.857,461.893,480.33,455.412,480.33z    "></path>
		<path fill="#94A9E3" d="M243.63,89.806c-85.042,0-154.229,69.187-154.229,154.229s69.187,154.229,154.229,154.229    c85.042,0,154.228-69.187,154.228-154.229S328.672,89.806,243.63,89.806z M243.63,367.876    c-68.396,0-123.842-55.446-123.842-123.842c0-68.396,55.446-123.842,123.842-123.842s123.842,55.446,123.842,123.842    C367.473,312.43,312.026,367.876,243.63,367.876z"></path>
		<path fill="#4E73DE" d="M243.63,377.876c-73.801,0-133.842-60.041-133.842-133.842S169.83,110.192,243.63,110.192    c73.801,0,133.842,60.041,133.842,133.842S317.432,377.876,243.63,377.876z M243.63,130.192    c-62.772,0-113.842,51.069-113.842,113.842s51.069,113.842,113.842,113.842c62.772,0,113.842-51.069,113.842-113.842    S306.402,130.192,243.63,130.192z"></path>
		<path fill="#94A9E3" d="M335.145,238.545c-4.795,0-9.029-3.458-9.85-8.345c-3.307-19.686-13.688-37.538-29.228-50.268    c-4.272-3.5-4.899-9.8-1.399-14.072c3.498-4.272,9.799-4.9,14.072-1.399c19.285,15.796,32.169,37.966,36.278,62.426    c0.915,5.446-2.759,10.604-8.205,11.519C336.253,238.5,335.695,238.545,335.145,238.545z"></path>
		<path fill="#94A9E3" d="M276.396,167.173c-1.174,0-2.366-0.208-3.529-0.647c-4.061-1.533-8.279-2.752-12.537-3.624    c-5.41-1.107-8.899-6.392-7.792-11.802c1.107-5.41,6.387-8.902,11.802-7.792c5.294,1.083,10.538,2.6,15.589,4.505    c5.167,1.95,7.775,7.72,5.824,12.887C284.242,164.706,280.438,167.173,276.396,167.173z"></path>
	</g>
	<g>
		<path fill="#E6EBF2" d="M243.63,208.013c-20.405-11.218-45.13-11.218-65.535,0v80.456c20.405-11.218,45.13-11.218,65.535,0    c20.405-11.218,45.129-11.218,65.535,0v-80.456C288.76,196.795,264.035,196.795,243.63,208.013z"></path>
		<path fill="#B4C3D9" d="M227.941,222.05c-0.487,0-0.982-0.072-1.472-0.223c-10.21-3.141-21.004-3.141-31.214,0    c-2.643,0.813-5.438-0.67-6.249-3.309c-0.812-2.64,0.669-5.438,3.309-6.249c12.134-3.732,24.961-3.732,37.095,0    c2.639,0.812,4.121,3.609,3.309,6.249C232.058,220.668,230.079,222.05,227.941,222.05z"></path>
		<path fill="#B4C3D9" d="M227.941,238.427c-0.487,0-0.982-0.072-1.472-0.223c-10.21-3.141-21.004-3.141-31.214,0    c-2.643,0.812-5.438-0.67-6.249-3.309c-0.812-2.639,0.669-5.437,3.309-6.249c12.134-3.733,24.961-3.733,37.095,0    c2.639,0.812,4.121,3.61,3.309,6.249C232.058,237.045,230.079,238.427,227.941,238.427z"></path>
		<path fill="#B4C3D9" d="M227.941,254.805c-0.487,0-0.982-0.072-1.472-0.223c-10.21-3.141-21.004-3.141-31.214,0    c-2.643,0.813-5.438-0.67-6.249-3.309c-0.812-2.64,0.669-5.438,3.309-6.249c12.134-3.732,24.961-3.732,37.095,0    c2.639,0.812,4.121,3.609,3.309,6.249C232.058,253.422,230.079,254.805,227.941,254.805z"></path>
		<path fill="#B4C3D9" d="M227.941,271.182c-0.487,0-0.982-0.072-1.472-0.223c-10.21-3.141-21.004-3.141-31.214,0    c-2.643,0.813-5.438-0.67-6.249-3.309c-0.812-2.639,0.669-5.438,3.309-6.249c12.134-3.733,24.961-3.733,37.095,0    c2.639,0.812,4.121,3.61,3.309,6.249C232.058,269.8,230.079,271.182,227.941,271.182z"></path>
		<path fill="#B4C3D9" d="M293.477,222.05c-0.487,0-0.982-0.072-1.473-0.223c-10.209-3.141-21.004-3.141-31.213,0    c-2.641,0.813-5.438-0.67-6.25-3.309c-0.812-2.64,0.67-5.438,3.309-6.249c12.135-3.732,24.961-3.732,37.096,0    c2.639,0.812,4.12,3.609,3.309,6.249C297.592,220.668,295.613,222.05,293.477,222.05z"></path>
		<path fill="#B4C3D9" d="M293.477,238.427c-0.487,0-0.982-0.072-1.473-0.223c-10.209-3.141-21.004-3.141-31.213,0    c-2.641,0.812-5.438-0.67-6.25-3.309c-0.812-2.639,0.67-5.437,3.309-6.249c12.135-3.733,24.961-3.733,37.096,0    c2.639,0.812,4.12,3.61,3.309,6.249C297.592,237.045,295.613,238.427,293.477,238.427z"></path>
		<path fill="#B4C3D9" d="M293.477,254.805c-0.487,0-0.982-0.072-1.473-0.223c-10.209-3.141-21.004-3.141-31.213,0    c-2.641,0.813-5.438-0.67-6.25-3.309c-0.812-2.64,0.67-5.438,3.309-6.249c12.135-3.732,24.961-3.732,37.096,0    c2.639,0.812,4.12,3.609,3.309,6.249C297.592,253.422,295.613,254.805,293.477,254.805z"></path>
		<path fill="#B4C3D9" d="M293.477,271.182c-0.487,0-0.982-0.072-1.473-0.223c-10.209-3.141-21.004-3.141-31.213,0    c-2.641,0.813-5.438-0.67-6.25-3.309c-0.812-2.639,0.67-5.438,3.309-6.249c12.135-3.733,24.961-3.733,37.096,0    c2.639,0.812,4.12,3.61,3.309,6.249C297.592,269.8,295.613,271.182,293.477,271.182z"></path>
	</g>
	<g>
		<path fill="#2BABAA" d="M41.266,121.67c-5.523,0-10-4.477-10-10v-70c0-5.523,4.477-10,10-10h69.773c5.523,0,10,4.477,10,10    s-4.477,10-10,10H51.266v60C51.266,117.193,46.789,121.67,41.266,121.67z"></path>
		<path fill="#2BABAA" d="M111.926,456.398h-70.66c-5.523,0-10-4.477-10-10v-70.135c0-5.523,4.477-10,10-10s10,4.477,10,10v60.135    h60.66c5.523,0,10,4.477,10,10S117.449,456.398,111.926,456.398z"></path>
		<path fill="#2BABAA" d="M445.994,456.398h-70c-5.523,0-10-4.477-10-10s4.477-10,10-10h60v-60.135c0-5.523,4.477-10,10-10    s10,4.477,10,10v70.135C455.994,451.922,451.518,456.398,445.994,456.398z"></path>
		<path fill="#2BABAA" d="M445.994,121.67c-5.523,0-10-4.477-10-10v-60h-60.553c-5.522,0-10-4.477-10-10s4.478-10,10-10h70.553    c5.523,0,10,4.477,10,10v70C455.994,117.193,451.518,121.67,445.994,121.67z"></path>
	</g>
</g>
</svg>