<svg xmlns="http://www.w3.org/2000/svg" id="Layer_1" height="512" viewBox="0 0 100 100" width="512" data-name="Layer 1"><path d="m37.11 29.99h24.47v19.38h-24.47z" fill="#f07719"></path><path d="m63.88 30.78-28.66-.01 14.15-8.83z" fill="#fa6a31"></path><path d="m63.88 30.78h-2.29v18.59h-24.48v-18.6h-1.89l14.15-8.83z" fill="#fa6a31"></path><g opacity=".1"><path d="m63.88 30.78h-2.29v1l-11.22-6.84-2.45 1.76a23.63 23.63 0 0 0 -9.81 19.17v3.5h-1v-18.6h-1.89l14.15-8.83z"></path></g><path d="m8.1 63.61h83.66v31.39h-83.66z" fill="#f07719"></path><path d="m94 65.8h-87.95a.64.64 0 0 1 -.57-.93l9.52-18.54h70l9.52 18.54a.64.64 0 0 1 -.52.93z" fill="#5f4132"></path><g opacity=".1"><path d="m77.74 55.39a1.27 1.27 0 0 1 -1.1.63 1.24 1.24 0 0 1 -.61-.16l-1.9-1.1h-5v40.24h-38.24v-40.25h-5.89l-1.85 1.1a1.28 1.28 0 0 1 -1.73-.46 1.26 1.26 0 0 1 .44-1.72l12.47-7.34h30.16l12.78 7.35a1.24 1.24 0 0 1 .47 1.71z"></path></g><rect fill="#754c24" height="4.39" rx=".84" width="88" x="6" y="90.61"></rect><path d="m40.47 74.98h18.87v20.02h-18.87z" fill="#42210b"></path><path d="m34.72 50h30.37v45.03h-30.37z" fill="#f0a831"></path><path d="m71.08 52.58-43.06-.01 21.26-12.52z" fill="#fa6a31"></path><path d="m43.68 95.03v-17.55h12.64v17.55" fill="#5f4132"></path><path d="m57.32 95h-2v-16.52h-10.64v16.52h-2v-17.52a1 1 0 0 1 1-1h12.64a1 1 0 0 1 1 1z" fill="#999"></path><circle cx="49.99" cy="60.92" fill="#e6e6e6" r="5.96"></circle><path d="m50 67.37a6.46 6.46 0 1 1 6.46-6.45 6.45 6.45 0 0 1 -6.46 6.45zm0-11.91a5.46 5.46 0 1 0 5.46 5.46 5.46 5.46 0 0 0 -5.46-5.46z" fill="#999"></path><path d="m49.32 8.61h13.16v8.78h-13.16z" fill="#94bcdd"></path><path d="m48.32 8.61h2v13.35h-2z" fill="#999"></path><path d="m63.88 31.78a1 1 0 0 1 -.52-.15l-14-8.52-13.61 8.51a1 1 0 0 1 -1.06-1.7l14.15-8.83a1 1 0 0 1 1 0l14.56 8.83a1 1 0 0 1 .34 1.38 1 1 0 0 1 -.86.48z" fill="#5f4132"></path><path d="m71.08 53.58a1 1 0 0 1 -.49-.13l-21.3-12.25-20.76 12.24a1 1 0 0 1 -1-1.73l21.75-12.82 22.3 12.83a1 1 0 0 1 -.5 1.86z" fill="#5f4132"></path><path d="m50 61.42a.51.51 0 0 1 -.5-.5v-4.85a.5.5 0 0 1 .5-.5.5.5 0 0 1 .5.5v4.85a.5.5 0 0 1 -.5.5z" fill="#cd2a41"></path><path d="m53.67 61.42h-3.67a.51.51 0 0 1 -.5-.5.5.5 0 0 1 .5-.5h3.68a.5.5 0 0 1 .5.5.5.5 0 0 1 -.51.5z" fill="#cd2a41"></path><g fill="#94bcdd"><rect height="16.84" rx=".95" width="6.02" x="80.53" y="69.42"></rect><rect height="16.84" rx=".95" width="6.02" x="71.73" y="69.42"></rect><rect height="16.84" rx=".95" width="6.02" x="21.9" y="69.42"></rect><rect height="16.84" rx=".95" width="6.02" x="13.1" y="69.42"></rect></g></svg>