<svg xmlns="http://www.w3.org/2000/svg" id="Layer_1" height="512" viewBox="0 0 512 512" width="512"><g><path d="m467.7 30.2h-423.4c-7.8 0-14.1 6.3-14.1 14.1v170.2c0 7.8 6.3 14.1 14.1 14.1h423.3c7.8 0 14.1-6.3 14.1-14.1v-170.2c.1-7.7-6.3-14.1-14-14.1z" fill="#fff"></path><path d="m467.7 2h-423.4c-23.3 0-42.3 19-42.3 42.3v170.2c0 23.3 19 42.3 42.3 42.3h423.3c23.3 0 42.3-19 42.3-42.3v-170.2c.1-23.3-18.9-42.3-42.2-42.3zm14.1 212.5c0 7.8-6.3 14.1-14.1 14.1h-423.4c-7.8 0-14.1-6.3-14.1-14.1v-170.2c0-7.8 6.3-14.1 14.1-14.1h423.3c7.8 0 14.1 6.3 14.1 14.1v170.2z" fill="#194f82"></path><path d="m58.4 58.4h395.1v141.9h-395.1z" fill="#56ace0"></path><path d="m161.9 425.1c0-7.8-6.3-14.1-14.1-14.1h-103.5c-7.8 0-14.1 6.3-14.1 14.1v56.7h131.7z" fill="#fff"></path><path d="m321.8 425.1c0-7.8-6.3-14.1-14.1-14.1h-103.4c-7.8 0-14.1 6.3-14.1 14.1v56.7h131.7v-56.7z" fill="#56ace0"></path><g fill="#ffc10d"><path d="m481.8 425.1c0-7.8-6.3-14.1-14.1-14.1h-103.5c-7.8 0-14.1 6.3-14.1 14.1v56.7h131.7z"></path><path d="m96.1 356.3c13.1 0 23.7-10.6 23.7-23.7s-10.6-23.7-23.7-23.7-23.7 10.6-23.7 23.7c-.1 13 10.6 23.7 23.7 23.7z"></path><path d="m256 356.3c13.1 0 23.7-10.6 23.7-23.7s-10.6-23.7-23.7-23.7-23.7 10.6-23.7 23.7c0 13 10.6 23.7 23.7 23.7z"></path></g><path d="m415.9 356.3c13.1 0 23.7-10.6 23.7-23.7s-10.6-23.7-23.7-23.7-23.7 10.6-23.7 23.7c0 13 10.6 23.7 23.7 23.7z" fill="#56ace0"></path><path d="m467.7 382.8h-38.8c22.4-5.8 39-26.1 39-50.3 0-28.6-23.3-52-52-52-28.6 0-52 23.3-52 52 0 24.2 16.6 44.5 39 50.3h-38.8c-10.8 0-20.7 4.1-28.2 10.9-7.5-6.7-17.4-10.9-28.2-10.9h-38.8c22.4-5.8 39-26.1 39-50.3 0-28.6-23.3-52-52-52s-52 23.3-52 52c0 24.2 16.6 44.5 39 50.3h-38.8c-10.8 0-20.7 4.1-28.2 10.9-7.5-6.7-17.4-10.9-28.2-10.9h-38.7c22.4-5.8 39-26.1 39-50.3 0-28.6-23.3-52-52-52-28.6 0-52 23.3-52 52 0 24.2 16.6 44.5 39 50.3h-38.7c-23.3 0-42.3 19-42.3 42.3v70.8c0 7.8 6.3 14.1 14.1 14.1h479.8c7.8 0 14.1-6.3 14.1-14.1v-70.8c0-23.3-19-42.3-42.3-42.3zm-117.6 42.3c0-7.8 6.3-14.1 14.1-14.1h103.5c7.8 0 14.1 6.3 14.1 14.1v56.7h-131.7zm65.8-116.3c13.1 0 23.7 10.6 23.7 23.7s-10.6 23.7-23.7 23.7-23.7-10.6-23.7-23.7 10.6-23.7 23.7-23.7zm-225.8 116.3c0-7.8 6.3-14.1 14.1-14.1h103.5c7.8 0 14.1 6.3 14.1 14.1v56.7h-131.7zm65.9-116.3c13.1 0 23.7 10.6 23.7 23.7s-10.6 23.7-23.7 23.7-23.7-10.6-23.7-23.7 10.6-23.7 23.7-23.7zm-225.8 116.3c0-7.8 6.3-14.1 14.1-14.1h103.5c7.8 0 14.1 6.3 14.1 14.1v56.7h-131.7zm65.9-116.3c13.1 0 23.7 10.6 23.7 23.7s-10.6 23.7-23.7 23.7-23.7-10.6-23.7-23.7c-.1-13.1 10.6-23.7 23.7-23.7z" fill="#194f82"></path><path d="m430.9 53.3-92.4 48-49.9-8.9c-3.9-.7-7.9.3-11 2.7l-67.8 51.6-61.7-12.4c-3.6-.7-7.3 0-10.4 1.9l-70.7 45c-6.6 4.2-9.1 13.3-4.3 19.5 8 10.3 17.1 5.8 19.5 4.3l65.9-42 62.4 12.6c4 .8 8.1-.1 11.3-2.6l67.9-51.7 48.5 8.7c3.1.6 6.2.1 9-1.4l96.7-50.2c6.9-3.6 9.6-12.1 6-19-3.6-7-12.1-9.7-19-6.1z" fill="#194f82"></path></g></svg>