<svg xmlns="http://www.w3.org/2000/svg" id="Layer_1" height="512" viewBox="0 0 50 50" width="512"><g><g><g><g><g><path d="m45.8510017 38.7935448-15.2353973 8.8544044c-.5533295.3217316-1.447134.3217316-2.0041008 0l-25.8842268-14.9443283c-.2785697-.1606941-.4185691-.3726387-.417963-.5845871l-.0081818 1.1106644c-.0006061.2119484.1393499.423893.4179199.5849342l25.8842697 14.9443283c.5569668.3213844 1.4507275.3213844 2.0040588 0l15.2353973-8.8547478c.2749329-.1596527.4125519-.3677902.4131165-.5762749l.0082245-1.1106644c-.000607.2084809-.1382261.4166185-.413117.5762712z" fill="#4c5671"></path><g><path d="m45.8444748 37.6327553c.5569878.3215752.5598488.8392792.0065079 1.1608429l-15.2353897 8.8544616c-.5533371.3215637-1.4471035.3215981-2.0040932.0000191l-25.8842418-14.9442749c-.5524626-.3189621-.559845-.8392754-.0065072-1.160841l15.2353916-8.8544598c.5533371-.3215637 1.4516258-.3189888 2.0040874-.0000248z" fill="#d3dbea"></path></g><g><path d="m25.0796757 37.1333656c.3790779.2188606.3810825.5647736.0043945.78368l-4.4160957 2.5663567c-.3704243.2152672-.973875.2188759-1.352953.0000153l-9.2018375-5.3126831c-.3790827-.2188644-.3748198-.5684166-.0043955-.7836838l4.4160967-2.5663528c.376687-.2189064.9738703-.2188797 1.352953-.0000153z" fill="#b4bed7"></path></g></g></g><g fill="#4c5671"><path d="m19.0395069 24.6196442-.5539875.3219413-1.3020382-.7517299.5539894-.3219433z"></path><path d="m20.5694695 26.512104-1.2253628.7121029-1.3020382-.7517318 1.2253628-.7121029z"></path><path d="m32.8135643 33.5806084-1.2253609.7121048-1.3020363-.7517319 1.2253628-.7121048z"></path><path d="m16.9663258 29.7841282-1.2243271.7115021-1.3020392-.7517338 1.2243281-.7115002z"></path><path d="m15.2905769 28.825079-1.2243271.7115001-1.3020391-.7517318 1.224328-.7115021z"></path><path d="m13.5410585 27.8149929-1.224328.7115021-1.3020372-.7517319 1.224328-.7115021z"></path><path d="m22.5385437 26.6398125-.5539875.3219433-1.3020401-.7517319.5539894-.3219433z"></path><path d="m24.2870522 27.6493149-.5539875.3219433-1.3020382-.7517319.5539875-.3219433z"></path><path d="m22.3179741 27.5216045-1.2253628.7121029-1.3020344-.7517318 1.2253628-.712101z"></path><path d="m20.1250057 28.042408-1.2253608.7121029-1.3020401-.7517319 1.2253627-.7121029z"></path><path d="m26.0365677 28.659399-.5539875.3219414-1.3020363-.75173.5539894-.3219432z"></path><path d="m24.0674934 28.5316887-1.2253627.7121029-1.3020382-.7517319 1.2253627-.7121029z"></path><path d="m18.58255 28.9387856-1.224327.711502-1.3020382-.7517338 1.2243271-.7115001z"></path><path d="m21.8735142 29.0519104-1.2253609.7121029-1.3020382-.7517338 1.2253609-.7121029z"></path><path d="m25.817009 29.5417728-1.2253628.7121029-1.3020344-.7517299 1.2253628-.7121029z"></path><path d="m20.3310585 29.948288-1.2243271.7115001-1.3020382-.7517318 1.2243271-.7115021z"></path><path d="m29.3145294 31.5604401-1.2253609.7121009-1.3020381-.7517299 1.2253608-.7121029z"></path><path d="m25.3725491 31.0720787-1.2253609.7121029-1.3020401-.7517319 1.2253628-.7121029z"></path><path d="m31.0640488 32.5705261-1.2253609.712101-1.3020401-.7517319 1.2253628-.7121029z"></path><path d="m23.8300934 31.9684563-1.2243271.711502-1.3020382-.7517337 1.2243271-.7115002z"></path><path d="m28.8710785 33.0913277-1.2253628.7121009-1.3030453-.7523117 1.2253609-.7121048z"></path><path d="m27.3286228 33.9877052-1.224329.7115021-1.3030452-.7523155 1.224327-.7115021z"></path><path d="m20.7890263 25.6297283-.5539875.3219433-1.3020401-.7517319.5539894-.3219433z"></path><path d="m27.786087 29.6694832-.5539875.3219433-1.3020382-.7517319.5539875-.3219433z"></path><path d="m27.566021 30.5509377-1.2253609.7121028-1.3020363-.7517299 1.2253628-.7121029z"></path><path d="m27.121563 32.0812454-1.2253628.712101-1.3020382-.7517319 1.2253609-.7121029z"></path><path d="m25.5791054 32.977623-1.2243271.7114982-1.3020382-.7517318 1.2243271-.7115021z"></path><path d="m29.535099 30.6786499-.5539875.3219414-1.3020382-.7517319.5539875-.3219433z"></path><path d="m31.0346889 37.9131813-1.2253074.7120743-1.3020382-.7517357 1.2253075-.7120705z"></path><path d="m33.0337067 39.0673141-1.2253075.7120743-1.3020401-.7517357 1.2253094-.7120704z"></path><path d="m34.5751801 38.1715088-1.2243271.7115021-1.3020363-.7517319 1.2243271-.7115021z"></path><path d="m36.3246994 39.181591-1.2243309.7115021-1.3020325-.7517319 1.2243271-.711502z"></path><path d="m37.8671532 38.2852135-1.2253609.7121048-1.3020363-.7517319 1.2253609-.712101z"></path><path d="m36.1176376 37.2751312-1.2253608.712101-1.3020401-.7517319 1.2253608-.7121009z"></path><path d="m43.7787209 38.9022064-.5539895.3219414-1.3020401-.7517319.5539895-.3219414z"></path><path d="m42.9076385 39.4084244-1.2253646.712101-1.3020363-.7517319 1.2253608-.712101z"></path><path d="m41.365181 40.3048019-1.2253609.712101-1.3020401-.7517318 1.2253609-.712101z"></path><path d="m38.0732079 40.1910934-1.2243309.7115021-1.3020325-.7517319 1.2243271-.711502z"></path><path d="m36.5317307 41.0869026-1.2253075.7120705-1.3020363-.7517319 1.2253075-.7120705z"></path><path d="m39.8227272 41.2011795-2.7667847 1.6078796-1.3020401-.7517356 2.7667847-1.6078759z"></path><path d="m39.6156616 39.2947159-1.2253608.7121048-1.3020363-.7517319 1.2253608-.7121048z"></path><path d="m41.1581192 38.3983383-1.2253647.7121048-1.3020325-.7517319 1.2253609-.7121009z"></path><path d="m38.5311737 35.8725357-.5539856.3219414-1.3020401-.7517319.5539894-.3219414z"></path><path d="m37.6600952 36.3787537-1.2253647.7121009-1.3020363-.7517318 1.2253609-.712101z"></path><path d="m40.2806892 36.882618-.5539856.3219451-1.3020362-.7517318.5539894-.3219414z"></path><path d="m39.4096107 37.3888359-1.2253646.7121048-1.3020325-.7517319 1.2253609-.712101z"></path><path d="m30.6195869 34.1008301-1.2253627.712101-1.3020382-.7517319 1.2253628-.712101z"></path><path d="m34.1186218 36.1209984-1.2253608.712101-3.0515557-1.7618142 1.2253609-.7121047z"></path><path d="m35.6610756 35.2246208-1.2253609.712101-2.4010429-1.3862419 1.2253647-.712101z"></path><path d="m36.5321579 34.7184029-.5539856.3219413-1.3020401-.7517318.5539894-.3219414z"></path><path d="m34.7826385 33.7083168-.5539855.3219452-1.3020363-.7517319.5539894-.3219414z"></path><path d="m33.033123 32.6982346-.5539856.3219413-1.3020401-.7517318.5539875-.3219414z"></path><path d="m31.2846146 31.6887321-.5539875.3219414-1.3030453-.7523117.5539875-.3219433z"></path><path d="m22.080574 30.9583702-1.2243271.7115021-1.3020343-.75173 1.2243271-.7115021z"></path><path d="m23.6230297 30.0619926-1.2253609.7121029-1.3020362-.7517299 1.2253627-.7121029z"></path><path d="m27.5356541 35.893013-1.2253075.7120743-1.3020382-.7517357 1.2253075-.7120705z"></path><path d="m25.7871456 34.8835106-1.2253074.7120743-8.3733407-4.833725 1.2253075-.7120705z"></path><path d="m29.2851715 36.9030991-1.2253094.7120704-1.3020343-.7517318 1.2253074-.7120705z"></path><path d="m30.8266468 36.0072899-1.224329.7115021-1.3020344-.7517319 1.2243271-.7115021z"></path><path d="m18.3754883 27.0323238-1.2253609.7121029-3.0515566-1.7618179 1.2253618-.7121029z"></path><path d="m16.8330326 27.9287014-1.2243271.7115002-3.0515566-1.7618161 1.2243281-.711502z"></path><path d="m18.8199501 25.502018-1.2253628.7121029-1.9535608-1.1278897 1.2253618-.712101z"></path><path d="m42.0292015 37.8921204-.5539894.3219452-1.3020363-.7517319.5539894-.3219414z"></path><path d="m34.7832222 40.0774002-1.2253075.7120705-1.3020363-.7517319 1.2253075-.7120705z"></path></g><g><g><g><path d="m45.9043655 16.506216c.5968819.3446083 1.0845222 1.1891842 1.0825615 1.8806171l-.052803 18.6249123c-.0019455.6859589-.4927711.9656181-1.0896492.6210098l-25.8842449-14.9442767c-.6017704-.3474312-1.0845318-1.1891918-1.0825882-1.8751507l.052803-18.6249123c.0019588-.6914318.4879093-.9739059 1.0896797-.6264735zm-25.9405956 4.934187 25.8842411 14.9442749.052803-18.6249123-25.884243-14.9442754z" fill="#4c5671"></path></g><g><path d="m20.0165615 2.81548-.052803 18.6249154 25.8842449 14.9442749.052803-18.6249142z" fill="#7bb1ff"></path></g><g><path d="m47.6987801 17.971756-.0536461 18.6283264c0 .3371162-.1225815.5825653-.3141518.6895752l-.7110939.4143257c.1915703-.1148682.3141556-.352459.3141556-.689579l.0536461-18.6283245c0-.6895771-.4827614-1.5325603-1.0804825-1.8771629l-25.8882961-14.9443361c-.2988129-.1762296-.5747108-.1915702-.7662792-.0763288l.7111378-.4146984c.1992397-.1148673.4674187-.0995266.7739506.0767028l25.8806266 14.9443366c.5976715.3446026 1.0881042 1.1875859 1.0804329 1.877163z" fill="#272e3a"></path></g></g></g></g><g><path d="m43.2683525 20.2335205-.038002 11.8152657c0 .4562187-.3273888.6315117-.7250061.4093971l-19.3531551-11.1793003c-.3976192-.2221127-.7133026-.78339-.7133026-1.2390366l.0289764-11.8119431z" fill="#fff"></path></g><g><g><path d="m43.2683525 18.8767471v1.3567734l-20.8004894-12.0056171.0113163-1.3567724c0-.4520736.3164921-.6441631.7121944-.4068108l19.353468 11.1688108c.4069481.2263127.7235107.7915421.7235107 1.2436161z" fill="#4c5671"></path></g><g><path d="m41.0550728 17.4790134c.1830788.1057014.3330536.3654919.3324509.5787449-.0006065.2132549-.1515541.2964859-.3346329.1907845-.1855812-.1071434-.3355751-.3641243-.3349686-.5773773.0006027-.213255.1515694-.2992955.3371506-.1921521z" fill="#ffdd94"></path></g><g><path d="m40.0468979 16.896946c.1855888.1071491.3355751.3669434.3349686.5801983-.0006027.213253-.1515617.2964802-.3371468.1893311-.1855812-.1071434-.333065-.3626766-.3324623-.5759296.0006065-.2132551.1490631-.3007432.3346405-.1935998z" fill="#7bb1ff"></path></g><g><path d="m29.8755913 18.7363834c-.0121689 1.9333-1.3858681 2.7108936-3.0634823 1.7386055-1.6897831-.9728832-3.0513134-3.330595-3.0513134-5.263895.0121689-1.9451714 1.3858681-2.722765 3.0634823-1.7504759 1.6897068.9722891 3.0513134 3.3311873 3.0513134 5.2757654z" fill="#4c5671"></path></g><g><path d="m29.3998108 18.5230064c0 1.6305351-1.1668987 2.301796-2.5896187 1.4713058-1.422718-.8156567-2.573616-2.8138256-2.573616-4.4599724 0-1.6305361 1.1668987-2.2861853 2.5896168-1.4705267 1.4226226.8148776 2.5736179 2.8130466 2.5736179 4.4591933z" fill="#fff"></path></g><g><path d="m26.0365028 15.0506382 2.2098942 2.7174759-2.2180595.1626053z" fill="#4c5671"></path></g><g><g><path d="m42.0607338 18.0596333c.1855812.1071453.3355637.3669395.3349609.5801945-.0006065.213253-.1515617.2964802-.3371429.1893349-.1830788-.1056995-.3330727-.3626804-.3324661-.5759335.0006027-.213255.1515693-.2992955.3346481-.1935959z" fill="#ed5d71"></path></g></g></g></g><g><g><path d="m34.90485 19.0134106-.0029983 1.0576725-3.3430005-1.9300824.0029984-1.0576725z" fill="#ed5d71"></path></g><g><path d="m37.5437775 22.7879162-.0029984 1.0576725-5.9888248-3.4576492.0030002-1.0576725z" fill="#ffdd94"></path></g><g><path d="m37.0158691 26.9848137-.0030059 1.0604858-5.4747067-3.1608238.003006-1.0604858z" fill="#4c5671"></path></g><g><path d="m37.8252792 25.2013626-.0029983 1.0575161-2.7887612-1.6100941.0029984-1.0575161z" fill="#96d696"></path></g><g><path d="m42.0473022 23.1371078-.0029983 1.0576725-6.104187-3.5242538.0029983-1.0576725z" fill="#ed5d71"></path></g><g><path d="m38.7111893 18.9602375-.0029984 1.0575161-7.1424446-4.1236925.0029984-1.0575161z" fill="#7bb1ff"></path></g><g><path d="m42.0335121 27.6309853-.0029983 1.057518-3.5737343-2.0632973.0029983-1.0575161z" fill="#96d696"></path></g><g><path d="m42.0404091 25.3840466-.0029984 1.0576725-3.8621444-2.2298089.0029983-1.0576725z" fill="#ffdd94"></path></g><g><path d="m33.9982605 22.9918308-.0029984 1.0575161-2.4502029-1.4146251.0029984-1.0575161z" fill="#96d696"></path></g><g><path d="m42.026619 29.8777695-.0030098 1.0604858-4.406353-2.5440082.0030059-1.0604878z" fill="#4c5671"></path></g><g><path d="m42.0541992 20.8903255-.0029983 1.0575161-2.7386093-1.5811367.0029983-1.0575161z" fill="#7bb1ff"></path></g></g></g></svg>