<svg xmlns="http://www.w3.org/2000/svg" id="Layer_1" height="512" viewBox="0 0 512 512" width="512"><g><g><g fill="#3a4b56"><path d="m184.66 37.464h15v39.943h-15z"></path><path d="m311.713 37.464h15v39.943h-15z"></path><path d="m184.66 434.593h15v39.943h-15z"></path><path d="m311.713 434.593h15v39.943h-15z"></path><path d="m434.593 184.501h39.943v15h-39.943z"></path><path d="m434.593 311.554h39.943v15h-39.943z"></path><path d="m37.464 184.501h39.943v15h-39.943z"></path><path d="m37.464 311.554h39.943v15h-39.943z"></path></g><g fill="#66c7bf"><path d="m192.16 0c-12.412 0-22.51 10.085-22.51 22.482s10.098 22.482 22.51 22.482 22.51-10.085 22.51-22.482-10.098-22.482-22.51-22.482z"></path><path d="m319.213 0c-12.412 0-22.51 10.085-22.51 22.482s10.098 22.482 22.51 22.482 22.51-10.085 22.51-22.482-10.098-22.482-22.51-22.482z"></path><path d="m192.16 467.036c-12.412 0-22.51 10.085-22.51 22.482 0 12.396 10.098 22.482 22.51 22.482s22.51-10.085 22.51-22.482-10.098-22.482-22.51-22.482z"></path><path d="m319.213 467.036c-12.412 0-22.51 10.085-22.51 22.482 0 12.396 10.098 22.482 22.51 22.482s22.51-10.085 22.51-22.482-10.098-22.482-22.51-22.482z"></path><path d="m489.518 214.511c12.396 0 22.482-10.098 22.482-22.51s-10.086-22.51-22.482-22.51-22.481 10.098-22.481 22.51 10.084 22.51 22.481 22.51z"></path><path d="m489.518 296.544c-12.396 0-22.481 10.098-22.481 22.509 0 12.412 10.085 22.51 22.481 22.51s22.482-10.097 22.482-22.509-10.086-22.51-22.482-22.51z"></path><path d="m22.482 169.491c-12.396 0-22.482 10.098-22.482 22.51s10.086 22.51 22.482 22.51 22.481-10.098 22.481-22.51-10.084-22.51-22.481-22.51z"></path><path d="m22.482 296.544c-12.396 0-22.482 10.098-22.482 22.51s10.086 22.51 22.482 22.51 22.481-10.098 22.481-22.51c.001-12.412-10.084-22.51-22.481-22.51z"></path></g></g><path d="m443.518 93.34v328.17c0 12.92-10.51 23.43-23.43 23.43h-328.17c-12.44 0-22.65-9.74-23.39-22-.04-.47-.05-.95-.05-1.43v-328.17c0-12.92 10.52-23.43 23.44-23.43h328.17c12.92 0 23.43 10.51 23.43 23.43z" fill="#ffd469"></path><path d="m443.518 93.34v328.17c0 12.92-10.51 23.43-23.43 23.43h-328.17c-12.44 0-22.65-9.74-23.39-22h317.22c19.2 0 34.77-15.57 34.77-34.77v-294.83c0-12.94-10.49-23.43-23.43-23.43h23c12.92 0 23.43 10.51 23.43 23.43z" fill="#ffba4c"></path><path d="m353.868 177.3v160.25c0 4.14-3.36 7.5-7.5 7.5-3.57 0-6.46 2.88-6.46 6.43 0 4.14-3.36 7.5-7.5 7.5h-152.3c-4.15 0-7.5-3.36-7.5-7.5 0-3.55-2.9-6.43-6.46-6.43h-.17c-2.06.11-4.04-.63-5.53-2.05-1.5-1.41-2.32-3.38-2.32-5.44v-160.27c0-2.06.85-4.03 2.35-5.44 1.48-1.41 3.47-2.15 5.52-2.05h.15c3.56 0 6.46-2.88 6.46-6.43 0-4.14 3.35-7.5 7.5-7.5h152.3c4.14 0 7.5 3.36 7.5 7.5 0 3.55 2.89 6.43 6.46 6.43 4.14 0 7.5 3.36 7.5 7.5z" fill="#66c7bf"></path><path d="m353.868 177.3v160.25c0 4.14-3.36 7.5-7.5 7.5-3.57 0-6.46 2.88-6.46 6.43 0 4.14-3.36 7.5-7.5 7.5h-152.3c-4.15 0-7.5-3.36-7.5-7.5 0-3.55-2.9-6.43-6.46-6.43h-.17c-2.06.11-4.04-.63-5.53-2.05-1.5-1.41-2.32-3.38-2.32-5.44v-4.66h149.53c11.46 0 20.75-9.29 20.75-20.75v-143.35c0-7.14-5.79-12.93-12.94-12.93h16.94c4.14 0 7.5 3.36 7.5 7.5 0 3.55 2.89 6.43 6.46 6.43 4.14 0 7.5 3.36 7.5 7.5z" fill="#3eafa9"></path><g fill="#fff"><path d="m256 198.62h-43.931c-4.143 0-7.5 3.358-7.5 7.5v102.61c0 4.142 3.357 7.5 7.5 7.5s7.5-3.358 7.5-7.5v-43.805h28.931v43.805c0 4.142 3.357 7.5 7.5 7.5s7.5-3.358 7.5-7.5v-102.61c0-4.142-3.357-7.5-7.5-7.5zm-36.431 51.305v-36.305h28.931v36.305z"></path><path d="m299.931 198.62c-4.143 0-7.5 3.358-7.5 7.5v102.61c0 4.142 3.357 7.5 7.5 7.5s7.5-3.358 7.5-7.5v-102.61c0-4.142-3.358-7.5-7.5-7.5z"></path></g><g fill="#3a4b56"><path d="m256 0c-4.143 0-7.5 3.358-7.5 7.5v89.109c0 4.142 3.357 7.5 7.5 7.5s7.5-3.358 7.5-7.5v-89.109c0-4.142-3.357-7.5-7.5-7.5z"></path><path d="m129.893 0c-4.143 0-7.5 3.358-7.5 7.5v89.109c0 4.142 3.357 7.5 7.5 7.5s7.5-3.358 7.5-7.5v-89.109c0-4.142-3.358-7.5-7.5-7.5z"></path><path d="m382.426 0c-4.143 0-7.5 3.358-7.5 7.5v89.109c0 4.142 3.357 7.5 7.5 7.5s7.5-3.358 7.5-7.5v-89.109c0-4.142-3.358-7.5-7.5-7.5z"></path><path d="m256 407.891c-4.143 0-7.5 3.358-7.5 7.5v89.109c0 4.142 3.357 7.5 7.5 7.5s7.5-3.358 7.5-7.5v-89.109c0-4.142-3.357-7.5-7.5-7.5z"></path><path d="m129.893 407.891c-4.143 0-7.5 3.358-7.5 7.5v89.109c0 4.142 3.357 7.5 7.5 7.5s7.5-3.358 7.5-7.5v-89.109c0-4.142-3.358-7.5-7.5-7.5z"></path><path d="m382.426 407.891c-4.143 0-7.5 3.358-7.5 7.5v89.109c0 4.142 3.357 7.5 7.5 7.5s7.5-3.358 7.5-7.5v-89.109c0-4.142-3.358-7.5-7.5-7.5z"></path><path d="m504.5 248.341h-89.109c-4.143 0-7.5 3.358-7.5 7.5s3.357 7.5 7.5 7.5h89.109c4.143 0 7.5-3.358 7.5-7.5s-3.357-7.5-7.5-7.5z"></path><path d="m96.609 248.341h-89.109c-4.143 0-7.5 3.358-7.5 7.5s3.357 7.5 7.5 7.5h89.109c4.143 0 7.5-3.358 7.5-7.5s-3.357-7.5-7.5-7.5z"></path></g><g><g fill="#f76ba0"><path d="m256 89.109c-12.412 0-22.51 10.085-22.51 22.482s10.098 22.482 22.51 22.482 22.51-10.085 22.51-22.482-10.098-22.482-22.51-22.482z"></path><path d="m129.893 89.109c-12.412 0-22.51 10.085-22.51 22.482s10.098 22.482 22.51 22.482c12.411 0 22.509-10.085 22.509-22.482-.001-12.397-10.098-22.482-22.509-22.482z"></path><path d="m382.426 134.073c12.412 0 22.51-10.085 22.51-22.482 0-12.396-10.098-22.482-22.51-22.482-12.411 0-22.509 10.085-22.509 22.482s10.098 22.482 22.509 22.482z"></path><path d="m256 377.927c-12.412 0-22.51 10.085-22.51 22.482 0 12.396 10.098 22.482 22.51 22.482s22.51-10.085 22.51-22.482-10.098-22.482-22.51-22.482z"></path><path d="m129.893 377.927c-12.412 0-22.51 10.085-22.51 22.482 0 12.396 10.098 22.482 22.51 22.482 12.411 0 22.509-10.085 22.509-22.482-.001-12.397-10.098-22.482-22.509-22.482z"></path><path d="m382.426 377.927c-12.411 0-22.509 10.085-22.509 22.482 0 12.396 10.098 22.482 22.509 22.482 12.412 0 22.51-10.085 22.51-22.482s-10.098-22.482-22.51-22.482z"></path><path d="m400.409 233.331c-12.396 0-22.482 10.098-22.482 22.51s10.086 22.51 22.482 22.51 22.481-10.098 22.481-22.51-10.084-22.51-22.481-22.51z"></path><path d="m134.073 255.841c0-12.412-10.086-22.51-22.482-22.51s-22.481 10.098-22.481 22.51 10.085 22.51 22.481 22.51 22.482-10.098 22.482-22.51z"></path></g></g></g></svg>