<svg xmlns="http://www.w3.org/2000/svg" height="512pt" viewBox="0 -36 512 512" width="512pt"><path d="m231 360h50v40h-50zm0 0" fill="#8296aa"></path><path d="m206 280h100v40h-100zm0 0" fill="#ee3c32"></path><path d="m397 360h50v40h-50zm0 0" fill="#8296aa"></path><path d="m372 280h100v40h-100zm0 0" fill="#32beb4"></path><path d="m65 360h50v40h-50zm0 0" fill="#8296aa"></path><path d="m40 280h100v40h-100zm0 0" fill="#4696e6"></path><path d="m10 180h492v40h-492zm0 0" fill="#fad79b"></path><path d="m188 50h136v90h-136zm0 0" fill="#c8e7f9"></path><path d="m364 50h138v90h-138zm0 0" fill="#c8e7f9"></path><path d="m10 50h138v90h-138zm0 0" fill="#c8e7f9"></path><g fill="#8296aa"><path d="m256 110c-22.089844 0-40 17.910156-40 40v90h80v-90c0-22.089844-17.910156-40-40-40zm0 0"></path><path d="m422 110c-22.089844 0-40 17.910156-40 40v90h80v-90c0-22.089844-17.910156-40-40-40zm0 0"></path><path d="m90 110c-22.089844 0-40 17.910156-40 40v90h80v-90c0-22.089844-17.910156-40-40-40zm0 0"></path><path d="m276 30c0-11.046875-8.953125-20-20-20s-20 8.953125-20 20v20h40zm0 0"></path></g><path d="m256 150c-5.511719 0-10 4.488281-10 10s4.488281 10 10 10 10-4.488281 10-10-4.488281-10-10-10zm0 0"></path><path d="m422 150c-5.519531 0-10 4.488281-10 10s4.480469 10 10 10c5.511719 0 10-4.488281 10-10s-4.488281-10-10-10zm0 0"></path><path d="m90 150c-5.511719 0-10 4.488281-10 10s4.488281 10 10 10 10-4.488281 10-10-4.488281-10-10-10zm0 0"></path><path d="m502 150c5.523438 0 10-4.476562 10-10v-90c0-5.523438-4.476562-10-10-10h-138c-5.523438 0-10 4.476562-10 10v90c0 5.523438 4.476562 10 10 10h8v20h-66v-20h18c5.523438 0 10-4.476562 10-10v-90c0-5.523438-4.476562-10-10-10h-38v-10c0-16.542969-13.457031-30-30-30s-30 13.457031-30 30v10h-38c-5.523438 0-10 4.476562-10 10v90c0 5.523438 4.476562 10 10 10h18v20h-66v-20h8c5.523438 0 10-4.476562 10-10v-90c0-5.523438-4.476562-10-10-10h-138c-5.523438 0-10 4.476562-10 10v90c0 5.523438 4.476562 10 10 10h30v20h-30c-5.523438 0-10 4.476562-10 10v40c0 5.523438 4.476562 10 10 10h30v10c0 5.523438 4.476562 10 10 10h30v20h-40c-5.523438 0-10 4.476562-10 10v40c0 5.523438 4.476562 10 10 10h40v20h-15c-5.523438 0-10 4.476562-10 10v30h-5c-5.523438 0-10 4.476562-10 10v30c0 5.523438 4.476562 10 10 10s10-4.476562 10-10v-20h20v20c0 5.523438 4.476562 10 10 10s10-4.476562 10-10v-20h20v20c0 5.523438 4.476562 10 10 10s10-4.476562 10-10v-30c0-5.523438-4.476562-10-10-10h-5v-30c0-5.523438-4.476562-10-10-10h-15v-20h40c5.523438 0 10-4.476562 10-10v-40c0-5.523438-4.476562-10-10-10h-40v-20h30c5.523438 0 10-4.476562 10-10v-10h66v10c0 5.523438 4.476562 10 10 10h30v20h-40c-5.523438 0-10 4.476562-10 10v40c0 5.523438 4.476562 10 10 10h40v20h-15c-5.523438 0-10 4.476562-10 10v30h-5c-5.523438 0-10 4.476562-10 10v30c0 5.523438 4.476562 10 10 10s10-4.476562 10-10v-20h20v20c0 5.523438 4.476562 10 10 10s10-4.476562 10-10v-20h20v20c0 5.523438 4.476562 10 10 10s10-4.476562 10-10v-30c0-5.523438-4.476562-10-10-10h-5v-30c0-5.523438-4.476562-10-10-10h-15v-20h40c5.523438 0 10-4.476562 10-10v-40c0-5.523438-4.476562-10-10-10h-40v-20h30c5.523438 0 10-4.476562 10-10v-10h66v10c0 5.523438 4.476562 10 10 10h30v20h-40c-5.523438 0-10 4.476562-10 10v40c0 5.523438 4.476562 10 10 10h40v20h-15c-5.523438 0-10 4.476562-10 10v30h-5c-5.523438 0-10 4.476562-10 10v30c0 5.523438 4.476562 10 10 10s10-4.476562 10-10v-20h20v20c0 5.523438 4.476562 10 10 10s10-4.476562 10-10v-20h20v20c0 5.523438 4.476562 10 10 10s10-4.476562 10-10v-30c0-5.523438-4.476562-10-10-10h-5v-30c0-5.523438-4.476562-10-10-10h-15v-20h40c5.523438 0 10-4.476562 10-10v-40c0-5.523438-4.476562-10-10-10h-40v-20h30c5.523438 0 10-4.476562 10-10v-10h30c5.523438 0 10-4.476562 10-10v-40c0-5.523438-4.476562-10-10-10h-30v-20zm-482 60v-20h20v20zm85 160v20h-30v-20zm25-80v20h-80v-20zm-10-60h-20v-30c0-5.511719-4.488281-10-10-10s-10 4.488281-10 10v30h-20v-80c0-16.542969 13.457031-30 30-30s30 13.457031 30 30zm18-100h-2.1875c-7.730469-17.640625-25.351562-30-45.8125-30s-38.082031 12.359375-45.8125 30h-24.1875v-70h118zm68 80h-66v-20h66zm40-180c0-5.515625 4.484375-10 10-10s10 4.484375 10 10v10h-20zm25 340v20h-30v-20zm25-80v20h-80v-20zm-10-60h-20v-30c0-5.511719-4.488281-10-10-10s-10 4.488281-10 10v30h-20v-80c0-16.542969 13.457031-30 30-30s30 13.457031 30 30zm15.8125-100c-7.730469-17.640625-25.351562-30-45.8125-30s-38.082031 12.359375-45.8125 30h-12.1875v-70h116v70zm70.1875 80h-66v-20h66zm65 160v20h-30v-20zm25-80v20h-80v-20zm-10-60h-20v-30c0-5.511719-4.488281-10-10-10-5.519531 0-10 4.488281-10 10v30h-20v-80c0-16.542969 13.457031-30 30-30s30 13.457031 30 30zm40-40v20h-20v-20zm-24.1875-60c-7.730469-17.640625-25.351562-30-45.8125-30s-38.082031 12.359375-45.8125 30h-2.1875v-70h118v70zm0 0"></path></svg>