<svg xmlns="http://www.w3.org/2000/svg" id="Capa_1" height="512" viewBox="0 0 472 472" width="512"><g><g><path d="m110 235.52s54 91 126 91l22-92-22-90c-72 0-126 91-126 91z" fill="#dff1fa"></path><path d="m236 144.52v182c72 0 126-91 126-91s-54-91-126-91z" fill="#b2def5"></path></g><g><path d="m191 235.52c0 24.813 20.187 45 45 45l17-44-17-46c-24.813 0-45 20.187-45 45z" fill="#264497"></path><path d="m236 190.52v90c24.813 0 45-20.187 45-45s-20.187-45-45-45z" fill="#182958"></path></g><g><path d="m221 1.52h30v54h-30z" fill="#ff7037"></path></g><g><path d="m221 417.52h30v54h-30z" fill="#ff7037"></path></g><g><path d="m236 1.52h15v54h-15z" fill="#ff415b"></path></g><g><path d="m236 417.52h15v54h-15z" fill="#ff415b"></path></g><path d="m417 221.52h54v30h-54z" fill="#ff415b"></path><g><path d="m1 221.52h54v30h-54z" fill="#ff7037"></path></g><g><path d="m30 114.52h-30v-114.04h115v30h-85z" fill="#264497"></path></g><g><path d="m115 470.56h-115v-114.04h30v84.04h85z" fill="#264497"></path></g><g><path d="m472 114.52h-30v-84.04h-85v-30h115z" fill="#182958"></path></g><g><path d="m472 470.56h-115v-30h85v-84.04h30z" fill="#182958"></path></g></g></svg>