<svg xmlns="http://www.w3.org/2000/svg" id="Layer_1" height="512" viewBox="0 0 58 58" width="512"><path d="m34.998 48h-12c-.553 0-1 .448-1 1v4c0 .552.447 1 1 1h12c.553 0 1-.448 1-1v-4c0-.552-.448-1-1-1z" fill="#006ef5"></path><path d="m34.998 52h-12c-2.757 0-5 2.243-5 5 0 .552.447 1 1 1h20c.553 0 1-.448 1-1 0-2.757-2.244-5-5-5z" fill="#08f"></path><path d="m41.998 58h-26c-.553 0-1-.448-1-1s.447-1 1-1h26c.553 0 1 .448 1 1s-.448 1-1 1z" fill="#57555c"></path><path d="m48.002 16h-38c-2.757 0-5 2.243-5 5v8.506c-.002-.001-.003-.002-.005-.003v15.497c0 2.757 2.243 5 5 5h38.005c2.757 0 5-2.243 5-5v-4-20c0-2.757-2.243-5-5-5z" fill="#fafbfb"></path><path d="m48.002 16h-38c-2.757 0-5 2.243-5 5v8.506c-.002-.001-.003-.002-.005-.003v15.497c0 2.757 2.243 5 5 5h38.005c2.757 0 5-2.243 5-5v-4-20c0-2.757-2.243-5-5-5zm-41 5c0-1.654 1.346-3 3-3h38c1.654 0 3 1.346 3 3v8.872c-.002 0-.003-.001-.005-.002v10.13h-43.995z" fill="#08f"></path><path d="m48.019 7.456c-5.189-4.808-11.944-7.456-19.021-7.456s-13.832 2.648-19.02 7.455c-.398.367-.632.888-.643 1.429s.203 1.071.585 1.453l2.829 2.829c.39.39.901.587 1.414.587.482 0 .965-.174 1.349-.525 3.691-3.371 8.48-5.228 13.486-5.228 5.005 0 9.794 1.857 13.485 5.229.791.722 2.004.696 2.763-.062l2.827-2.828c.383-.381.597-.911.587-1.456-.012-.541-.245-1.061-.641-1.427z" fill="#ff9a00"></path><path d="m28.998 10c-4.391 0-8.62 1.599-11.907 4.502-.412.364-.659.887-.676 1.437-.018.55.196 1.088.585 1.478l2.834 2.834c.729.729 1.917.777 2.706.112 1.8-1.523 4.093-2.362 6.475-2.362 2.363.008 4.651.847 6.442 2.362.378.319.836.478 1.293.478.512 0 1.021-.198 1.412-.59l2.834-2.834c.389-.389.602-.927.584-1.478-.017-.549-.263-1.073-.675-1.436-3.287-2.904-7.516-4.503-11.907-4.503z" fill="#ffb74f"></path><circle cx="28.998" cy="28" fill="#ffdba9" r="8"></circle><path d="m30.412 28 1.293-1.293c.391-.391.391-1.023 0-1.414s-1.023-.391-1.414 0l-1.293 1.293-1.293-1.293c-.391-.391-1.023-.391-1.414 0s-.391 1.023 0 1.414l1.292 1.293-1.293 1.293c-.391.391-.391 1.023 0 1.414.196.195.452.293.708.293s.512-.098.707-.293l1.293-1.293 1.293 1.293c.195.195.451.293.707.293s.512-.098.707-.293c.391-.391.391-1.023 0-1.414z" fill="#ff3c62"></path><circle cx="45.998" cy="45" fill="#b1dcff" r="1"></circle></svg>