<svg xmlns="http://www.w3.org/2000/svg" id="Capa_1" height="512" viewBox="0 0 512 512" width="512"><g><path d="m188.406 94.683v168.986c0 2.458 1.992 4.45 4.45 4.45h264.518c2.458 0 4.45-1.992 4.45-4.45v-168.986c0-2.458-1.992-4.45-4.45-4.45h-264.518c-2.458.001-4.45 1.993-4.45 4.45z" fill="#80b6fc"></path><path d="m457.374 90.234h-28.764c2.458 0 4.45 1.992 4.45 4.45v168.986c0 2.457-1.992 4.45-4.449 4.45h28.764c2.457 0 4.45-1.992 4.45-4.45v-168.987c-.002-2.457-1.994-4.449-4.451-4.449z" fill="#62a4fb"></path><path d="m188.406 263.493v85.176c0 2.457 1.992 4.45 4.45 4.45h264.518c2.458 0 4.45-1.992 4.45-4.45v-85.176z" fill="#d8e2f3"></path><path d="m433.059 348.669c0 2.457-1.992 4.449-4.449 4.45h28.764c2.458 0 4.45-1.992 4.45-4.45v-85.176h-28.764v85.176z" fill="#bed9fd"></path><path d="m234.826 153.638h-83.052c-8.678 0-15.713-7.035-15.713-15.713v-36.485c0-8.678 7.035-15.713 15.713-15.713h83.052c8.678 0 15.713 7.035 15.713 15.713v36.485c-.001 8.679-7.036 15.713-15.713 15.713z" fill="#d8e2f3"></path><g fill="#365f7e"><path d="m179.022 121.332c2.745-1.066 4.118-3.37 4.118-6.909 0-4.855-2.791-7.283-8.372-7.283h-7.045c-.477 0-.868.158-1.175.477-.306.317-.459.692-.459 1.123v21.646c0 1.196 1.468 1.634 2.654 1.634 1.192 0 2.655-.442 2.655-1.634v-8.202h2.246l4.662 9.053c.752 1.455 2.692 1.153 3.966.103.714-.59 1.071-1.214 1.071-1.872 0-.249-.057-.453-.17-.612zm-1.974-3.966c-.522.488-1.282.732-2.28.732h-3.369v-6.331h3.369c.998 0 1.758.244 2.28.732.521.488.782 1.299.782 2.434s-.26 1.946-.782 2.433z"></path><path d="m200.396 111.767c1.125 0 1.6-1.232 1.6-2.348 0-1.069-.452-2.28-1.6-2.28h-12.116c-.636 0-1.181.142-1.634.425-.454.284-.681.687-.681 1.208v21.612c0 .522.227.925.681 1.208.453.284.998.426 1.634.426h12.116c.521 0 .919-.227 1.191-.681.271-.454.408-.987.408-1.6 0-.658-.143-1.214-.426-1.668-.284-.453-.675-.681-1.174-.681h-9.121v-5.786h5.104c1.092 0 1.6-1.032 1.6-2.008 0-1.053-.535-2.076-1.6-2.076h-5.104v-5.752h9.122z"></path><path d="m212.171 111.767c1.951 0 2.961 1.021 3.029 3.063.068 1.066.953 1.6 2.655 1.6.952 0 1.633-.176 2.042-.527.408-.352.612-1.016.612-1.991 0-2.11-.8-3.766-2.399-4.969-1.6-1.202-3.647-1.804-6.144-1.804-2.428 0-4.396.646-5.904 1.939-1.51 1.294-2.264 3.324-2.264 6.093v9.019c0 2.769.754 4.799 2.264 6.093 1.508 1.293 3.477 1.939 5.904 1.939 2.496 0 4.544-.635 6.144-1.906s2.399-3.006 2.399-5.207c0-.976-.204-1.639-.612-1.991-.409-.352-1.102-.527-2.076-.527-1.657 0-2.53.533-2.621 1.6-.046.477-.097.851-.153 1.123-.169.813-.512 1.611-1.259 1.975-.42.204-.948.306-1.583.306-2.064 0-3.097-1.134-3.097-3.403v-9.019c.001-2.271 1.021-3.406 3.063-3.406z"></path></g><path d="m107.49 242.015h-33.497c-19.654 0-35.587 15.933-35.587 35.587v38.232c0 13.424 7.38 25.117 18.3 31.264v61.935h46.234v-57.338h4.276c19.805 0 35.861-16.055 35.861-35.861v-38.232c0-19.654-15.933-35.587-35.587-35.587z" fill="#ffcdbe"></path><path d="m107.49 242.015h-23.504c19.654 0 35.587 15.933 35.587 35.587v38.232c0 19.806-16.055 35.861-35.861 35.861h-4.276v57.338h23.504v-57.338h4.276c19.805 0 35.861-16.055 35.861-35.861v-38.232c0-19.655-15.933-35.587-35.587-35.587z" fill="#ebae9d"></path><path d="m96.808 387.945h-33.97c-34.158 0-61.849 27.691-61.849 61.849v58.206c0 2.209 1.791 4 4 4h149.667c2.209 0 4-1.791 4-4v-58.206c.001-34.158-27.69-61.849-61.848-61.849z" fill="#df646e"></path><path d="m96.808 387.945h-29.856c34.158 0 61.849 27.69 61.849 61.848v62.207h25.857c2.209 0 4-1.791 4-4v-58.206c-.001-34.158-27.692-61.849-61.85-61.849z" fill="#dc4955"></path><path d="m42.005 328.072h38.077c9.123 0 16.519-7.396 16.519-16.519v-26.535c0-4.293 3.48-7.774 7.774-7.774h35.833c8.984 0 16.267-7.283 16.267-16.267v-46.848c0-4.395-3.563-7.958-7.958-7.958h-46.591c-7.244 0-14.278 2.439-19.967 6.924l-1.558 1.229c-5.689 4.485-12.722 6.924-19.967 6.924h-4.804c-14.722 0-26.656 11.934-26.656 26.656v67.138c0 7.196 5.834 13.03 13.031 13.03z" fill="#785252"></path><path d="m148.517 206.171h-23.504c4.395 0 7.958 3.563 7.958 7.958v46.848c0 8.984-7.283 16.267-16.267 16.267h23.504c8.984 0 16.267-7.283 16.267-16.267v-46.848c0-4.396-3.563-7.958-7.958-7.958z" fill="#664646"></path><path d="m501.452 31.617h-103.122c-5.279 0-9.558 4.279-9.558 9.558v102.281c0 4.625 5.448 7.097 8.929 4.052l28.948-25.33c1.742-1.525 3.979-2.365 6.294-2.365h68.509c5.279 0 9.558-4.279 9.558-9.558v-69.08c0-5.279-4.279-9.558-9.558-9.558z" fill="#ddebfd"></path><path d="m501.452 100.847h-68.509c-2.315 0-4.552.84-6.294 2.365l-28.948 25.329c-3.481 3.046-8.929.574-8.929-4.052v18.966c0 4.625 5.448 7.097 8.929 4.052l28.948-25.33c1.742-1.524 3.979-2.365 6.294-2.365h68.509c5.279 0 9.558-4.279 9.558-9.558v-18.965c0 5.279-4.279 9.558-9.558 9.558z" fill="#bed9fd"></path><path d="m475.299 69.891h-50.816c-4.142 0-7.5-3.357-7.5-7.5s3.358-7.5 7.5-7.5h50.816c4.142 0 7.5 3.357 7.5 7.5s-3.358 7.5-7.5 7.5z" fill="#80b6fc"></path><path d="m449.891 96.54h-25.408c-4.142 0-7.5-3.357-7.5-7.5s3.358-7.5 7.5-7.5h25.408c4.142 0 7.5 3.357 7.5 7.5s-3.358 7.5-7.5 7.5z" fill="#80b6fc"></path><path d="m306.515 150.973v51.78c0 3.401 3.731 5.485 6.626 3.7l42.018-25.89c2.755-1.698 2.755-5.703 0-7.401l-42.018-25.89c-2.895-1.783-6.626.3-6.626 3.701z" fill="#df646e"></path><path d="m145.397 4.747v46.402c0 2.622 2.125 4.747 4.747 4.747h51.282c2.622 0 4.747-2.125 4.747-4.747v-46.402c0-2.622-2.125-4.747-4.747-4.747h-51.282c-2.622 0-4.747 2.125-4.747 4.747z" fill="#365f7e"></path><path d="m241.203 8.956v37.984c0 2.504-2.456 4.27-4.829 3.473l-30.2-10.138v-24.654l30.2-10.138c2.373-.797 4.829.97 4.829 3.473z" fill="#4980ac"></path><path d="m418.513 314.388h-186.797c-4.142 0-7.5-3.357-7.5-7.5s3.358-7.5 7.5-7.5h186.797c4.142 0 7.5 3.357 7.5 7.5s-3.358 7.5-7.5 7.5z" fill="#80b6fc"></path><path d="m262.767 290.388c-9.113 0-16.5 7.387-16.5 16.5s7.387 16.5 16.5 16.5 16.5-7.387 16.5-16.5-7.388-16.5-16.5-16.5z" fill="#407194"></path></g></svg>