<svg xmlns="http://www.w3.org/2000/svg" xmlns:xlink="http://www.w3.org/1999/xlink" id="Capa_1" x="0px" y="0px" viewBox="0 0 512 512" style="enable-background:new 0 0 512 512;" xml:space="preserve" width="512" height="512">
<g>
	<path style="fill:#FFD659;" d="M257.467,450.727c-0.941,0.364-1.993,0.364-2.934,0c-49.016-18.981-90.499-48.006-123.42-86.371   C107.181,336.457,94,299.505,94,260.31v-139.19c0-1.895,1.224-3.511,2.918-3.888c31.061-6.909,60.305-20.519,85.718-35.839   c45.106-27.192,101.623-27.192,146.729,0c25.413,15.32,54.657,28.93,85.717,35.839c1.693,0.377,2.918,1.993,2.918,3.888v139.19   c0,39.195-13.181,76.147-37.116,104.049C347.968,402.718,306.479,431.745,257.467,450.727z"></path>
	<g>
		<path style="fill:#FFBD54;" d="M415.082,117.233c-9.206-2.048-18.248-4.696-27.082-7.792v145.95    c0,41.439-13.181,80.507-37.116,110.007c-28.384,34.971-63.147,62.598-103.607,82.413c2.402,0.994,4.817,1.971,7.256,2.915    c0.941,0.364,1.993,0.364,2.934,0c49.012-18.982,90.501-48.008,123.417-86.367C404.819,336.457,418,299.505,418,260.31V121.12    C418,119.226,416.776,117.609,415.082,117.233z"></path>
	</g>
	<path style="fill:#4FB1F5;" d="M257.201,418.431c-0.764,0.329-1.638,0.329-2.402,0c-39.762-17.128-73.667-41.851-100.918-73.611   C134.613,322.358,124,292.344,124,260.311V143.963c0-1.742,1.128-3.271,2.787-3.804c23.431-7.526,47.334-18.601,71.337-33.072   C215.581,96.563,235.595,91,256,91c20.406,0,40.42,5.563,57.877,16.086c24.004,14.47,47.907,25.546,71.337,33.072   c1.659,0.533,2.787,2.062,2.787,3.804v116.348c0,32.034-10.614,62.049-29.887,84.517   C330.865,376.582,296.955,401.307,257.201,418.431z"></path>
	<path style="fill:#46A4E6;" d="M385.214,140.159c-9.008-2.893-18.087-6.317-27.214-10.251v121.479   c0,35.415-10.614,68.599-29.887,93.439c-22.41,28.873-49.334,52.476-80.301,70.484c2.31,1.066,4.636,2.109,6.987,3.122   c0.764,0.329,1.638,0.329,2.402,0c39.754-17.124,73.664-41.849,100.912-73.604C377.386,322.359,388,292.344,388,260.311V143.963   C388,142.221,386.872,140.691,385.214,140.159z"></path>
	<path style="fill:#FF2C5C;" d="M296,313h-80c-5.523,0-10-4.477-10-10v-60c0-5.523,4.477-10,10-10h80c5.523,0,10,4.477,10,10v60   C306,308.523,301.523,313,296,313z"></path>
	<path style="fill:#E62753;" d="M296,233h-30c5.523,0,10,4.477,10,10v60c0,5.523-4.477,10-10,10h30c5.523,0,10-4.477,10-10v-60   C306,237.477,301.523,233,296,233z"></path>
	<circle style="fill:#FF2C5C;" cx="177" cy="489.5" r="15"></circle>
	<circle style="fill:#FF2C5C;" cx="367" cy="22.5" r="15"></circle>
	<circle style="fill:#FF2C5C;" cx="22.5" cy="174" r="15"></circle>
	<circle style="fill:#FF2C5C;" cx="45.75" cy="232" r="15"></circle>
	<circle style="fill:#FF2C5C;" cx="489.5" cy="240" r="15"></circle>
	<circle style="fill:#FF2C5C;" cx="466.25" cy="298" r="15"></circle>
	<circle style="fill:#685C79;" cx="256" cy="265.5" r="15"></circle>
	<g>
		<path d="M489.5,217.5c-9.777,0-18.114,6.271-21.21,15H425.5v-8.75c0-4.142-3.357-7.5-7.5-7.5s-7.5,3.358-7.5,7.5v36.561    c0,37.404-12.54,72.622-35.308,99.165c-31.801,37.06-71.895,65.238-119.192,83.774c-42.285-16.57-78.923-40.924-108.907-72.4    c-2.858-2.999-7.605-3.114-10.604-0.257c-2.999,2.857-3.114,7.604-0.258,10.604c10.349,10.863,21.459,20.902,33.269,30.122v56.973    c-8.729,3.096-15,11.432-15,21.21c0,12.407,10.094,22.5,22.5,22.5s22.5-10.093,22.5-22.5c0-9.777-6.271-18.114-15-21.21v-45.983    c20.583,14.164,43.068,26.02,67.321,35.412c1.348,0.522,2.764,0.784,4.18,0.784c1.415,0,2.829-0.261,4.175-0.783    c50.166-19.429,92.693-49.196,126.4-88.478c15.594-18.179,26.831-39.997,33.11-63.743h25.354c3.096,8.729,11.433,15,21.21,15    c12.406,0,22.5-10.093,22.5-22.5s-10.094-22.5-22.5-22.5c-9.777,0-18.114,6.271-21.21,15h-22.091    c1.687-9.845,2.551-19.946,2.551-30.189V247.5h42.79c3.096,8.729,11.433,15,21.21,15c12.406,0,22.5-10.093,22.5-22.5    S501.906,217.5,489.5,217.5z M177,497c-4.136,0-7.5-3.364-7.5-7.5s3.364-7.5,7.5-7.5s7.5,3.364,7.5,7.5S181.136,497,177,497z     M466.25,290.5c4.136,0,7.5,3.364,7.5,7.5s-3.364,7.5-7.5,7.5s-7.5-3.364-7.5-7.5S462.114,290.5,466.25,290.5z M489.5,247.5    c-4.136,0-7.5-3.364-7.5-7.5s3.364-7.5,7.5-7.5s7.5,3.364,7.5,7.5S493.636,247.5,489.5,247.5z"></path>
		<path d="M101.5,260.311V123.876c27.51-6.505,56.092-18.627,85.008-36.059c42.864-25.84,96.119-25.841,138.985,0    c12.864,7.755,25.662,14.453,38.329,20.079c0.141,0.066,0.284,0.13,0.429,0.187c15.658,6.926,31.116,12.214,46.248,15.793v67.79    c0,4.142,3.357,7.5,7.5,7.5s7.5-3.358,7.5-7.5v-70.546c0-5.362-3.697-10.077-8.789-11.209    c-13.774-3.064-27.881-7.664-42.211-13.735V43.71c8.729-3.096,15-11.432,15-21.21C389.5,10.093,379.406,0,367,0    s-22.5,10.093-22.5,22.5c0,9.777,6.271,18.114,15,21.21v45.617c-8.694-4.261-17.455-9.047-26.263-14.356    c-47.642-28.72-106.834-28.719-154.474,0c-28.561,17.217-56.646,28.973-83.474,34.941c-5.093,1.132-8.79,5.847-8.79,11.209V166.5    H43.71c-3.096-8.729-11.433-15-21.21-15C10.094,151.5,0,161.593,0,174s10.094,22.5,22.5,22.5c9.777,0,18.114-6.271,21.21-15H86.5    v43H66.96c-3.096-8.729-11.433-15-21.21-15c-12.406,0-22.5,10.093-22.5,22.5s10.094,22.5,22.5,22.5c9.777,0,18.114-6.271,21.21-15    H86.5v20.811c0,35.948,10.381,69.662,30.02,97.496c1.461,2.071,3.779,3.177,6.135,3.177c1.494,0,3.003-0.445,4.317-1.372    c3.384-2.388,4.192-7.068,1.804-10.452C110.932,323.869,101.5,293.146,101.5,260.311z M367,15c4.136,0,7.5,3.364,7.5,7.5    S371.136,30,367,30s-7.5-3.364-7.5-7.5S362.864,15,367,15z M22.5,181.5c-4.136,0-7.5-3.364-7.5-7.5s3.364-7.5,7.5-7.5    s7.5,3.364,7.5,7.5S26.636,181.5,22.5,181.5z M45.75,239.5c-4.136,0-7.5-3.364-7.5-7.5s3.364-7.5,7.5-7.5s7.5,3.364,7.5,7.5    S49.886,239.5,45.75,239.5z"></path>
		<path d="M173.491,129.152c3.713-1.836,5.233-6.334,3.397-10.047c-1.836-3.712-6.333-5.233-10.048-3.398    c-14.194,7.02-28.442,12.844-42.349,17.311c-4.78,1.536-7.992,5.934-7.992,10.945v116.348c0,33.824,11.254,65.571,31.688,89.393    c27.972,32.599,62.842,58.04,103.646,75.617c1.323,0.569,2.744,0.854,4.165,0.854c1.422,0,2.844-0.285,4.169-0.855    c40.799-17.575,75.668-43.013,103.638-75.609c20.438-23.827,31.694-55.576,31.694-89.399V143.963    c0-5.011-3.212-9.409-7.992-10.945c-22.85-7.339-46.32-18.226-69.759-32.355C299.124,89.435,277.771,83.5,256,83.5    c-21.771,0-43.123,5.935-61.751,17.165l-1.595,0.957c-3.558,2.121-4.723,6.725-2.601,10.283c2.121,3.558,6.723,4.722,10.282,2.601    c0.555-0.331,1.108-0.663,1.66-0.996C218.284,103.69,236.959,98.5,256,98.5c19.042,0,37.717,5.19,54.005,15.01    c23.609,14.232,47.312,25.327,70.495,33v113.8c0,30.243-9.972,58.524-28.078,79.633c-26.066,30.376-58.501,54.201-96.422,70.832    c-37.925-16.633-70.36-40.459-96.427-70.839c-18.104-21.104-28.073-49.383-28.073-79.626v-113.8    C145.338,141.929,159.453,136.095,173.491,129.152z"></path>
		<path d="M256,175.5c-20.678,0-37.5,16.822-37.5,37.5v12.5H216c-9.649,0-17.5,7.851-17.5,17.5v60c0,9.649,7.851,17.5,17.5,17.5h80    c9.649,0,17.5-7.851,17.5-17.5v-60c0-9.649-7.851-17.5-17.5-17.5h-2.5V213C293.5,192.322,276.678,175.5,256,175.5z M233.5,213    c0-12.407,10.094-22.5,22.5-22.5s22.5,10.093,22.5,22.5v12.5h-45V213z M298.5,243v60c0,1.378-1.121,2.5-2.5,2.5h-80    c-1.379,0-2.5-1.122-2.5-2.5v-60c0-1.378,1.121-2.5,2.5-2.5h80C297.379,240.5,298.5,241.622,298.5,243z"></path>
		<path d="M256,243c-12.406,0-22.5,10.093-22.5,22.5c0,9.777,6.271,18.114,15,21.21v8.79c0,4.142,3.357,7.5,7.5,7.5    s7.5-3.358,7.5-7.5v-8.79c8.729-3.096,15-11.432,15-21.21C278.5,253.093,268.406,243,256,243z M256,273    c-4.136,0-7.5-3.364-7.5-7.5s3.364-7.5,7.5-7.5s7.5,3.364,7.5,7.5S260.136,273,256,273z"></path>
	</g>
</g>















</svg>