<svg xmlns="http://www.w3.org/2000/svg" xmlns:xlink="http://www.w3.org/1999/xlink" id="Layer_1" x="0px" y="0px" viewBox="0 0 512 512" style="enable-background:new 0 0 512 512;" xml:space="preserve">
<path style="fill:#D5DCED;" d="M210.286,292.571v45.714c0,25.247,65.495,45.714,146.286,45.714s146.286-20.467,146.286-45.714  v-45.714H210.286z"></path>
<g>
	<path style="fill:#E4EAF8;" d="M411.419,366.965c-4.536,0-8.473-3.37-9.063-7.991c-0.634-5.009,2.911-9.585,7.92-10.223   c23.893-3.035,44.366-8.072,59.206-14.558c4.651-2.009,10.026,0.098,12.035,4.719c2.026,4.625-0.089,10.018-4.714,12.04   c-16.419,7.174-38.625,12.688-64.223,15.942C412.187,366.942,411.803,366.965,411.419,366.965z"></path>
	<ellipse style="fill:#E4EAF8;" cx="356.571" cy="292.571" rx="146.286" ry="45.714"></ellipse>
</g>
<path style="fill:#C7CFE2;" d="M210.286,292.571v45.714c0,20.152,41.786,37.211,99.719,43.29c5.354,0.562,9.995-3.723,9.995-9.107  v-27.35c0-4.721-3.624-8.611-8.321-9.086C252.879,330.11,210.286,312.917,210.286,292.571z"></path>
<path style="fill:#FFC850;" d="M228.571,246.857v36.571c0,20.198,57.307,36.571,128,36.571s128-16.374,128-36.571v-36.571H228.571z"></path>
<path style="fill:#D5DCED;" d="M210.286,210.286V256c0,25.247,65.495,45.714,146.286,45.714S502.857,281.247,502.857,256v-45.714  H210.286z"></path>
<g>
	<path style="fill:#E4EAF8;" d="M411.419,284.679c-4.536,0-8.473-3.37-9.063-7.991c-0.634-5.009,2.911-9.585,7.92-10.223   c23.893-3.035,44.366-8.072,59.206-14.558c4.651-2.009,10.026,0.098,12.035,4.719c2.026,4.625-0.089,10.018-4.714,12.04   c-16.419,7.174-38.625,12.688-64.223,15.942C412.187,284.656,411.803,284.679,411.419,284.679z"></path>
	<ellipse style="fill:#E4EAF8;" cx="356.571" cy="210.286" rx="146.286" ry="45.714"></ellipse>
</g>
<path style="fill:#C7CFE2;" d="M210.286,210.286V256c0,20.152,41.786,37.211,99.719,43.29c5.354,0.562,9.995-3.723,9.995-9.107  v-27.35c0-4.721-3.624-8.611-8.321-9.086C252.879,247.824,210.286,230.631,210.286,210.286z"></path>
<path style="fill:#FFC850;" d="M228.571,164.571v36.571c0,20.198,57.307,36.571,128,36.571s128-16.374,128-36.571v-36.571H228.571z"></path>
<path style="fill:#D5DCED;" d="M210.286,128v45.714c0,25.247,65.495,45.714,146.286,45.714s146.286-20.467,146.286-45.714V128  H210.286z"></path>
<g>
	<path style="fill:#E4EAF8;" d="M411.419,202.393c-4.536,0-8.473-3.37-9.063-7.991c-0.634-5.009,2.911-9.585,7.92-10.223   c23.893-3.035,44.366-8.072,59.206-14.558c4.651-2.009,10.026,0.098,12.035,4.719c2.026,4.625-0.089,10.018-4.714,12.04   c-16.419,7.174-38.625,12.688-64.223,15.942C412.187,202.37,411.803,202.393,411.419,202.393z"></path>
	<ellipse style="fill:#E4EAF8;" cx="356.571" cy="128" rx="146.286" ry="45.714"></ellipse>
</g>
<path style="fill:#C7CFE2;" d="M210.286,128v45.714c0,20.152,41.786,37.211,99.719,43.29c5.354,0.562,9.995-3.723,9.995-9.107  v-27.35c0-4.721-3.624-8.611-8.321-9.086C252.879,165.538,210.286,148.345,210.286,128z"></path>
<path style="fill:#FFC850;" d="M228.571,82.286v36.571c0,20.198,57.307,36.571,128,36.571s128-16.374,128-36.571V82.286H228.571z"></path>
<path style="fill:#D5DCED;" d="M210.286,45.714v45.714c0,25.247,65.495,45.714,146.286,45.714s146.286-20.467,146.286-45.714V45.714  H210.286z"></path>
<g>
	<path style="fill:#E4EAF8;" d="M411.419,120.107c-4.536,0-8.473-3.37-9.063-7.991c-0.634-5.009,2.911-9.585,7.92-10.223   c23.893-3.035,44.366-8.072,59.206-14.558c4.651-2.009,10.026,0.098,12.035,4.719c2.026,4.625-0.089,10.018-4.714,12.04   c-16.419,7.174-38.625,12.688-64.223,15.942C412.187,120.085,411.803,120.107,411.419,120.107z"></path>
	<ellipse style="fill:#E4EAF8;" cx="356.571" cy="45.714" rx="146.286" ry="45.714"></ellipse>
</g>
<path style="fill:#C7CFE2;" d="M210.286,45.714v45.714c0,20.152,41.786,37.211,99.719,43.29c5.354,0.562,9.995-3.723,9.995-9.107  v-27.35c0-4.721-3.624-8.611-8.321-9.086C252.879,83.253,210.286,66.059,210.286,45.714z"></path>
<path style="fill:#D5DCED;" d="M9.143,420.571v45.714C9.143,491.533,74.638,512,155.429,512s146.286-20.467,146.286-45.714v-45.714  H9.143z"></path>
<g>
	<path style="fill:#E4EAF8;" d="M210.277,494.965c-4.536,0-8.473-3.37-9.063-7.991c-0.634-5.009,2.911-9.585,7.92-10.223   c23.893-3.035,44.366-8.072,59.206-14.558c4.651-2.009,10.026,0.098,12.035,4.719c2.026,4.625-0.089,10.018-4.714,12.04   c-16.419,7.174-38.625,12.688-64.223,15.942C211.045,494.942,210.661,494.965,210.277,494.965z"></path>
	<ellipse style="fill:#E4EAF8;" cx="155.429" cy="420.571" rx="146.286" ry="45.714"></ellipse>
</g>
<path style="fill:#C7CFE2;" d="M9.143,420.571v45.714c0,20.152,41.786,37.211,99.719,43.29c5.354,0.562,9.995-3.723,9.995-9.107  v-27.35c0-4.721-3.624-8.611-8.321-9.086C51.736,458.11,9.143,440.917,9.143,420.571z"></path>
<path style="fill:#00C3FF;" d="M27.429,374.857v36.571c0,20.198,57.307,36.571,128,36.571s128-16.374,128-36.571v-36.571H27.429z"></path>
<path style="fill:#D5DCED;" d="M9.143,338.286V384c0,25.247,65.495,45.714,146.286,45.714S301.714,409.247,301.714,384v-45.714  H9.143z"></path>
<g>
	<path style="fill:#E4EAF8;" d="M210.277,412.679c-4.536,0-8.473-3.37-9.063-7.991c-0.634-5.009,2.911-9.585,7.92-10.223   c23.893-3.035,44.366-8.072,59.206-14.558c4.651-2.009,10.026,0.098,12.035,4.719c2.026,4.625-0.089,10.018-4.714,12.04   c-16.419,7.174-38.625,12.688-64.223,15.942C211.045,412.656,210.661,412.679,210.277,412.679z"></path>
	<ellipse style="fill:#E4EAF8;" cx="155.429" cy="338.286" rx="146.286" ry="45.714"></ellipse>
</g>
<path style="fill:#C7CFE2;" d="M9.143,338.286V384c0,20.152,41.786,37.211,99.719,43.29c5.354,0.562,9.995-3.723,9.995-9.107v-27.35  c0-4.721-3.624-8.611-8.321-9.086C51.736,375.824,9.143,358.631,9.143,338.286z"></path>
<path style="fill:#00C3FF;" d="M27.429,292.571v36.571c0,20.198,57.307,36.571,128,36.571s128-16.374,128-36.571v-36.571H27.429z"></path>
<path style="fill:#D5DCED;" d="M9.143,256v45.714c0,25.247,65.495,45.714,146.286,45.714s146.286-20.467,146.286-45.714V256H9.143z"></path>
<g>
	<path style="fill:#E4EAF8;" d="M210.277,330.393c-4.536,0-8.473-3.37-9.063-7.991c-0.634-5.009,2.911-9.585,7.92-10.223   c23.893-3.035,44.366-8.072,59.206-14.558c4.651-2.009,10.026,0.098,12.035,4.719c2.026,4.625-0.089,10.018-4.714,12.04   c-16.419,7.174-38.625,12.688-64.223,15.942C211.045,330.37,210.661,330.393,210.277,330.393z"></path>
	<ellipse style="fill:#E4EAF8;" cx="155.429" cy="256" rx="146.286" ry="45.714"></ellipse>
</g>
<path style="fill:#C7CFE2;" d="M9.143,256v45.714c0,20.152,41.786,37.211,99.719,43.29c5.354,0.562,9.995-3.723,9.995-9.107v-27.35  c0-4.721-3.624-8.611-8.321-9.086C51.736,293.538,9.143,276.345,9.143,256z"></path>
<path style="fill:#00C3FF;" d="M27.429,210.286v36.571c0,20.198,57.307,36.571,128,36.571s128-16.374,128-36.571v-36.571H27.429z"></path>
<path style="fill:#D5DCED;" d="M9.143,173.714v45.714c0,25.247,65.495,45.714,146.286,45.714s146.286-20.467,146.286-45.714v-45.714  H9.143z"></path>
<g>
	<path style="fill:#E4EAF8;" d="M210.277,248.107c-4.536,0-8.473-3.37-9.063-7.991c-0.634-5.009,2.911-9.585,7.92-10.223   c23.893-3.035,44.366-8.072,59.206-14.558c4.651-2.009,10.026,0.098,12.035,4.719c2.026,4.625-0.089,10.018-4.714,12.04   c-16.419,7.174-38.625,12.688-64.223,15.942C211.045,248.085,210.661,248.107,210.277,248.107z"></path>
	<ellipse style="fill:#E4EAF8;" cx="155.429" cy="173.714" rx="146.286" ry="45.714"></ellipse>
</g>
<path style="fill:#C7CFE2;" d="M9.143,173.714v45.714c0,20.152,41.786,37.211,99.719,43.29c5.354,0.562,9.995-3.723,9.995-9.107  v-27.35c0-4.721-3.624-8.611-8.321-9.086C51.736,211.253,9.143,194.059,9.143,173.714z"></path>
<g>
</g>
<g>
</g>
<g>
</g>
<g>
</g>
<g>
</g>
<g>
</g>
<g>
</g>
<g>
</g>
<g>
</g>
<g>
</g>
<g>
</g>
<g>
</g>
<g>
</g>
<g>
</g>
<g>
</g>
</svg>