<svg xmlns="http://www.w3.org/2000/svg" xmlns:xlink="http://www.w3.org/1999/xlink" id="Layer_1" x="0px" y="0px" viewBox="0 0 512 512" style="enable-background:new 0 0 512 512;" xml:space="preserve">
<polygon style="fill:#D1F4FF;" points="19.2,358.4 403.2,358.4 403.2,76.8 19.2,76.823 "></polygon>
<polygon style="fill:#A7E5FF;" points="403.2,76.8 211.2,76.812 211.2,358.4 403.2,358.4 "></polygon>
<path style="fill:#408BAF;" d="M416.776,63.224c-3.601-3.602-8.484-5.624-13.577-5.624l-384,0.023C8.595,57.622,0,66.218,0,76.823  V358.4c0,10.602,8.596,19.2,19.2,19.2h121.6V416h-19.2c-10.604,0-19.2,8.596-19.2,19.2c0,10.602,8.596,19.2,19.2,19.2H160h102.4  h38.4c10.604,0,19.2-8.598,19.2-19.2c0-10.604-8.596-19.2-19.2-19.2h-19.2v-38.4h121.6c10.604,0,19.2-8.598,19.2-19.2V76.8  C422.4,71.707,420.378,66.825,416.776,63.224z M384,339.2H262.4H160H38.4V96.022L384,96V339.2z"></path>
<path style="fill:#387896;" d="M416.776,63.224c-3.601-3.602-8.484-5.624-13.577-5.624L211.2,57.612v38.4L384,96v243.2H262.4h-51.2  v115.2h51.2h38.4c10.604,0,19.2-8.598,19.2-19.2c0-10.604-8.596-19.2-19.2-19.2h-19.2v-38.4h121.6c10.604,0,19.2-8.598,19.2-19.2  V76.8C422.4,71.707,420.378,66.825,416.776,63.224z"></path>
<g>
	<path style="fill:#EEB784;" d="M448.415,328.355c15.52-15.122,25.185-36.225,25.185-59.555c0-45.876-37.323-83.2-83.2-83.2   s-83.2,37.324-83.2,83.2c0,23.329,9.665,44.433,25.185,59.555C294.537,348.988,268.8,389.146,268.8,435.2   c0,10.602,8.596,19.2,19.2,19.2h204.8c10.604,0,19.2-8.598,19.2-19.2C512,389.146,486.263,348.988,448.415,328.355z"></path>
	<path style="fill:#EEB784;" d="M231.826,149.778l-22.67-22.67c-7.497-7.496-19.656-7.497-27.154,0   c-7.498,7.5-7.497,19.657,0,27.154l9.094,9.093l-29.462,29.467c-7.658-3.666-16.101-5.606-24.844-5.606   c-15.386,0-29.85,5.992-40.728,16.87c-10.88,10.88-16.873,25.345-16.873,40.73c0,15.386,5.993,29.851,16.874,40.731   c10.88,10.879,25.343,16.868,40.727,16.868s29.847-5.992,40.727-16.869c10.88-10.88,16.874-25.344,16.873-40.73   c0-8.741-1.938-17.183-5.604-24.84l43.039-43.045C239.325,169.432,239.323,157.275,231.826,149.778z M150.371,258.39   c-3.629,3.628-8.451,5.626-13.577,5.623c-5.129,0.001-9.951-1.996-13.578-5.623c-3.626-3.626-5.622-8.448-5.622-13.574   c0-5.129,1.996-9.949,5.626-13.576c3.626-3.626,8.448-5.624,13.576-5.624c5.126,0,9.948,1.998,13.576,5.624   c3.628,3.629,5.624,8.447,5.624,13.576C155.994,249.943,153.996,254.765,150.371,258.39z"></path>
</g>
<g>
	<path style="fill:#E68842;" d="M448.415,328.355c15.52-15.122,25.185-36.225,25.185-59.555c0-45.876-37.323-83.2-83.2-83.2v268.8   h102.4c10.604,0,19.2-8.598,19.2-19.2C512,389.146,486.263,348.988,448.415,328.355z"></path>
	<path style="fill:#E68842;" d="M194.392,244.815c0-8.741-1.938-17.183-5.604-24.84l43.039-43.045   c7.494-7.497,7.494-19.651,0.003-27.149l-81.46,81.459c3.626,3.628,5.623,8.447,5.623,13.574c0.001,5.128-1.998,9.949-5.623,13.574   c-3.629,3.628-8.451,5.626-13.577,5.623c-5.128,0.001-9.947-1.996-13.574-5.62l-27.153,27.153   c10.88,10.879,25.343,16.868,40.727,16.868c15.384,0,29.847-5.992,40.727-16.869C188.401,274.665,194.394,260.201,194.392,244.815z   "></path>
</g>
<g>
</g>
<g>
</g>
<g>
</g>
<g>
</g>
<g>
</g>
<g>
</g>
<g>
</g>
<g>
</g>
<g>
</g>
<g>
</g>
<g>
</g>
<g>
</g>
<g>
</g>
<g>
</g>
<g>
</g>
</svg>