<svg xmlns="http://www.w3.org/2000/svg" id="Capa_1" height="512" viewBox="0 0 512 512" width="512"><g><g><g><g><g><path d="m421 482c-16.54 0-30-13.46-30-30v-45c0-8.28-6.72-15-15-15h-253.5l-31.5 30h-45c-4.14 0-7.89 1.68-10.6 4.4-2.72 2.71-4.4 6.46-4.4 10.6 0 41.36 33.65 75 75 75h315c8.28 0 15-6.72 15-15s-6.72-15-15-15z" fill="#dfe7f4"></path></g></g></g></g><path d="m436 497c0 8.28-6.72 15-15 15h-120v-120h75c8.28 0 15 6.72 15 15v45c0 16.54 13.46 30 30 30 8.28 0 15 6.72 15 15z" fill="#c7cfe1"></path><g><g><g><g><path d="m466 0h-360c-8.28 0-15 6.72-15 15v407h270v38.77c0 32.04 32.22 51.23 60 51.23 33.08 0 60-26.92 60-60v-437c0-8.28-6.72-15-15-15z" fill="#f0f7ff"></path></g></g></g></g><path d="m481 15v437c0 33.08-26.92 60-60 60-27.78 0-60-19.19-60-51.23v-38.77h-60v-422h165c8.28 0 15 6.72 15 15z" fill="#dfe7f4"></path><g><path d="m391 107c0 8.28-6.72 15-15 15h-180c-8.28 0-15-6.72-15-15s6.72-15 15-15h180c8.28 0 15 6.72 15 15z" fill="#61729b"></path></g><path d="m391 107c0 8.28-6.72 15-15 15h-75v-30h75c8.28 0 15 6.72 15 15z" fill="#47568c"></path><g><path d="m286 182h-90c-8.284 0-15-6.716-15-15s6.716-15 15-15h90c8.284 0 15 6.716 15 15s-6.716 15-15 15z" fill="#61729b"></path></g><g><g><path d="m155.394 357.607c-5.858-5.858-5.858-15.355 0-21.213l38.787-38.787c5.857-5.858 15.355-5.858 21.213 0s5.858 15.355 0 21.213l-38.787 38.787c-5.858 5.857-15.356 5.858-21.213 0z" fill="#ff7b4a"></path></g></g><g><g><path d="m275.394 357.607-38.787-38.787c-5.858-5.858-5.858-15.355 0-21.213 5.857-5.858 15.355-5.858 21.213 0l38.787 38.787c5.858 5.858 5.858 15.355 0 21.213-5.857 5.856-15.355 5.858-21.213 0z" fill="#ff435b"></path></g></g><g><g><g><g><path d="m226 332c-24.813 0-45-20.187-45-45s20.187-45 45-45 45 20.187 45 45-20.187 45-45 45z" fill="#fed843"></path></g></g><g><circle cx="226" cy="287" fill="#fabe2c" r="15"></circle></g></g></g></g></svg>