<svg xmlns="http://www.w3.org/2000/svg" viewBox="0 0 512 512"><path d="m512 45v75l-30 31h-452l-30-31v-75c0-24.902344 20.097656-45 45-45h422c24.902344 0 45 20.097656 45 45zm0 0" fill="#ff7816"></path><path d="m512 45v75l-30 31h-226v-151h211c24.902344 0 45 20.097656 45 45zm0 0" fill="#ff4b00"></path><path d="m512 120v346c0 24.898438-20.097656 46-45 46h-422c-24.902344 0-45-21.101562-45-46v-346zm0 0" fill="#ececf1"></path><path d="m512 120v346c0 24.898438-20.097656 46-45 46h-211v-392zm0 0" fill="#e2e2e7"></path><path d="m419 307c-3-3.898438-73.601562-96-163-96s-159 92.101562-162 96c-3.902344 5.398438-3.902344 12.597656 0 18 3 3.898438 72.601562 96 162 96s160-92.101562 163-96c3.902344-5.398438 3.902344-12.601562 0-18zm0 0" fill="#ffd400"></path><path d="m419 325c-3 3.898438-73.601562 96-163 96v-210c89.398438 0 160 92.101562 163 96 3.902344 5.398438 3.902344 12.601562 0 18zm0 0" fill="#fdbf00"></path><g fill="#ececf1"><path d="m452 75c0 8.402344-6.597656 15-15 15h-181c-8.402344 0-15-6.597656-15-15s6.597656-15 15-15h181c8.402344 0 15 6.597656 15 15zm0 0"></path><path d="m90.972656 75c0 8.285156-6.71875 15-15 15-8.285156 0-15-6.714844-15-15s6.714844-15 15-15c8.28125 0 15 6.714844 15 15zm0 0"></path><path d="m150.972656 75c0 8.285156-6.71875 15-15 15-8.285156 0-15-6.714844-15-15s6.714844-15 15-15c8.28125 0 15 6.714844 15 15zm0 0"></path><path d="m210.972656 75c0 8.285156-6.71875 15-15 15-8.285156 0-15-6.714844-15-15s6.714844-15 15-15c8.28125 0 15 6.714844 15 15zm0 0"></path></g><path d="m437 90h-181v-30h181c8.402344 0 15 6.597656 15 15s-6.597656 15-15 15zm0 0" fill="#e2e2e7"></path><path d="m76 271c-8.289062 0-15-6.710938-15-15v-60c0-8.289062 6.710938-15 15-15h60c8.289062 0 15 6.710938 15 15s-6.710938 15-15 15h-45v45c0 8.289062-6.710938 15-15 15zm0 0" fill="#d3d3d8"></path><path d="m136 451h-60c-8.289062 0-15-6.710938-15-15v-60c0-8.289062 6.710938-15 15-15s15 6.710938 15 15v45h45c8.289062 0 15 6.710938 15 15s-6.710938 15-15 15zm0 0" fill="#d3d3d8"></path><path d="m437 271c-8.289062 0-15-6.710938-15-15v-45h-46c-8.289062 0-15-6.710938-15-15s6.710938-15 15-15h61c8.289062 0 15 6.710938 15 15v60c0 8.289062-6.710938 15-15 15zm0 0" fill="#babac0"></path><path d="m437 451h-61c-8.289062 0-15-6.710938-15-15s6.710938-15 15-15h46v-45c0-8.289062 6.710938-15 15-15s15 6.710938 15 15v60c0 8.289062-6.710938 15-15 15zm0 0" fill="#babac0"></path><path d="m256 271c-24.902344 0-45 20.097656-45 45 0 24.898438 20.097656 45 45 45s45-20.101562 45-45c0-24.902344-20.097656-45-45-45zm0 0" fill="#3e5959"></path><path d="m301 316c0 24.898438-20.097656 45-45 45v-90c24.902344 0 45 20.097656 45 45zm0 0" fill="#384949"></path><path d="m256 331c-8.269531 0-15-6.730469-15-15s6.730469-15 15-15 15 6.730469 15 15-6.730469 15-15 15zm0 0" fill="#ececf1"></path><path d="m271 316c0-8.269531-6.730469-15-15-15v30c8.269531 0 15-6.730469 15-15zm0 0" fill="#e2e2e7"></path></svg>